<svg id="undraw_Group_chat_unwm" xmlns="http://www.w3.org/2000/svg" xmlns:xlink="http://www.w3.org/1999/xlink" width="358" height="242.436" viewBox="0 0 358 242.436">
  <defs>
    <style>
      .cls-1, .cls-2, .cls-5 {
        fill: #0c0d1f;
      }

      .cls-1, .cls-11, .cls-20, .cls-9 {
        opacity: 0.1;
      }

      .cls-3 {
        fill: #444053;
      }

      .cls-4 {
        fill: #fff;
      }

      .cls-14, .cls-5 {
        opacity: 0.2;
      }

      .cls-6 {
        fill: url(#linear-gradient);
      }

      .cls-7, .cls-9 {
        fill: #ebe300;
      }

      .cls-8 {
        fill: #65617d;
      }

      .cls-10 {
        fill: #fbbebe;
      }

      .cls-12 {
        fill: #3f3d56;
      }

      .cls-13 {
        fill: #e7effd;
      }

      .cls-15 {
        fill: url(#linear-gradient-2);
      }

      .cls-16 {
        opacity: 0.05;
      }

      .cls-17 {
        fill: #ee8e9e;
      }

      .cls-18 {
        fill: #e6e8ec;
      }

      .cls-19 {
        fill: #565387;
      }

      .cls-21 {
        fill: #f1f1f1;
      }

      .cls-22 {
        fill: #2f2e41;
      }

      .cls-23 {
        fill: url(#linear-gradient-3);
      }

      .cls-24 {
        fill: #be6f72;
      }

      .cls-25 {
        fill: #002350;
      }

      .cls-26 {
        fill: #67647e;
      }

      .cls-27 {
        fill: none;
      }
    </style>
    <linearGradient id="linear-gradient" x1="0.5" y1="1" x2="0.5" gradientUnits="objectBoundingBox">
      <stop offset="0" stop-color="gray" stop-opacity="0.251"/>
      <stop offset="0.535" stop-color="gray" stop-opacity="0.122"/>
      <stop offset="1" stop-color="gray" stop-opacity="0.102"/>
    </linearGradient>
    <linearGradient id="linear-gradient-2" x1="0.5" y1="1" x2="0.5" y2="0" xlink:href="#linear-gradient"/>
    <linearGradient id="linear-gradient-3" x1="-4.618" y1="1" x2="-4.618" y2="0" xlink:href="#linear-gradient"/>
  </defs>
  <path id="Path_760" data-name="Path 760" class="cls-1" d="M386,207.01c0-22.248-9.408-41.9-23.78-53.712q.3-3.372.3-6.839c0-36.122-24.8-65.4-55.384-65.4a48.693,48.693,0,0,0-26.884,8.214c-21.653-16.585-49.92-26.624-80.845-26.624-50.318,0-93.6,26.578-112.8,64.69-1.067-.072-2.141-.113-3.224-.113C52.8,127.221,28,156.5,28,192.625a73.773,73.773,0,0,0,9.114,35.95h0a58.846,58.846,0,0,0,58.846,58.846H331.624a46.2,46.2,0,0,0,46.2-46.2v0A74.084,74.084,0,0,0,386,207.01Z" transform="translate(-28 -62.644)"/>
  <path id="Path_761" data-name="Path 761" class="cls-2" d="M662.7,724.239s-3.846-2.538-7.658-.733c0,0,1.174,2.262,6,2.046Z" transform="translate(-458.82 -516.253)"/>
  <path id="Path_762" data-name="Path 762" class="cls-2" d="M675.425,727.7s1.17,4.457-1.763,7.489c0,0-1.766-1.838-.014-6.339Z" transform="translate(-471.068 -519.582)"/>
  <path id="Path_763" data-name="Path 763" class="cls-2" d="M676.941,707.91s-.284-3.79-8.842-2.533a4.086,4.086,0,0,0,2.965,3.6C674.069,710.14,675.443,709.163,676.941,707.91Z" transform="translate(-467.788 -504.067)"/>
  <path id="Path_764" data-name="Path 764" class="cls-2" d="M692.549,713.95s3.618,1.163.392,9.189a4.086,4.086,0,0,1-2.81-3.726C689.709,716.22,690.98,715.114,692.549,713.95Z" transform="translate(-482.87 -510.132)"/>
  <path id="Path_765" data-name="Path 765" class="cls-2" d="M695.366,684.381s.49-6.237-8.256-5.6c0,0-.621,5.645,6.712,7.1Z" transform="translate(-480.841 -485.94)"/>
  <path id="Path_766" data-name="Path 766" class="cls-2" d="M710.163,662.518s-1.2-7.067-9.941-4.961c0,0-.033,6.111,8.514,6.646Z" transform="translate(-489.859 -471.117)"/>
  <path id="Path_767" data-name="Path 767" class="cls-2" d="M722.059,639.564s-2.007-6.9-10.669-4.824c0,0,2.061,6.192,10.094,6.1Z" transform="translate(-497.532 -455.443)"/>
  <path id="Path_768" data-name="Path 768" class="cls-2" d="M735.641,616.437s-1.963-7.146-10.323-5c0,0,2.79,6.788,9.773,6.216Z" transform="translate(-507.102 -439.423)"/>
  <path id="Path_769" data-name="Path 769" class="cls-2" d="M746.138,591.164s-1.509-8.738-9.307-6.8c0,0,2.266,7.949,8.733,8.076Z" transform="translate(-515.011 -420.903)"/>
  <path id="Path_770" data-name="Path 770" class="cls-2" d="M753.037,565.905s-1.81-8.808-9.693-6.246c0,0,3.095,8.323,9.143,7.463Z" transform="translate(-519.486 -403.803)"/>
  <path id="Path_771" data-name="Path 771" class="cls-2" d="M759.411,537.556s-2.875-8.807-8.975-8.568c0,0,2.94,9.3,8.466,10.336Z" transform="translate(-524.359 -383.048)"/>
  <path id="Path_772" data-name="Path 772" class="cls-2" d="M764.394,511.123s-3.129-10.6-8.094-9.784c0,0,2.167,8.1,7.917,11.436Z" transform="translate(-528.388 -364.024)"/>
  <path id="Path_773" data-name="Path 773" class="cls-2" d="M766.695,484.253s-2.933-8.835-7.834-9.186c0,0,2,8.692,7.725,11.482Z" transform="translate(-530.147 -346.004)"/>
  <path id="Path_774" data-name="Path 774" class="cls-2" d="M770.647,458.237s-3.658-8.844-6.9-9.044c0,0,1.589,8.708,6.574,10.5Z" transform="translate(-533.507 -328.228)"/>
  <path id="Path_775" data-name="Path 775" class="cls-2" d="M775.048,430.735s-2.249-9.605-5.484-10.4c0,0,.443,7.857,5.159,11.121Z" transform="translate(-537.501 -308.399)"/>
  <path id="Path_776" data-name="Path 776" class="cls-2" d="M780.031,402.118s-2.365-7.655-4.984-8.823c0,0,.518,9.026,4.377,10.7Z" transform="translate(-541.268 -289.823)"/>
  <path id="Path_777" data-name="Path 777" class="cls-2" d="M789.891,370.773l.477-13.5s-4.888,10.188-.837,15.881Z" transform="translate(-550.116 -265.073)"/>
  <path id="Path_778" data-name="Path 778" class="cls-2" d="M802.09,334.693s3.525-9.858,4.372-10.407c0,0-6.915,6.395-6.24,14.623Z" transform="translate(-558.533 -242.408)"/>
  <path id="Path_779" data-name="Path 779" class="cls-2" d="M711.169,696.579s6.2-.812,6.017,7.955c0,0-5.6.913-7.434-6.336Z" transform="translate(-496.406 -498.184)"/>
  <path id="Path_780" data-name="Path 780" class="cls-2" d="M729.816,673.516s7.168-.024,6.584,8.95c0,0-6.015,1.075-8-7.255Z" transform="translate(-509.218 -482.352)"/>
  <path id="Path_781" data-name="Path 781" class="cls-2" d="M744.447,651.59s6.506-3.051,10.669,4.824c0,0-6.01,2.543-11.244-3.552Z" transform="translate(-519.849 -466.888)"/>
  <path id="Path_782" data-name="Path 782" class="cls-2" d="M757.563,627.014s6.661-3.247,10.573,4.447c0,0-6.939,2.389-11.123-3.231Z" transform="translate(-528.878 -449.934)"/>
  <path id="Path_783" data-name="Path 783" class="cls-2" d="M765.653,601.389s6.412-6.125,11.529.069c0,0-6.55,5.04-11.824,1.294Z" transform="translate(-534.612 -430.939)"/>
  <path id="Path_784" data-name="Path 784" class="cls-2" d="M772.652,574.045s6.452-6.264,11.528.289c0,0-7.241,5.141-11.757,1.026Z" transform="translate(-539.465 -412.154)"/>
  <path id="Path_785" data-name="Path 785" class="cls-2" d="M777.013,541.685s4.97-7.819,10.82-6.075c0,0-5.156,8.283-10.765,7.913Z" transform="translate(-542.619 -387.427)"/>
  <path id="Path_786" data-name="Path 786" class="cls-2" d="M781.41,514.23s5.012-9.854,9.743-8.143c0,0-3.609,7.572-9.871,9.8Z" transform="translate(-545.552 -367.18)"/>
  <path id="Path_787" data-name="Path 787" class="cls-2" d="M781.7,487.692s5.148-7.755,9.97-6.809c0,0-4.207,7.864-10.468,9.052Z" transform="translate(-545.498 -349.946)"/>
  <path id="Path_788" data-name="Path 788" class="cls-2" d="M784.049,458.268s3.989-8.7,7.233-8.777c0,0-1.917,8.642-6.965,10.24Z" transform="translate(-547.453 -328.433)"/>
  <path id="Path_789" data-name="Path 789" class="cls-2" d="M786.579,433.583s4.434-8.812,7.766-8.83c0,0-2.269,7.535-7.618,9.6Z" transform="translate(-549.192 -311.436)"/>
  <path id="Path_790" data-name="Path 790" class="cls-2" d="M788.709,405.391s3.317-7.293,6.063-8.119c0,0-1.659,8.887-5.7,10.053Z" transform="translate(-550.655 -292.554)"/>
  <path id="Path_791" data-name="Path 791" class="cls-2" d="M793.094,374.807l7.413-11.293s-1.9,11.139-8.5,13.444Z" transform="translate(-552.924 -269.361)"/>
  <path id="Path_792" data-name="Path 792" class="cls-2" d="M803.845,345.278s8.616-5.948,8.928-6.908c0,0-4.4,8.33-12.519,9.8Z" transform="translate(-558.587 -252.085)"/>
  <path id="Path_793" data-name="Path 793" class="cls-2" d="M812.856,331.042s9.892-9.51,12.418-9.5a16.15,16.15,0,0,0-12.655,8.993Z" transform="translate(-567.082 -240.524)"/>
  <path id="Path_794" data-name="Path 794" class="cls-3" d="M789.015,373.913l.361.046c1.859-14.55,4.569-23.149,7.631-24.213l-.12-.344C793.641,350.53,790.919,359.005,789.015,373.913Z" transform="translate(-550.865 -259.665)"/>
  <path id="Path_795" data-name="Path 795" class="cls-3" d="M780.282,460.147l.544.046c.114-1.359.2-2.749.262-4.134.519-12.043,1.324-23.1,2.383-31.392l-.316-.39c-1.061,8.306-2.094,19.7-2.613,31.758C780.483,457.413,780.4,458.8,780.282,460.147Z" transform="translate(-544.865 -311.109)"/>
  <path id="Path_796" data-name="Path 796" class="cls-3" d="M646.414,602.49c.1-.042,9.68-4.322,19.629-14.531a78.961,78.961,0,0,0,14.349-20.327c4.6-9.365,7.4-20.876,8.343-32.057l-.568.267c-2.112,25.1-13.538,42.254-22.623,51.586-9.851,10.119-19.328,14.355-19.423,14.4Z" transform="translate(-452.688 -387.577)"/>
  <path id="Path_797" data-name="Path 797" class="cls-4" d="M272.233,349.15V467.372c0,3.516-3.391,6.375-7.578,6.375h-160.4c-4.187,0-7.578-2.859-7.578-6.375V349.15c0-3.522,3.391-7.112,7.578-7.112h160.4C268.842,342.038,272.233,345.628,272.233,349.15Z" transform="translate(-75.184 -254.605)"/>
  <path id="Path_798" data-name="Path 798" class="cls-5" d="M272.233,349.616V368.2H96.675V349.616a7.576,7.576,0,0,1,7.578-7.578h160.4A7.576,7.576,0,0,1,272.233,349.616Z" transform="translate(-75.184 -254.605)"/>
  <circle id="Ellipse_95" data-name="Ellipse 95" class="cls-4" cx="5.068" cy="5.068" r="5.068" transform="translate(26.051 95.446)"/>
  <circle id="Ellipse_96" data-name="Ellipse 96" class="cls-4" cx="5.068" cy="5.068" r="5.068" transform="translate(40.795 95.446)"/>
  <circle id="Ellipse_97" data-name="Ellipse 97" class="cls-4" cx="5.068" cy="5.068" r="5.068" transform="translate(55.539 95.446)"/>
  <path id="Path_799" data-name="Path 799" class="cls-6" d="M112.451,638.149s-4.9,1.186-6.84,3.4A6.6,6.6,0,0,1,103,643.209v-3.352c1.12-1.882,2.251-3.976,2.251-3.976.051-.1.459-1.546.459-1.546.919-.722-.051-3.248-.051-3.248s.561-1.6.255-1.907-.051-1.134.2-1.495a1.867,1.867,0,0,0,.2-1.134c0-.309-.408-.773-1.072-1.031s.051-.67.459-.773.51-1.083.051-1.6.051-.825.306-1.392-.817-.464-.817-.464v-5.205h0s-.306-1.7-.613-4.692-1.481-3.3-1.481-3.3a13.361,13.361,0,0,1-1.838-.722,12.573,12.573,0,0,0-1.94-.721,9.947,9.947,0,0,1-2.5-.346,7.673,7.673,0,0,0-1.707-.37c-.063-.029-.123-.06-.184-.091a6.682,6.682,0,0,1-3.1-3.282c-.031-.071-.06-.141-.089-.21a7.284,7.284,0,0,0,.816-1.082l.005-.009c0,.053,0,.105,0,.158,0,.022,0,.044,0,.066,0,.127,0,.254-.005.381h0v.011c.815-1.439,3.176-1.767,3.4-3.409a1.72,1.72,0,0,0,.015-.225v-.01c0-.055,0-.111-.007-.166-.031-.458-.187-.915-.218-1.378a2.683,2.683,0,0,1,.007-.4v.007c.106-1.275,1.067-2.384,1.508-3.623a4.438,4.438,0,0,0,.23-1.031v-.009q.016-.159.022-.32c0-.027,0-.053,0-.08q0-.111,0-.223a4.823,4.823,0,0,0-1.593-3.483c-.814-.707-1.889-1.152-2.452-2.075-.263-.431-.392-.937-.679-1.352a3.4,3.4,0,0,0-2.469-1.213,14.374,14.374,0,0,1-2.8-.37c-.636-.209-1.213-.578-1.856-.764a3.551,3.551,0,0,0-3.814,1.375A6.761,6.761,0,0,1,80.9,584.6c-.935.79-2.522.447-3.342,1.359a2.421,2.421,0,0,0-.447,1.881l0,.024q.007.081.015.162c0,.025.005.05.008.076s.006.054.009.081c.029.25.065.5.1.739,0,.037.008.073.013.11.009.074.018.149.025.224.005.054.01.109.014.164s.011.135.015.2.007.106.01.159a11,11,0,0,1-1.171,5.5c-.772,1.516-1.921,2.912-2.121,4.6a4.881,4.881,0,0,0-.022.835c0,.033,0,.066,0,.1,0,.05.009.1.014.15s.011.115.018.172c0,.033.009.066.014.1.01.076.022.152.034.229l.009.049c.2,1.154.662,2.293.907,3.45a9.562,9.562,0,0,1,.182,1.3v.009q.015.209.02.418c0,.189,0,.378,0,.567a8.9,8.9,0,0,1-1.19.365c-.715.1-2.808,1.959-2.655,2.423s-.937,3.716-.968,3.812l0,0h0L68.67,625.726s-.909.876-.625,1.443a2.5,2.5,0,0,1-.055,1.546s-1.536.67-1.2,1.083a1.789,1.789,0,0,1-.049,1.7c-.235.516-.618,1.443,0,1.6s.106,2.165.106,2.165,2.154-.247,2,1.031c-.051.408,1.507,1.527,2.157,1.975v6.159a18.86,18.86,0,0,1-2.552-.866c-1.327-.619-8.779-1.8-10.413,1.753s2.246,8.3,3.216,8.815a6.638,6.638,0,0,1,1.123,1.083c.2.361,1.378.464,1.378.464a8.666,8.666,0,0,1,1.531.876,17.5,17.5,0,0,0,4.3,1.282h0s-1.787,4.113,1.128,3.774,4.334-1.774,6.389-1.774c.821,0,2.346-.115,3.882-.252a10.27,10.27,0,0,1,1.141.269,14.6,14.6,0,0,0,2.654.567s2.3,1.237,3.522.928a.8.8,0,0,0,.278-.149l.028-.006a1.636,1.636,0,0,0,.738-.632,22.005,22.005,0,0,1,3.936.634c1.27.491,10.35-.189,10.35-.189s5.866.115,7.548.624,1.084-5.19-2.018-5.831a12.646,12.646,0,0,0-2.523-.223,5.533,5.533,0,0,0,.586-.713c1.118-.1,1.852-.164,1.852-.164s2.96-1.443,4.645-2.32a10.593,10.593,0,0,0,2.858-2.268s1.48-.928,2.093-1.289.919-1.547.919-1.547C124.242,636.757,112.451,638.149,112.451,638.149ZM99.158,624.958c0-.174,0-.347,0-.52.163.118.139.3,0,.52Zm.049,3.646c.123.163.244.311.33.422.33.423-.267.629-.224,1.338.01.159.023.38.039.625h0c-.063-1.016-.114-1.859-.144-2.385Z" transform="translate(-48.366 -419.224)"/>
  <path id="Path_800" data-name="Path 800" class="cls-7" d="M72.638,779.393a30.18,30.18,0,0,1-4.185-1.276c-1.327-.612-8.779-1.786-10.413,1.735s2.246,8.218,3.216,8.728S71.668,782.1,71.668,782.1l7.452,3.139,1.429-4.875Z" transform="translate(-48.367 -553.745)"/>
  <rect id="Rectangle_253" data-name="Rectangle 253" class="cls-8" width="32.425" height="11.28" rx="5.64" transform="translate(27.423 226.618)"/>
  <path id="Path_801" data-name="Path 801" class="cls-9" d="M148.054,792.448a5.641,5.641,0,0,1-5.64,5.641H121.269a5.64,5.64,0,0,1,0-11.281h21.145a5.64,5.64,0,0,1,5.64,5.639Z" transform="translate(-88.206 -560.19)"/>
  <path id="Path_802" data-name="Path 802" class="cls-10" d="M115.6,805.885a26.961,26.961,0,0,1-5.9.8c-2.653-.037-15.065,5.119-15.065,5.119s-1.787,4.073,1.128,3.736,4.334-1.756,6.389-1.756,8.519-.71,8.519-.71l6.221-4.6Z" transform="translate(-73.41 -573.297)"/>
  <path id="Path_803" data-name="Path 803" class="cls-10" d="M135.715,651.086l-5.833,1.15-.378.075s-4.611-1.225-4.764-1.328-4.338-5.742-4.338-5.742a8.445,8.445,0,0,0,3.779-.936c.06-.034.118-.07.176-.107a3.68,3.68,0,0,0,1.577-1.926c.029-.084.055-.171.08-.262a5.175,5.175,0,0,0-.049-2.511c-.564-2.38.743-3.035,2.484-2.978a19.555,19.555,0,0,1,5.938,1.652,6.971,6.971,0,0,0,.538,2.328c.028.069.058.138.089.208a6.643,6.643,0,0,0,3.1,3.249c.061.031.121.061.184.09.185.089.381.173.585.25C143.32,645.982,135.715,651.086,135.715,651.086Z" transform="translate(-91.486 -456.931)"/>
  <path id="Path_804" data-name="Path 804" class="cls-11" d="M146.936,640.709a7.352,7.352,0,0,1-9.079,1.563,4.941,4.941,0,0,0,.031-2.773c-1.378-5.819,8.422-1.326,8.422-1.326A7.062,7.062,0,0,0,146.936,640.709Z" transform="translate(-103.408 -456.932)"/>
  <path id="Path_805" data-name="Path 805" class="cls-10" d="M140.7,617.254a7.312,7.312,0,0,1-1.113,3.89,7.222,7.222,0,0,1-.816,1.072,7.314,7.314,0,0,1-4.977,2.375c-.147.009-.3.014-.444.014a7.35,7.35,0,1,1,7.35-7.35Z" transform="translate(-95.332 -438.646)"/>
  <path id="Path_806" data-name="Path 806" class="cls-11" d="M135.715,667.422l-5.833,1.15-.378.075s-4.611-1.225-4.764-1.328-4.338-5.742-4.338-5.742a8.445,8.445,0,0,0,3.779-.936c.06-.034.118-.07.176-.107a6.845,6.845,0,0,0,4.975,2.176,7.09,7.09,0,0,0,1.038-.083c.821-.126,1.648-.207,2.473-.292,1.58-.165,4-.645,5.268-2.041.061.031.121.061.184.09.185.089.381.173.585.25C143.32,662.318,135.715,667.422,135.715,667.422Z" transform="translate(-91.486 -473.267)"/>
  <path id="Path_807" data-name="Path 807" class="cls-2" d="M127.17,682.524c.051,1.124.868,13.781.868,13.781H102.567l.173-7.969.139-6.375.046-2.092.2-7.248-.737-.649-4.011-3.537,0,0c.031-.095,1.119-3.321.968-3.775s1.94-2.3,2.655-2.4a9.016,9.016,0,0,0,1.2-.364,16.484,16.484,0,0,1,2.988-.948,18.116,18.116,0,0,0,2.86-.109h0a6.83,6.83,0,0,0,5.148,2.375,7.09,7.09,0,0,0,1.038-.083c.821-.126,1.648-.207,2.473-.292,1.66-.173,4.242-.694,5.451-2.257a7.745,7.745,0,0,1,1.707.366,10.04,10.04,0,0,0,2.5.343,12.66,12.66,0,0,1,1.94.714,13.442,13.442,0,0,0,1.838.715s1.174.306,1.481,3.266.613,4.646.613,4.646l-6.075,5.257S127.12,681.4,127.17,682.524Z" transform="translate(-76.357 -473.465)"/>
  <path id="Path_808" data-name="Path 808" class="cls-10" d="M68.365,686.748l.892,1.429,3.344,1.179,2.3-4.19-2.118-1.429-3.4-1.327-1.94,1.123Z" transform="translate(-46.34 -468.858)"/>
  <path id="Path_809" data-name="Path 809" class="cls-7" d="M188.558,768.294s4.747-.357,6.687-2.552,6.84-3.369,6.84-3.369,11.791-1.378,7.146,9.035c0,0-.306,1.174-.919,1.531s-2.093,1.276-2.093,1.276L188.1,772.633Z" transform="translate(-138 -543.36)"/>
  <path id="Path_810" data-name="Path 810" class="cls-11" d="M177.574,795.585a5.622,5.622,0,0,1-.939,3.118c-3.047.271-9.8.905-11.209,1.3-1.735.481-5.246-.357-5.631-.452l-.035-.008s-.677-2.053-1-3.367c-.145-.6-.219-1.041-.124-1.073.306-.1,3.115-.868,3.063-.435s8.422-3.292,8.422-3.292l.26,3.267C171.245,795.632,177.574,794.167,177.574,795.585Z" transform="translate(-117.726 -563.327)"/>
  <path id="Path_811" data-name="Path 811" class="cls-7" d="M186.975,793.192l-.357,1.327a10.573,10.573,0,0,1-2.858,2.246c-1.684.868-4.645,2.3-4.645,2.3s-10.872.919-12.71,1.429-5.666-.459-5.666-.459-1.429-4.339-1.123-4.441,3.114-.868,3.063-.434,8.422-3.292,8.422-3.292Z" transform="translate(-118.399 -563.665)"/>
  <path id="Path_812" data-name="Path 812" class="cls-10" d="M150.412,821.869a45.649,45.649,0,0,1,6.614.859c1.27.486,10.35-.187,10.35-.187s5.866.114,7.548.617,1.084-5.139-2.018-5.774a22.416,22.416,0,0,0-7.473.3s-4.932-.635-5.53-.71-4.539.036-4.539.036Z" transform="translate(-112.105 -580.898)"/>
  <path id="Path_813" data-name="Path 813" class="cls-11" d="M83.309,787.658s7.062.635,9,1.794Z" transform="translate(-66.001 -560.774)"/>
  <path id="Path_814" data-name="Path 814" class="cls-11" d="M207.183,772.853s-5.53,1.345-7.7,3.326Z" transform="translate(-145.821 -550.602)"/>
  <path id="Path_815" data-name="Path 815" class="cls-11" d="M84.623,782.524c.112.037,3.251.448,3.176.747S84.623,782.524,84.623,782.524Z" transform="translate(-66.904 -557.247)"/>
  <path id="Path_816" data-name="Path 816" class="cls-11" d="M68.86,800.743l.408,1.531a6.61,6.61,0,0,1,1.123,1.072c.2.357,1.378.459,1.378.459a8.686,8.686,0,0,1,1.531.868,25.327,25.327,0,0,0,6.738,1.684c3.114.408,8.881,1.174,10.106,1.582a14.732,14.732,0,0,0,2.654.561s2.3,1.225,3.522.919,3.318-5.87,3.318-5.87-8.065-1.889-8.32-2.5S83.3,797.58,83.3,797.58l-4.594.109Z" transform="translate(-56.073 -567.591)"/>
  <path id="Path_817" data-name="Path 817" class="cls-7" d="M67.881,795.513l.408,1.531a6.612,6.612,0,0,1,1.123,1.072c.2.357,1.378.459,1.378.459a8.686,8.686,0,0,1,1.531.868,25.327,25.327,0,0,0,6.738,1.684c3.114.408,8.881,1.174,10.106,1.582a14.722,14.722,0,0,0,2.654.561s2.3,1.225,3.522.919,3.318-5.87,3.318-5.87-8.065-1.889-8.32-2.5S78.7,790.561,78.7,790.561l-3.573-.817Z" transform="translate(-55.401 -562.208)"/>
  <path id="Path_818" data-name="Path 818" class="cls-2" d="M90.534,684.05l-.892.51L87.92,696.3s-.909.868-.625,1.429a2.452,2.452,0,0,1-.055,1.531s-1.536.663-1.2,1.072a1.756,1.756,0,0,1-.049,1.684c-.235.51-.618,1.429,0,1.582s.106,2.144.106,2.144,2.154-.245,2,1.021c-.064.51,2.437,2.144,2.437,2.144s-2.842-5.155,3.524-4.441l.547-2.906s.547-1.636,0-2.147.123-2.935.123-2.935l.12-10.54Z" transform="translate(-67.616 -489.589)"/>
  <path id="Path_819" data-name="Path 819" class="cls-11" d="M96.8,732.495c.112.187,3.55.568,3.774,1.181S96.8,732.495,96.8,732.495Z" transform="translate(-75.271 -522.874)"/>
  <path id="Path_820" data-name="Path 820" class="cls-11" d="M93.339,739.115s.466-1.457,1.578-1.2S93.339,739.115,93.339,739.115Z" transform="translate(-72.892 -526.579)"/>
  <path id="Path_821" data-name="Path 821" class="cls-11" d="M91.429,744.658s.822-1.943,1.943-1.793S91.429,744.658,91.429,744.658Z" transform="translate(-71.58 -529.993)"/>
  <path id="Path_822" data-name="Path 822" class="cls-10" d="M189.074,743.211l-.357,2.144s-3.675,6.738-4.339,6.84-4.288-4.492-4.288-4.492l-.97-4.492,3.818-.724,1.695-1.675S188.921,741.22,189.074,743.211Z" transform="translate(-131.83 -528.588)"/>
  <path id="Path_823" data-name="Path 823" class="cls-2" d="M193.509,687.642l1.378.97v5.155s1.072-.1.817.459-.766.868-.306,1.378.357,1.48-.051,1.582-1.123.51-.459.766,1.072.715,1.072,1.021a1.833,1.833,0,0,1-.2,1.123c-.255.357-.51,1.174-.2,1.48s-.255,1.889-.255,1.889.97,2.5.051,3.216c0,0-.408,1.429-.459,1.531,0,0,.643-4.969-5.778-2.867,0,0-.119-1.894-.163-2.6s.554-.906.224-1.325-1.156-1.378-.766-1.633.255-.715.1-1.072-.694-.357-.2-.791.778-.841.491-1.046-.785-.87-.389-1.175.408-4.747.408-4.747S190.447,684.426,193.509,687.642Z" transform="translate(-138 -491.446)"/>
  <path id="Path_824" data-name="Path 824" class="cls-11" d="M203.306,717.142s1.962-.532,2.027,0S203.306,717.142,203.306,717.142Z" transform="translate(-148.446 -512.163)"/>
  <path id="Path_825" data-name="Path 825" class="cls-11" d="M196.262,721.58s2.69-.673,3.027-.149S196.262,721.58,196.262,721.58Z" transform="translate(-143.607 -515.135)"/>
  <path id="Path_826" data-name="Path 826" class="cls-11" d="M194.351,726.474s4.035-.56,4.3.262S194.351,726.474,194.351,726.474Z" transform="translate(-142.294 -518.609)"/>
  <path id="Path_827" data-name="Path 827" class="cls-11" d="M196.262,732.495c.149.037,3.886.3,3.961,1.009S196.262,732.495,196.262,732.495Z" transform="translate(-143.607 -522.874)"/>
  <rect id="Rectangle_254" data-name="Rectangle 254" class="cls-12" width="31.998" height="18.175" rx="9.087" transform="translate(22.638 211.922)"/>
  <circle id="Ellipse_98" data-name="Ellipse 98" class="cls-13" cx="1.18" cy="1.18" r="1.18" transform="translate(37.457 219.829)"/>
  <path id="Path_828" data-name="Path 828" class="cls-11" d="M117.466,704.252s3.067,2.344,5.438.558C122.9,704.81,118.9,705.175,117.466,704.252Z" transform="translate(-89.469 -503.469)"/>
  <path id="Path_829" data-name="Path 829" class="cls-11" d="M167.093,706.265s3.067,2.344,5.438.558C172.531,706.823,168.522,707.188,167.093,706.265Z" transform="translate(-123.566 -504.852)"/>
  <path id="Path_830" data-name="Path 830" class="cls-11" d="M126.356,617.251a7.312,7.312,0,0,1-1.113,3.89,11.2,11.2,0,0,0-1.657-5.8c-1.02-1.566-4.119-4.312-6.251-3.548a1.513,1.513,0,0,0-.931,1c-.211.8.407,1.136.8,1.775a5.435,5.435,0,0,1,.743,3.667,5.163,5.163,0,0,1-.107.508c-.335,1.259-1.1,2.7-.311,3.733.553.72,1.741.968,1.9,1.86a1.088,1.088,0,0,1,.015.253c-.037.6-.55,1.13-.773,1.721a2.825,2.825,0,0,0,.158,2.084,13.4,13.4,0,0,1,1.057,2.794,5.524,5.524,0,0,1-.507,2.761,12.371,12.371,0,0,0-.842,2.6c-.247,1.7.375,3.658-.692,5a.746.746,0,0,1-.467.315c-.684.072-.568-1.158-1.118-1.571a4.81,4.81,0,0,1-.145,2.128,1.639,1.639,0,0,1-1.643,1.124l-.243-1.6a4.627,4.627,0,0,1-1.7,1.064,12.389,12.389,0,0,1,1.773-4.8c-1.8.865-2.845,2.74-3.781,4.5a5.805,5.805,0,0,0-.983,3.534c.083.5.3.977.346,1.482a1.233,1.233,0,0,1-.606,1.286,1.1,1.1,0,0,1-1.184-.368c-.017-.02-.034-.04-.051-.061a1.182,1.182,0,0,1-.081-.115,1.777,1.777,0,0,1-.136-.242,4.689,4.689,0,0,1-.288-.939l-.032-.138a16.64,16.64,0,0,1-.556-6.349,11.928,11.928,0,0,0,.335-2.337,4.322,4.322,0,0,0-.266-1.3c-.417-1.167-1.219-2.24-1.677-3.416a.187.187,0,0,1-.011-.026,1.877,1.877,0,0,1,.086-1.9,3.868,3.868,0,0,1,.853-.577,3.846,3.846,0,0,0,1.449-2.724,9.178,9.178,0,0,0,.112-1.433,16.483,16.483,0,0,1,2.988-.948,18.093,18.093,0,0,0,2.86-.109,3.742,3.742,0,0,0,1.753-2.033c.029-.084.055-.172.08-.262a7.351,7.351,0,1,1,10.84-6.471Z" transform="translate(-80.987 -438.644)"/>
  <path id="Path_831" data-name="Path 831" class="cls-12" d="M117.842,600.425c-.336,1.259-1.1,2.7-.31,3.733.553.72,1.741.967,1.9,1.861.126.707-.5,1.3-.757,1.974-.606,1.6.974,3.18,1.214,4.878.261,1.841-1.081,3.52-1.349,5.36-.246,1.7.375,3.658-.692,5a.741.741,0,0,1-.467.316c-.684.073-.568-1.157-1.118-1.57a4.785,4.785,0,0,1-.145,2.128,1.637,1.637,0,0,1-1.643,1.124l-.244-1.605a4.646,4.646,0,0,1-1.7,1.065,12.4,12.4,0,0,1,1.773-4.8c-1.8.866-2.845,2.739-3.78,4.5a5.8,5.8,0,0,0-.983,3.533c.083.5.3.977.346,1.483a1.232,1.232,0,0,1-.607,1.286,1.114,1.114,0,0,1-1.234-.428,3.228,3.228,0,0,1-.505-1.3,16.936,16.936,0,0,1-.588-6.487,11.886,11.886,0,0,0,.334-2.336c-.062-1.724-1.333-3.136-1.954-4.745a1.879,1.879,0,0,1,.086-1.9,3.894,3.894,0,0,1,.854-.577,3.849,3.849,0,0,0,1.449-2.724,9.439,9.439,0,0,0-.1-3.41c-.359-1.679-1.18-3.317-.977-5.022.2-1.676,1.349-3.058,2.121-4.559a10.793,10.793,0,0,0,1.094-6.3c-.133-1.007-.365-2.172.317-2.924.82-.9,2.406-.563,3.342-1.346a6.7,6.7,0,0,0,1.017-1.457,3.57,3.57,0,0,1,3.814-1.362c.643.184,1.22.55,1.856.757a14.521,14.521,0,0,0,2.8.366,3.409,3.409,0,0,1,2.469,1.2c.286.411.416.912.679,1.339.563.914,1.639,1.354,2.452,2.054a4.761,4.761,0,0,1,1.34,5.085c-.486,1.353-1.61,2.549-1.514,3.984a8.752,8.752,0,0,1,.209,1.752c-.225,1.626-2.586,1.951-3.4,3.375a11.675,11.675,0,0,0-1.658-6.7c-1.02-1.567-4.12-4.312-6.25-3.548a1.514,1.514,0,0,0-.931,1c-.211.8.407,1.136.8,1.775a5.4,5.4,0,0,1,.636,4.175Z" transform="translate(-80.987 -420.634)"/>
  <g id="Group_19" data-name="Group 19" class="cls-14" transform="translate(24.14 168.581)">
    <path id="Path_832" data-name="Path 832" d="M111.12,648.885a9.433,9.433,0,0,0-.2-2.186,26.64,26.64,0,0,1-1-4.26c-.082,1.6.665,3.14,1,4.719A9.421,9.421,0,0,1,111.12,648.885Z" transform="translate(-108.416 -629.581)"/>
    <path id="Path_833" data-name="Path 833" d="M123.536,698.589c.124-.228.253-.453.392-.673-1.8.866-2.845,2.739-3.78,4.5a6.3,6.3,0,0,0-1.014,3.261,7.345,7.345,0,0,1,1.014-2.8C121.013,701.247,121.975,699.524,123.536,698.589Z" transform="translate(-114.749 -667.697)"/>
    <path id="Path_834" data-name="Path 834" d="M113.631,717.581a1.083,1.083,0,0,1-.6.9,1.114,1.114,0,0,1-1.234-.428,3.228,3.228,0,0,1-.505-1.3,23.083,23.083,0,0,1-.711-4.635,21.2,21.2,0,0,0,.711,5.094,3.227,3.227,0,0,0,.505,1.3,1.114,1.114,0,0,0,1.234.428,1.232,1.232,0,0,0,.607-1.286C113.638,717.626,113.634,717.6,113.631,717.581Z" transform="translate(-108.879 -677.454)"/>
    <path id="Path_835" data-name="Path 835" d="M144.5,632.268a5.106,5.106,0,0,1-.166,1.085,9,9,0,0,0-.646,2.86,15.314,15.314,0,0,1,.646-2.4,5.176,5.176,0,0,0,.166-1.545Z" transform="translate(-131.616 -622.593)"/>
    <path id="Path_836" data-name="Path 836" d="M120.058,604.211a10.6,10.6,0,0,0-.088-1.629c-.053-.4-.12-.82-.141-1.232a9.212,9.212,0,0,0,.141,1.691A10.556,10.556,0,0,1,120.058,604.211Z" transform="translate(-115.232 -601.35)"/>
    <path id="Path_837" data-name="Path 837" d="M148.892,655c0-.013-.007-.024-.009-.036a11.916,11.916,0,0,1-.748,1.55,2.191,2.191,0,0,0-.125,1,2.105,2.105,0,0,1,.125-.539C148.388,656.3,149.018,655.71,148.892,655Z" transform="translate(-134.585 -638.188)"/>
    <path id="Path_838" data-name="Path 838" d="M107.3,686.591c-.062-1.723-1.333-3.136-1.954-4.745a3.186,3.186,0,0,1-.2-.785,2.645,2.645,0,0,0,.2,1.244c.61,1.582,1.848,2.975,1.948,4.66C107.3,686.841,107.306,686.716,107.3,686.591Z" transform="translate(-105.139 -656.117)"/>
    <path id="Path_839" data-name="Path 839" d="M148.265,616.78c-1.02-1.567-4.12-4.312-6.25-3.548a1.514,1.514,0,0,0-.931,1,1.085,1.085,0,0,0-.016.537c.005-.026.009-.051.016-.077a1.514,1.514,0,0,1,.931-1c2.131-.764,5.23,1.981,6.25,3.548a11.337,11.337,0,0,1,1.661,6.038A11.573,11.573,0,0,0,148.265,616.78Z" transform="translate(-129.806 -609.423)"/>
    <path id="Path_840" data-name="Path 840" d="M172.825,635.437c-.224,1.622-2.575,1.95-3.4,3.366q0,.235-.006.468c.815-1.424,3.176-1.75,3.4-3.375a2,2,0,0,0,0-.481C172.826,635.422,172.826,635.429,172.825,635.437Z" transform="translate(-149.307 -624.755)"/>
    <path id="Path_841" data-name="Path 841" d="M181.127,614.327c-.486,1.353-1.61,2.549-1.514,3.984,0,.021,0,.042.007.063.106-1.263,1.067-2.361,1.508-3.587a4.5,4.5,0,0,0,.25-1.748A4.421,4.421,0,0,1,181.127,614.327Z" transform="translate(-156.303 -609.381)"/>
    <path id="Path_842" data-name="Path 842" d="M142.313,703.611a.741.741,0,0,1-.467.316c-.684.073-.568-1.157-1.118-1.57.013.163.026.327.036.492.508.44.414,1.609,1.083,1.538a.742.742,0,0,0,.467-.316,4.1,4.1,0,0,0,.653-2.736A3.607,3.607,0,0,1,142.313,703.611Z" transform="translate(-129.591 -670.045)"/>
    <path id="Path_843" data-name="Path 843" d="M132.391,709.222a1.638,1.638,0,0,1-1.643,1.124l-.244-1.605a4.646,4.646,0,0,1-1.615,1.032c-.031.164-.061.327-.085.492a4.644,4.644,0,0,0,1.7-1.065l.244,1.605a1.637,1.637,0,0,0,1.643-1.124,3.619,3.619,0,0,0,.189-1.452A3.089,3.089,0,0,1,132.391,709.222Z" transform="translate(-121.399 -674.783)"/>
    <path id="Path_844" data-name="Path 844" d="M147.861,682.443a8.223,8.223,0,0,0-.062,1.3,6.724,6.724,0,0,1,.062-.841c.255-1.754,1.485-3.361,1.374-5.1C149.136,679.367,148.093,680.844,147.861,682.443Z" transform="translate(-134.446 -653.876)"/>
  </g>
  <path id="Path_845" data-name="Path 845" class="cls-4" d="M589.222,261.284v30.725a3.255,3.255,0,0,1-3.5,2.94h-73.98a3.255,3.255,0,0,1-3.5-2.94V261.284a3.521,3.521,0,0,1,3.5-3.28h73.98A3.521,3.521,0,0,1,589.222,261.284Z" transform="translate(-357.963 -196.869)"/>
  <path id="Path_846" data-name="Path 846" class="cls-5" d="M589.222,261.5v8.572H508.251V261.5a3.494,3.494,0,0,1,3.5-3.5h73.98A3.494,3.494,0,0,1,589.222,261.5Z" transform="translate(-357.963 -196.868)"/>
  <circle id="Ellipse_99" data-name="Ellipse 99" class="cls-4" cx="2.337" cy="2.337" r="2.337" transform="translate(152.392 64.831)"/>
  <circle id="Ellipse_100" data-name="Ellipse 100" class="cls-4" cx="2.337" cy="2.337" r="2.337" transform="translate(159.192 64.831)"/>
  <circle id="Ellipse_101" data-name="Ellipse 101" class="cls-4" cx="2.337" cy="2.337" r="2.337" transform="translate(165.992 64.831)"/>
  <circle id="Ellipse_102" data-name="Ellipse 102" class="cls-7" cx="9.138" cy="9.138" r="9.138" transform="translate(206.174 76.306)"/>
  <rect id="Rectangle_255" data-name="Rectangle 255" class="cls-2" width="38.535" height="1.36" transform="translate(195.818 80.655) rotate(180)"/>
  <rect id="Rectangle_256" data-name="Rectangle 256" class="cls-5" width="38.535" height="1.36" transform="translate(195.818 83.97) rotate(180)"/>
  <rect id="Rectangle_257" data-name="Rectangle 257" class="cls-5" width="38.535" height="1.36" transform="translate(195.818 87.286) rotate(180)"/>
  <rect id="Rectangle_258" data-name="Rectangle 258" class="cls-5" width="38.535" height="1.36" transform="translate(195.818 90.601) rotate(180)"/>
  <path id="Path_847" data-name="Path 847" class="cls-2" d="M662.706,514.067a5.144,5.144,0,0,0-4.492,1.206s1.144,1.033,3.83-.11Z" transform="translate(-460.996 -372.73)"/>
  <path id="Path_848" data-name="Path 848" class="cls-2" d="M671.837,514.218a5.144,5.144,0,0,1,.586,4.614s-1.389-.667-1.349-3.587Z" transform="translate(-469.832 -372.904)"/>
  <path id="Path_849" data-name="Path 849" class="cls-2" d="M667.131,501.453s-.963-2.086-5.543.437a2.47,2.47,0,0,0,2.441,1.414A2.983,2.983,0,0,0,667.131,501.453Z" transform="translate(-463.314 -363.577)"/>
  <path id="Path_850" data-name="Path 850" class="cls-2" d="M678.659,502.83s2.3-.107,2.166,5.121a2.47,2.47,0,0,1-2.379-1.516A2.983,2.983,0,0,1,678.659,502.83Z" transform="translate(-474.55 -365.079)"/>
  <path id="Path_851" data-name="Path 851" class="cls-2" d="M672.505,485.132s-1.042-3.636-5.859-1.423c0,0,.843,3.328,5.3,2.6Z" transform="translate(-466.79 -351.452)"/>
  <path id="Path_852" data-name="Path 852" class="cls-2" d="M676.4,469.011s-2.174-3.748-6.68-.706c0,0,1.274,3.467,6.228,1.962Z" transform="translate(-468.905 -340.541)"/>
  <path id="Path_853" data-name="Path 853" class="cls-2" d="M678.284,453.418s-2.6-3.483-7.063-.474c0,0,2.477,3.07,7.006,1.316Z" transform="translate(-469.933 -329.963)"/>
  <path id="Path_854" data-name="Path 854" class="cls-2" d="M681.088,437.566s-2.623-3.632-6.9-.647c0,0,3.016,3.254,6.85,1.452Z" transform="translate(-471.969 -318.986)"/>
  <path id="Path_855" data-name="Path 855" class="cls-2" d="M681.628,421.554s-2.7-4.629-6.711-1.884c0,0,2.965,4.022,6.654,2.726Z" transform="translate(-472.472 -307.346)"/>
  <path id="Path_856" data-name="Path 856" class="cls-2" d="M680.277,405.554s-2.889-4.605-6.811-1.487c0,0,3.514,4.059,6.757,2.292Z" transform="translate(-471.476 -296.479)"/>
  <path id="Path_857" data-name="Path 857" class="cls-2" d="M677.674,389.329s-3.492-4.379-6.9-2.953c0,0,3.634,4.646,6.981,4.062Z" transform="translate(-469.629 -284.872)"/>
  <path id="Path_858" data-name="Path 858" class="cls-2" d="M674.922,373.389s-4.016-5.342-6.654-3.829c0,0,2.941,4.131,6.9,4.8Z" transform="translate(-467.905 -273.329)"/>
  <path id="Path_859" data-name="Path 859" class="cls-2" d="M670.519,357.989s-3.53-4.383-6.38-3.545c0,0,2.969,4.5,6.8,4.868Z" transform="translate(-465.067 -263.056)"/>
  <path id="Path_860" data-name="Path 860" class="cls-2" d="M667.254,342.536s-3.943-4.235-5.819-3.662c0,0,2.742,4.6,5.943,4.553Z" transform="translate(-463.209 -252.395)"/>
  <path id="Path_861" data-name="Path 861" class="cls-2" d="M663.926,326.13s-3.306-4.964-5.307-4.731c0,0,1.913,4.356,5.275,5.206Z" transform="translate(-461.276 -240.42)"/>
  <path id="Path_862" data-name="Path 862" class="cls-2" d="M660.693,308.887s-2.959-3.835-4.689-3.942c0,0,2.2,5,4.742,5.131Z" transform="translate(-459.478 -229.12)"/>
  <path id="Path_863" data-name="Path 863" class="cls-2" d="M662.593,287.914l-2.586-7.746s-.613,6.8,2.886,9.171Z" transform="translate(-462.201 -212.097)"/>
  <path id="Path_864" data-name="Path 864" class="cls-2" d="M663.922,263.115s-.09-6.329.274-6.819c0,0-2.563,5.085-.44,9.6Z" transform="translate(-464.226 -195.695)"/>
  <path id="Path_865" data-name="Path 865" class="cls-2" d="M684.76,488.911s3.341-1.772,5.091,3.232c0,0-2.981,1.7-5.551-2.015Z" transform="translate(-478.919 -355.307)"/>
  <path id="Path_866" data-name="Path 866" class="cls-2" d="M690.465,472.089s4.054-1.53,5.622,3.675c0,0-3.179,1.881-6.066-2.416Z" transform="translate(-482.85 -343.815)"/>
  <path id="Path_867" data-name="Path 867" class="cls-2" d="M694.186,455.408s3.039-3.1,7.063.474c0,0-2.866,2.712-7.119.367Z" transform="translate(-485.673 -331.64)"/>
  <path id="Path_868" data-name="Path 868" class="cls-2" d="M696.433,438.6s3.085-3.248,6.929.281c0,0-3.424,2.821-6.983.524Z" transform="translate(-487.219 -320.011)"/>
  <path id="Path_869" data-name="Path 869" class="cls-2" d="M696.335,421.235s2.335-4.826,6.544-2.4c0,0-2.643,4.24-6.422,3.235Z" transform="translate(-487.188 -306.901)"/>
  <path id="Path_870" data-name="Path 870" class="cls-2" d="M694.431,404.36s2.328-4.912,6.589-2.276c0,0-3.013,4.443-6.441,3.069Z" transform="translate(-485.88 -295.327)"/>
  <path id="Path_871" data-name="Path 871" class="cls-2" d="M691.454,383.853s1.16-5.479,4.842-5.73c0,0-1.167,5.782-4.422,6.759Z" transform="translate(-483.835 -279.398)"/>
  <path id="Path_872" data-name="Path 872" class="cls-2" d="M689.23,367.747s.753-6.641,3.795-6.673c0,0-.442,5.052-3.517,7.638Z" transform="translate(-482.307 -267.685)"/>
  <path id="Path_873" data-name="Path 873" class="cls-2" d="M683.564,352.232s1.275-5.481,4.206-5.965c0,0-.719,5.344-4.013,7.341Z" transform="translate(-478.414 -257.511)"/>
  <path id="Path_874" data-name="Path 874" class="cls-2" d="M678.927,336.475s.418-5.771,2.239-6.5c0,0,.743,5.3-1.778,7.273Z" transform="translate(-475.228 -246.316)"/>
  <path id="Path_875" data-name="Path 875" class="cls-2" d="M675.161,321.712s.647-5.929,2.53-6.644c0,0,.309,4.747-2.282,7.051Z" transform="translate(-472.64 -236.076)"/>
  <path id="Path_876" data-name="Path 876" class="cls-2" d="M670.072,306.088s.336-4.832,1.716-5.881c0,0,.941,5.384-1.1,6.9Z" transform="translate(-469.144 -225.865)"/>
  <path id="Path_877" data-name="Path 877" class="cls-2" d="M668.558,286.71l1.809-7.964s1.281,6.71-1.967,9.411Z" transform="translate(-467.995 -211.12)"/>
  <path id="Path_878" data-name="Path 878" class="cls-2" d="M666.706,265.842s3.621-5.191,3.594-5.8c0,0-.727,5.647-5.016,8.2Z" transform="translate(-465.854 -198.268)"/>
  <path id="Path_879" data-name="Path 879" class="cls-2" d="M668.421,255.812s3.59-7.478,5.022-8.007a9.763,9.763,0,0,0-5.264,7.77Z" transform="translate(-467.844 -189.861)"/>
  <path id="Path_880" data-name="Path 880" class="cls-3" d="M667.32,287.355l.214-.05c-2.026-8.633-2.311-14.076-.8-15.327l-.14-.169C664.993,273.134,665.245,278.51,667.32,287.355Z" transform="translate(-466.04 -206.354)"/>
  <path id="Path_881" data-name="Path 881" class="cls-3" d="M676.686,340.361l.318-.089c-.223-.794-.467-1.6-.726-2.4-2.255-6.93-4.138-13.363-5.293-18.282l-.261-.154c1.156,4.928,2.982,11.6,5.24,18.538C676.222,338.769,676.465,339.571,676.686,340.361Z" transform="translate(-469.592 -239.079)"/>
  <path id="Path_882" data-name="Path 882" class="cls-3" d="M658.194,430.835a42.842,42.842,0,0,0,8.041-12.382,47.736,47.736,0,0,0,3.825-14.547A55.746,55.746,0,0,0,668,383.986l-.265.271a50.58,50.58,0,0,1-1.9,34,42.4,42.4,0,0,1-7.953,12.262Z" transform="translate(-460.772 -283.426)"/>
  <path id="Path_883" data-name="Path 883" class="cls-15" d="M938.232,626.471l-8.659-12.554s-.162-3.108-.728-3.835-.121-2.341-.121-2.341.607-.888.081-.969-.081-2.059-.081-2.059l-.04-3.149s.486-3.028.081-3.754a1.19,1.19,0,0,1,.04-1.292s.486-1.736,0-2.18-.364-3.149-.243-5.288a8.027,8.027,0,0,0-.85-3.673c0-.323-3.2-3.472-3.2-3.754s-2.023-1.453-3.237-1.776-1.821-.565-1.78-.727-1.9-.807-1.9-.807a3.825,3.825,0,0,1-2.347-.969c-.638-.836-2.627-1.093-2.683-1.1-.012-.057-.026-.113-.037-.169s-.025-.122-.037-.182c.153-.256.295-.52.423-.791q.057-.122.111-.246a3.44,3.44,0,0,0,1.991-.617,2.711,2.711,0,0,0,.97-1.936,4.247,4.247,0,0,0-.473-2.151,3.638,3.638,0,0,1-.7-2.268c.078-.341.282-.639.386-.973a2.562,2.562,0,0,0-.29-1.912c-.307-.587-.733-1.1-1.074-1.669a6.547,6.547,0,0,1-.854-2.361,3.667,3.667,0,0,0-.316-1.285,2.385,2.385,0,0,0-.71-.717,7.091,7.091,0,0,0-4.349-1.319,21.143,21.143,0,0,1-3.293.2,12.058,12.058,0,0,1-1.923-.5,4.969,4.969,0,0,0-4.1.21c-1.2.791-1.652,2.3-2.453,3.5a28.266,28.266,0,0,0-2.285,3.063c.006-.022.012-.044.018-.065a3.676,3.676,0,0,0-.3.816,5.8,5.8,0,0,0,.179,2.677,1.862,1.862,0,0,0,.654,1.2,3.808,3.808,0,0,0,1.415.278c-.018.077-.038.153-.054.231a9.243,9.243,0,0,0,6.415,10.782c0,.082,0,.165,0,.245a6.354,6.354,0,0,1-.042.694h0s-4.068-.836-5.161-.271-3.237,1.009-3.561,1.332-1.133.081-1.861,1.978-.809,3.835-1.74,4.723-1.416,1.494-1.457,2.14.121.807-.243,1.009-.89,1.05-.728,1.372a1.15,1.15,0,0,1-.445,1.211,1.349,1.349,0,0,0-.567,1.211s-.243.888-.809,1.09-.931,1.534-.931,1.534L882.5,600.4l-3.635-4.022a1.535,1.535,0,0,0-2.164-.111l-1.785,1.606a3.524,3.524,0,0,0-1.787,1.063,4.647,4.647,0,0,0-.926,1.378l-.978.88a2.482,2.482,0,0,0-.251,2.743l2.33,2.577.014.021a4.1,4.1,0,0,0-2.253.918c-3.479,3.068-3.52,5.894-2.994,7.185S873,620.9,873,620.9a19.7,19.7,0,0,0,6.261,5.1l-.005.005-.028.028c-.073.078-.146.162-.217.253l-.059.076c-.019.026-.038.052-.056.079s-.044.064-.066.1l-.051.08c-.024.037-.047.076-.07.116l-.045.077c-.028.051-.055.1-.083.157l-.027.052q-.052.106-.1.221c-.011.027-.022.055-.033.082-.021.052-.042.106-.063.161-.013.034-.025.069-.037.1q-.027.078-.052.158c-.012.038-.023.075-.035.114-.017.058-.033.117-.048.177-.01.036-.019.072-.029.109q-.034.141-.063.29c-.007.037-.013.077-.02.115-.012.068-.024.137-.035.208-.007.048-.014.1-.02.146-.009.066-.017.133-.025.2-.006.051-.011.1-.016.154-.007.075-.013.152-.018.23,0,.047-.007.094-.01.142-.007.127-.012.256-.014.39-.081,4.723.2,5.41.2,5.41a2.621,2.621,0,0,0,2.147,1.612,2.8,2.8,0,0,0,.692-.038c2.1-.363,7.041-1.211,8.78-.888a15.014,15.014,0,0,0,4.362-.354l.364-.07.252.8.8-.219.679.392.429.247c.8,2.708,4.04,1.784,4.04,1.784l.77.444,7.809.2a15.734,15.734,0,0,0,2.764,1.327,2.463,2.463,0,0,0,.392.086,17.925,17.925,0,0,0,2.177.041c.6-.016,1.061-.041,1.061-.041s-.08-2.12-.193-4.494a63.81,63.81,0,0,0,7.233-.592c4.17-.732,5.91-4.525,6.551-6.551a19.1,19.1,0,0,1,.409,2.515,18.17,18.17,0,0,0,.648,2.18,7.374,7.374,0,0,0,.89,1.615c3.075-1.05,1.214-2.624.567-3.31s.445-1.251.445-1.251.85-.565.769-1.09-.121-1.09,2.63-1.05S938.232,626.471,938.232,626.471ZM895.505,600.7a18.77,18.77,0,0,0,.766,3.372,4.45,4.45,0,0,1,.091,1.33c-1.63-.13-3.328-.2-3.328-.2a.39.39,0,0,1,.087.207l-.256-.058c-.121-.028-.246-.059-.373-.091l3-4.568Zm-5.951,9.467,2.822.447.237.037a9.378,9.378,0,0,0-.146,1.333c.008.042.064.093.154.151a3.689,3.689,0,0,0-.055.668,7.786,7.786,0,0,0,2.878,1.106q-.031.122-.062.232h0c-1.337-.7-3.442-1.032-3.684-1.554s-7.405-3.025-7.405-3.025-.262-.139-.713-.356l1.887.357.518-.053a28.23,28.23,0,0,0,3.569.658Z" transform="translate(-605.01 -402.301)"/>
  <path id="Path_884" data-name="Path 884" class="cls-8" d="M951.464,751.31s-1.123,6.778-6.818,7.78-24.7.8-24.7.8-10.868-1.564-14.8-10.748-6.457-12.833-3.088-12.994,21.536,6.136,22.579,6.216S952.469,728.41,951.464,751.31Z" transform="translate(-627.452 -525.383)"/>
  <path id="Path_885" data-name="Path 885" class="cls-16" d="M951.464,751.31s-1.123,6.778-6.818,7.78-24.7.8-24.7.8-10.868-1.564-14.8-10.748-6.457-12.833-3.088-12.994,21.536,6.136,22.579,6.216S952.469,728.41,951.464,751.31Z" transform="translate(-627.452 -525.383)"/>
  <path id="Path_886" data-name="Path 886" class="cls-12" d="M900.03,786.151a2.6,2.6,0,0,0,2.128,1.6,2.764,2.764,0,0,0,.686-.037c2.085-.361,6.978-1.2,8.7-.882a14.849,14.849,0,0,0,4.323-.351c.908-.171,1.572-.331,1.572-.331s-1.6-5.333-1.8-5.495-7.219-4.371-7.219-4.371l-5.557-.4h-.017a2.927,2.927,0,0,0-1.884,1.107,5.923,5.923,0,0,0-1.124,3.785C899.756,785.469,900.03,786.151,900.03,786.151Z" transform="translate(-626.996 -552.685)"/>
  <path id="Path_887" data-name="Path 887" class="cls-16" d="M900.03,786.151a2.6,2.6,0,0,0,2.128,1.6,22.933,22.933,0,0,1-1.51-2.2l.03-3.89a6.852,6.852,0,0,1,2.182-5.774h-.017s-2.927.2-3.008,4.892S900.03,786.151,900.03,786.151Z" transform="translate(-626.996 -552.685)"/>
  <path id="Path_888" data-name="Path 888" class="cls-11" d="M970.422,754.8l5.173-4.05,8.142-8.021s-.88-.042-2.207-.1c-.33.211-1.255.872-1.289,1.676-.04.981-2.2.069-3.323.629s-6.617,7.593-7.58,7.547-1.724-.488-2.126.194c-.008.016-.019.03-.029.044Z" transform="translate(-673.279 -529.837)"/>
  <path id="Path_889" data-name="Path 889" class="cls-11" d="M903.46,776.992q.276.133.561.256c3.931,1.684,8.783,5.213,9.144,5.856a38.053,38.053,0,0,0,5.2,3.378c.908-.171,1.572-.331,1.572-.331s-1.6-5.333-1.8-5.495-7.219-4.371-7.219-4.371l-5.557-.4h-.017A2.926,2.926,0,0,0,903.46,776.992Z" transform="translate(-629.496 -552.686)"/>
  <path id="Path_890" data-name="Path 890" class="cls-8" d="M868.065,724.9c.521,1.284,4.892,6.216,4.892,6.216a19.18,19.18,0,0,0,6.7,5.294c3.931,1.684,8.783,5.213,9.144,5.856.232.413,3.364,2.3,5.572,3.595.171.1.336.2.495.289.432.251.809.47,1.095.635.361.209.579.333.579.333s1.343-1.078,2.681-2.163c1.32-1.071,2.634-2.148,2.654-2.208.04-.12.561-1.485.44-1.564-.063-.042-.338-.6-.845-1.24a5.677,5.677,0,0,0-2.043-1.688,5.807,5.807,0,0,1-2.647-2.76s-.176-.128-.442-.3a5.362,5.362,0,0,0-1.8-.8c-.883-.111-2.527-1.915-2.527-1.915a4.938,4.938,0,0,1-1.564-1.643c-.421-.88-6.641-5.152-7.217-5.546l15.078,9.684,3.608,2.318,5.173-4.05,8.141-8.021s-1.095-.053-2.686-.122c-3.957-.171-10.985-.439-11.871-.239a6.769,6.769,0,0,1-2.207.144,7.74,7.74,0,0,1-3.327-.609c-1.325-.7-3.411-1.025-3.652-1.544s-7.339-3.005-7.339-3.005-9.665-5.133-13.114-2.085S867.543,723.615,868.065,724.9Z" transform="translate(-605.01 -512.085)"/>
  <path id="Path_891" data-name="Path 891" class="cls-17" d="M968.176,622.508l1.243,4.13,1.6,9.3,5.9.4,1.707-2.831,1.7-2.824s1.061-3.76,1.824-7.4c.675-3.218,1.115-6.34.381-6.68-.651-.3-1.079-1.385-1.357-2.549-.035-.144-.067-.291-.1-.437a22.732,22.732,0,0,1-.391-2.99s-12.352-.641-10.628,4.452a8.1,8.1,0,0,1,.465,2.708,6.286,6.286,0,0,1-.042.689A5.774,5.774,0,0,1,968.176,622.508Z" transform="translate(-673.96 -439.132)"/>
  <path id="Path_892" data-name="Path 892" class="cls-7" d="M959.972,639.116l.442,7.018,1,5.976,1.124,2.767,1,15.14s9.669,1.118,12.022-.021a1.027,1.027,0,0,0,.426-.332c2.841-4.289,1.909-16.713,1.909-16.713l1.083-8.021-.722-4.163-1.745-.185-1.343-.143s-.3.373-.741.952c-1.189,1.57-3.376,4.657-3.229,5.946.2,1.765-.241,3.57-.923,3.85s-1.243.763-1.363.282a2.172,2.172,0,0,1-.12-1.284,10.527,10.527,0,0,0-.522-2.767,11.6,11.6,0,0,1-1-3.489,4.1,4.1,0,0,0-.442-2.526c-.32-.28-.761-.562-.4-1.844s-1.582-3.781-1.582-3.781Z" transform="translate(-668.323 -456.422)"/>
  <path id="Path_893" data-name="Path 893" class="cls-11" d="M1000.752,646.763l.4,11.991,2.316,1.284a1.029,1.029,0,0,0,.426-.332c2.841-4.289,1.909-16.713,1.909-16.713l1.083-8.021-.722-4.163-1.745-.185c.675-3.218,1.115-6.341.381-6.68-.651-.3-1.079-1.385-1.357-2.549h0l-1.25,8.484s.1.764.142,1.553a4.444,4.444,0,0,1-.1,1.494,4.978,4.978,0,0,0-.081,2.006,16.332,16.332,0,0,0-1.261,5.912C1000.661,643.876,1000.752,646.763,1000.752,646.763Z" transform="translate(-696.33 -446.542)"/>
  <path id="Path_894" data-name="Path 894" class="cls-12" d="M1003.968,620.784s2.02.251,2.662,1.094a3.785,3.785,0,0,0,2.326.963s1.925.642,1.885.8.562.4,1.764.722,3.208,1.484,3.208,1.764,3.168,3.409,3.168,3.73a7.991,7.991,0,0,1,.842,3.649c-.12,2.126-.241,4.813.241,5.254s0,2.166,0,2.166a1.185,1.185,0,0,0-.04,1.283c.4.722-.08,3.73-.08,3.73l.04,3.128s-.441,1.965.08,2.045-.08.962-.08.962-.441,1.6.12,2.326.722,3.81.722,3.81l8.582,12.472s.12,2.286-2.607,2.246-2.687.521-2.607,1.043-.762,1.083-.762,1.083-1.083.561-.441,1.243,2.486,2.246-.561,3.289a7.322,7.322,0,0,1-.882-1.6,18.084,18.084,0,0,1-.642-2.166s-.281-3.048-.842-3.449-.481-2.326-.481-2.326.8-1.564-.321-2.206-17.405-9.665-17.405-9.665l-.4-11.991s-.281-8.863,1.4-11.831a4.99,4.99,0,0,1,.08-2.005,10.4,10.4,0,0,0-.04-3.048Z" transform="translate(-696.814 -446.121)"/>
  <path id="Path_895" data-name="Path 895" class="cls-11" d="M943.77,635.141s-4.032-.831-5.115-.269-3.208,1-3.529,1.323-1.123.08-1.845,1.965-.8,3.81-1.724,4.692-1.4,1.484-1.444,2.125.12.8-.241,1-.882,1.043-.722,1.364,8.342,7.379,8.342,7.379a19.245,19.245,0,0,0,.762,3.369c.361.682-.4,10.066-1.2,10.708s5.414.582,5.414.582.281-6.157.521-6.478-.16-6.9-.16-6.9-.04-5.615.481-7.1.463-6.417.463-6.417.461-2.96,1.021-3.649S943.77,635.141,943.77,635.141Z" transform="translate(-647.127 -455.667)"/>
  <path id="Path_896" data-name="Path 896" class="cls-12" d="M943.385,634.756s-4.032-.831-5.115-.269-3.208,1-3.529,1.323-1.123.08-1.845,1.965-.8,3.81-1.724,4.692-1.4,1.484-1.444,2.125.12.8-.241,1-.882,1.043-.722,1.364,8.342,7.379,8.342,7.379a19.25,19.25,0,0,0,.762,3.369c.361.682-.4,10.066-1.2,10.708s5.414.583,5.414.583.281-6.157.521-6.478-.161-6.9-.161-6.9-.04-5.615.481-7.1.463-6.417.463-6.417.461-2.96,1.021-3.65S943.385,634.756,943.385,634.756Z" transform="translate(-646.862 -455.402)"/>
  <path id="Path_897" data-name="Path 897" class="cls-11" d="M973.835,615.089a8.107,8.107,0,0,1,.466,2.708,9.2,9.2,0,0,0,10.554-4.17,22.714,22.714,0,0,1-.391-2.99S972.11,610,973.835,615.089Z" transform="translate(-677.734 -439.132)"/>
  <path id="Path_898" data-name="Path 898" class="cls-17" d="M954.72,584.5a9.178,9.178,0,1,0,.2-1.909A9.179,9.179,0,0,0,954.72,584.5Z" transform="translate(-664.715 -414.885)"/>
  <path id="Path_899" data-name="Path 899" class="cls-12" d="M918.182,672.592l-2.206.682a1.144,1.144,0,0,1-.441,1.2,1.342,1.342,0,0,0-.561,1.2s-.241.882-.8,1.083-.922,1.524-.922,1.524l-1.845,2.126s-.682.561-.562.842-.722.361-.722.361l.441,7.139,3.81.722,2.366-.241,1.925-.722,1.684-1,.762-1.965,3.369-5.133Z" transform="translate(-634.073 -481.717)"/>
  <path id="Path_900" data-name="Path 900" class="cls-17" d="M890.33,693.611s-4.893-7.058-8.542-3.248,1.484,9.986,2.687,9.785,6.938-.521,6.938-.521Z" transform="translate(-613.72 -493.151)"/>
  <rect id="Rectangle_259" data-name="Rectangle 259" class="cls-12" width="25.609" height="19.884" rx="1.544" transform="translate(265.938 186.07) rotate(27.036)"/>
  <rect id="Rectangle_260" data-name="Rectangle 260" class="cls-2" width="21.525" height="16.22" transform="translate(266.958 188.605) rotate(27.036)"/>
  <circle id="Ellipse_103" data-name="Ellipse 103" class="cls-18" cx="0.353" cy="0.353" r="0.353" transform="translate(262.172 195.094)"/>
  <circle id="Ellipse_104" data-name="Ellipse 104" class="cls-18" cx="0.582" cy="0.582" r="0.582" transform="translate(282.696 205.498)"/>
  <path id="Path_901" data-name="Path 901" class="cls-17" d="M901.791,702.5c-.04,5.294,10.909,6.416,10.909,6.416l2.8.444,1.252.2.522-5.173s-.574-.085-1.291-.253c-1.06-.247-2.433-.674-2.72-1.272C912.779,701.863,901.83,697.21,901.791,702.5Z" transform="translate(-628.349 -500.56)"/>
  <path id="Path_902" data-name="Path 902" class="cls-11" d="M955.358,582.6a1.088,1.088,0,0,1,.671.3c.31.328.327.911.73,1.113a.814.814,0,0,0,.479.055c1.066-.15,1.683-1.355,2.707-1.686a2.721,2.721,0,0,1,1.794.154,1.336,1.336,0,0,1,.594.381c.343.444.1,1.1.261,1.633.22.745,1.109,1.041,1.879,1.138a3.284,3.284,0,0,1,2.151.733,1.95,1.95,0,0,1,.383,1.552,1.218,1.218,0,0,0,0,.574c.212.6,1.252.513,1.524.037.2-.345.138-.632.606-.728a1.993,1.993,0,0,1,.982.17,7.209,7.209,0,0,0,2.54.39,9.185,9.185,0,1,0-17.3-5.817Z" transform="translate(-665.153 -414.887)"/>
  <path id="Path_903" data-name="Path 903" class="cls-12" d="M962.056,577.578a1.235,1.235,0,0,1,0-.574,1.95,1.95,0,0,0-.382-1.552,3.283,3.283,0,0,0-2.152-.734c-.77-.1-1.659-.393-1.879-1.137-.159-.537.081-1.19-.261-1.633a1.324,1.324,0,0,0-.594-.381,2.723,2.723,0,0,0-1.794-.155c-1.024.331-1.641,1.536-2.707,1.686a.815.815,0,0,1-.479-.055c-.4-.2-.42-.784-.73-1.112-.487-.516-1.411-.182-2.007-.566a1.851,1.851,0,0,1-.648-1.188,5.777,5.777,0,0,1-.177-2.66c.349-1.492,1.681-2.515,2.533-3.788.794-1.187,1.239-2.69,2.431-3.476a4.913,4.913,0,0,1,4.068-.209,11.914,11.914,0,0,0,1.906.5,20.917,20.917,0,0,0,3.264-.2,7.016,7.016,0,0,1,4.311,1.31,2.366,2.366,0,0,1,.7.712,3.648,3.648,0,0,1,.313,1.277,6.515,6.515,0,0,0,.847,2.346c.338.564.76,1.076,1.064,1.659a2.551,2.551,0,0,1,.288,1.9c-.1.331-.306.628-.383.967a3.621,3.621,0,0,0,.689,2.254,4.23,4.23,0,0,1,.469,2.137,2.7,2.7,0,0,1-.961,1.923,3.454,3.454,0,0,1-2.033.616,7.212,7.212,0,0,1-2.59-.389,2.005,2.005,0,0,0-.982-.169c-.468.1-.408.383-.607.728C963.308,578.09,962.268,578.179,962.056,577.578Z" transform="translate(-660.207 -404.159)"/>
  <path id="Path_904" data-name="Path 904" class="cls-11" d="M968.839,755.522l5.173-4.05,8.141-8.021s-1.095-.053-2.687-.122a1.758,1.758,0,0,0-.568,1.1c-.04.981-2.2.069-3.323.629s-6.617,7.593-7.58,7.547-1.724-.488-2.126.194c-.008.016-.019.03-.029.045a1.142,1.142,0,0,1-.611.363Z" transform="translate(-671.937 -530.318)"/>
  <path id="Path_905" data-name="Path 905" class="cls-8" d="M943.44,749.163l2.6,8.3.408,1.3,1.237-.339,2.73-.75,12.155-3.339a10.546,10.546,0,0,0,4.375-1.167,13.253,13.253,0,0,1,7.553-1.647c1.607.151,3.394-.543,4.876-3.282,0,0,3.369-9.945-5.134-12.793s-8.908,1.514-8.908,1.514-.043.024-.116.071c-.33.211-1.255.872-1.289,1.676-.04.98-2.2.068-3.323.629s-6.617,7.593-7.58,7.547-1.724-.488-2.126.194c-.008.016-.019.03-.029.045-.3.409-1.19.5-1.781.521-.322.01-.556,0-.556,0l-.076.023-.617.184Z" transform="translate(-656.965 -524.239)"/>
  <path id="Path_906" data-name="Path 906" class="cls-11" d="M945.589,718.408l1.252.2.522-5.173s-.574-.085-1.291-.253A26.546,26.546,0,0,1,945.589,718.408Z" transform="translate(-658.441 -509.603)"/>
  <path id="Path_907" data-name="Path 907" class="cls-11" d="M978.787,652.366s3.73-1.083,2.807,9.5a29.6,29.6,0,0,1-7.82,17.285s-7.941,3.489-11.51,2.928-6.176-.682-6.176-.682a9.067,9.067,0,0,0-3.609-.963c-2.005-.08-6.216-1.323-6.3-1.724s1.043-6.3.561-6.737c0,0,5.615.23,6.176.636s1.364.115,1.965,0a6.838,6.838,0,0,1,6.1-.316,3.683,3.683,0,0,0,1.724-.2,1.722,1.722,0,0,1,1.254-.08,3.531,3.531,0,0,0,.871-.441c.12-.161,1.083,0,1.083,0a.426.426,0,0,0,.6-.281,2.625,2.625,0,0,1,.561-.882s1.083-6.1,3.128-8.382a1.306,1.306,0,0,0,.441-1.163C970.485,660.227,973.974,651.083,978.787,652.366Z" transform="translate(-658.846 -467.736)"/>
  <path id="Path_908" data-name="Path 908" class="cls-12" d="M978.467,649.766s3.73-1.083,2.807,9.5a29.6,29.6,0,0,1-7.82,17.285s-7.941,3.489-11.51,2.928-6.176-.682-6.176-.682a9.067,9.067,0,0,0-3.609-.963c-2.005-.08-6.216-1.323-6.3-1.724s1.043-6.3.561-6.737c0,0,5.615.23,6.176.636s1.364.115,1.965,0a6.838,6.838,0,0,1,6.1-.315,3.684,3.684,0,0,0,1.724-.2,1.721,1.721,0,0,1,1.254-.08,3.528,3.528,0,0,0,.871-.441c.12-.16,1.083,0,1.083,0a.427.427,0,0,0,.6-.281,2.622,2.622,0,0,1,.561-.882s1.083-6.1,3.128-8.382a1.306,1.306,0,0,0,.441-1.163C970.165,657.627,973.657,648.483,978.467,649.766Z" transform="translate(-658.626 -465.949)"/>
  <path id="Path_909" data-name="Path 909" class="cls-11" d="M957.5,776.781l5.3,6.409a.161.161,0,0,0,.034-.037c.04-.12.561-1.485.44-1.564a7.454,7.454,0,0,0-2.887-2.928,5.483,5.483,0,0,1-2.267-2.063Z" transform="translate(-666.627 -553.175)"/>
  <path id="Path_910" data-name="Path 910" class="cls-11" d="M957.488,797.078c.361.209.579.333.579.333s1.343-1.078,2.681-2.163c1.32-1.071,2.634-2.148,2.654-2.208.04-.12.561-1.485.44-1.564-.063-.042-.338-.6-.845-1.24-3.591-1.006-1.3,1.487-1,1.6a3.658,3.658,0,0,0-4.612,3.759A5.588,5.588,0,0,0,957.488,797.078Z" transform="translate(-666.539 -562.382)"/>
  <path id="Path_911" data-name="Path 911" class="cls-12" d="M962.714,799.1l.763.442,7.74.2a15.588,15.588,0,0,0,2.74,1.319,2.442,2.442,0,0,0,.389.085,17.743,17.743,0,0,0,2.157.041c.593-.016,1.052-.041,1.052-.041s-.366-9.761-.642-10.788c-.132-.491-.781-.383-1.421-.137a9.389,9.389,0,0,0-1.386.7,24.8,24.8,0,0,0-3.81.6c-.521.283-2-.162-2.927,0s-2.566-1.085-2.566-1.085c-4.492-1.483-1.966,1.284-1.645,1.4a3.658,3.658,0,0,0-4.612,3.758C958.3,800.357,962.714,799.1,962.714,799.1Z" transform="translate(-667.336 -562.382)"/>
  <path id="Path_912" data-name="Path 912" class="cls-19" d="M1007.632,795.35c.084,2.02,1.659,4.529,2.6,5.855.593-.016,1.052-.041,1.052-.041s-.366-9.761-.643-10.788c-.132-.491-.781-.383-1.421-.137A11.318,11.318,0,0,0,1007.632,795.35Z" transform="translate(-701.067 -562.405)"/>
  <path id="Path_913" data-name="Path 913" class="cls-11" d="M1007.632,795.35c.084,2.02,1.659,4.529,2.6,5.855.593-.016,1.052-.041,1.052-.041s-.366-9.761-.643-10.788c-.132-.491-.781-.383-1.421-.137A11.318,11.318,0,0,0,1007.632,795.35Z" transform="translate(-701.067 -562.405)"/>
  <path id="Path_914" data-name="Path 914" class="cls-16" d="M1003.132,795.618c.533,1.95.527,4.138,1.376,5.461a2.432,2.432,0,0,0,.389.085,17.741,17.741,0,0,0,2.157.041c.593-.016,1.052-.041,1.052-.041s-.366-9.761-.642-10.788c-.132-.491-.781-.383-1.421-.137a9.407,9.407,0,0,0-1.386.7S1002.45,793.121,1003.132,795.618Z" transform="translate(-697.887 -562.405)"/>
  <path id="Path_915" data-name="Path 915" class="cls-11" d="M918.089,744.653a16.019,16.019,0,0,1,7.1,5.682Z" transform="translate(-639.547 -531.227)"/>
  <g id="Group_20" data-name="Group 20" class="cls-20" transform="translate(287.939 162.548)">
    <path id="Path_916" data-name="Path 916" d="M1017.576,590.877c-.007.028-.015.057-.023.085a2.86,2.86,0,0,1-.134.335A2.432,2.432,0,0,1,1017.576,590.877Z" transform="translate(-995.732 -588.121)"/>
    <path id="Path_917" data-name="Path 917" d="M948.21,582.881a3.654,3.654,0,0,1,.3-.81c-.021.069-.042.138-.058.209a5.777,5.777,0,0,0,.177,2.66,1.851,1.851,0,0,0,.648,1.188c.6.383,1.521.05,2.007.566.31.328.327.91.73,1.112a.815.815,0,0,0,.479.055c1.065-.15,1.683-1.355,2.707-1.686a2.724,2.724,0,0,1,1.794.155,1.322,1.322,0,0,1,.594.381c.343.443.1,1.1.261,1.633.22.744,1.109,1.04,1.879,1.137a3.283,3.283,0,0,1,2.152.734,1.95,1.95,0,0,1,.382,1.552,1.235,1.235,0,0,0,0,.574c.213.6,1.252.512,1.525.037.2-.346.138-.632.607-.728a2.006,2.006,0,0,1,.982.169,7.209,7.209,0,0,0,2.59.389,3.453,3.453,0,0,0,2.033-.616,2.4,2.4,0,0,0,.624-.758,2.565,2.565,0,0,1-.865,1.36,3.453,3.453,0,0,1-2.033.616,7.215,7.215,0,0,1-2.59-.389,2,2,0,0,0-.982-.169c-.468.1-.408.383-.606.728-.273.475-1.312.564-1.525-.037a1.235,1.235,0,0,1,0-.574,1.951,1.951,0,0,0-.382-1.552,3.283,3.283,0,0,0-2.152-.734c-.77-.1-1.659-.392-1.879-1.137-.159-.537.081-1.19-.261-1.633a1.323,1.323,0,0,0-.594-.381,2.724,2.724,0,0,0-1.795-.155c-1.024.331-1.641,1.536-2.707,1.686a.815.815,0,0,1-.479-.056c-.4-.2-.421-.784-.73-1.112-.487-.516-1.411-.182-2.007-.566a1.85,1.85,0,0,1-.648-1.188A5.778,5.778,0,0,1,948.21,582.881Z" transform="translate(-948.118 -582.071)"/>
  </g>
  <path id="Path_918" data-name="Path 918" class="cls-11" d="M1012.827,683.01c-.734.992-1.573,1.909-2.223,2.958a5.626,5.626,0,0,0-.975,3.5,9.168,9.168,0,0,0,1.4-2.509,35.8,35.8,0,0,1,2.7-4.056c.173-.258,1.281-1.745.72-1.816C1013.991,681.03,1013.077,682.672,1012.827,683.01Z" transform="translate(-702.425 -487.553)"/>
  <ellipse id="Ellipse_105" data-name="Ellipse 105" class="cls-21" cx="44.365" cy="39.675" rx="44.365" ry="39.675" transform="translate(58.615 123.259)"/>
  <path id="Path_919" data-name="Path 919" class="cls-22" d="M311.079,537.47l-31.325-9.339a47.841,47.841,0,0,1-20.817,4.733c-24.5,0-44.437-18.25-44.437-40.682S234.434,451.5,258.937,451.5s44.437,18.25,44.437,40.682A39.273,39.273,0,0,1,289.1,522.06ZM279.7,527.461l.117.035,27.746,8.272L288.068,522.1l.315-.262a38.687,38.687,0,0,0,14.365-29.659c0-22.087-19.654-40.056-43.811-40.056s-43.811,17.969-43.811,40.056,19.654,40.056,43.811,40.056a47.2,47.2,0,0,0,20.651-4.723Z" transform="translate(-156.137 -329.813)"/>
  <circle id="Ellipse_106" data-name="Ellipse 106" class="cls-2" cx="3.442" cy="3.442" r="3.442" transform="translate(89.493 161.274)"/>
  <circle id="Ellipse_107" data-name="Ellipse 107" class="cls-2" cx="3.442" cy="3.442" r="3.442" transform="translate(99.507 161.274)"/>
  <circle id="Ellipse_108" data-name="Ellipse 108" class="cls-2" cx="3.442" cy="3.442" r="3.442" transform="translate(109.521 161.274)"/>
  <path id="Path_920" data-name="Path 920" class="cls-23" d="M290.112,261.158c2.156,1.444,5.425.757,5.425.757s4.938-2.339,6.4-2.339,5.007-1.444,5.007-1.444l-.12-.974-.362-2.934c2.247,1.752,4.745,1.147,5.976,1.019,1.321-.138,8.379-4.333,9.058-4.608a1.8,1.8,0,0,0,.619-.625h0a15.9,15.9,0,0,0,1.195-2.183h0c.443-.389.765-.7.742-.769a4.862,4.862,0,0,1,.432-1.155,5.658,5.658,0,0,0,2.141-.771,1.948,1.948,0,0,0,.3-.3,1.9,1.9,0,0,0,.4-1.213s6.885-6.947,5.981-9.836,2.225-2.958,2.225-2.958,4.8-2.063,5.466-3.3c.412-.762,4.01-2.434,6.72-3.608l.333-.144c1.053,2.3,6.39.531,7.441-.444,1.113-1.032,4.381-1.513,4.381-1.513s.139-13.481,1.182-15.2c.5-.816.615-3.478.6-6.049q0-.137,0-.274c1.461-.285,4.936-.945,6.55-1.106a6.272,6.272,0,0,0,2.907-1.359l.1.121a2.008,2.008,0,0,0,.89.146,1.377,1.377,0,0,0,.779-.146c.626-.344,2.921-1.032,3.756-1.376s-.139-2.82-.765-3.3-1.043-1.1-.7-1.376-.835-.963-1.53-1.1a22.639,22.639,0,0,1-2.782-1.1s-.765-1.582-2.017-1.582a6.464,6.464,0,0,1-2.921-1.238c-.07-.55-1.391-.619-1.391-.619s-5.007-3.852-5.842-3.37-3.13-.757-3.13-.757-2.815.315-3.477-.2v0a.792.792,0,0,0-.167-.467,4.863,4.863,0,0,0-1.583-1.634,6.2,6.2,0,0,0,.08-.994c0-.144-.006-.289-.015-.431,0-.024,0-.047-.007-.071l.1-.969a2.007,2.007,0,0,1,.243-.911c.117-.181.29-.324.421-.5a1.374,1.374,0,0,0,.086-.129l.02-.036q.028-.051.052-.1l.016-.036a1.562,1.562,0,0,0,.09-.293l0-.024q.013-.068.021-.138l0-.019a2.961,2.961,0,0,0-.157-1.181,7.945,7.945,0,0,1-.57-1.956,6.034,6.034,0,0,0-.035-1.008,2.568,2.568,0,0,0-1.685-1.542,9.382,9.382,0,0,1-2.373-1.542c-.7-.544-1.86-.271-2.744-.214a23.961,23.961,0,0,0-5.907,1.365,5.873,5.873,0,0,0-2.064,1.025,2.274,2.274,0,0,0-.755,1.274h0a1.6,1.6,0,0,0-.023.347c0,.01,0,.021,0,.031q0,.067.015.133c0,.014,0,.029.007.043a1.417,1.417,0,0,0,.039.158v0c.08.253.229.483.315.735a1.6,1.6,0,0,1,.047.17l0,.018c.012.055.021.11.028.166h0a7.111,7.111,0,0,1-.256,1.916c-.014.09-.024.182-.031.274h0v0a3.281,3.281,0,0,0,.1,1.1l0,.012c.012.044.026.087.04.131.006.019.012.038.018.056.013.037.028.073.042.109s.019.048.03.072.029.063.045.095.026.053.04.079.032.056.048.084.033.054.051.08.034.05.052.075.04.053.061.079.036.045.055.067.048.052.073.077.038.039.058.058.057.05.087.074.038.033.059.048.071.05.108.073c.018.011.034.024.052.034a1.809,1.809,0,0,0,.175.092c.4.182.9.247,1.144.6a.783.783,0,0,1,.117.274c0,.024,0,.047,0,.071v.061c0,.2.014.4.035.6a2.306,2.306,0,0,0,.018.326.94.94,0,0,0,.068.237,6.239,6.239,0,0,0,2.109,3.542c.02.106.044.23.071.37a6.95,6.95,0,0,1-2.023,1.061c-1.669.488-4.034,2.743-4.034,2.743s-1.175,8.46-1.456,9.492a45.868,45.868,0,0,0-.491,5.021,11.524,11.524,0,0,1-.7,2.476,7.2,7.2,0,0,0,.582,4.6,3.884,3.884,0,0,1-.513.834c-1.669,1.926-6.677,1.857-8.346,1.857A2.1,2.1,0,0,0,321,213.127c-3.055.868-12.953,3.693-14.127,4.206-1.391.608-2.156,6.614-2.156,6.614s-2.921,9.973-2.782,11.286-.974,4.947-.974,4.947,0,4.115-.473,4.394a.037.037,0,0,1-.014.008c-.487.206-.417,2.2-.417,2.2s.358.1.917.245a15.985,15.985,0,0,1-1.127,3.42c-.217-.274-.428-.389-.555-.069-.348.875-5.564,7.065-6.885,7.065a4.007,4.007,0,0,0-2.355,1.212C289.3,259.421,288.984,260.4,290.112,261.158Zm23.924-35.835a57.991,57.991,0,0,0,12.24-.42,14.061,14.061,0,0,1-.9,2.414,24.437,24.437,0,0,0-1.6,5.434c0,.825-1.878,7.91-2.434,8.254a2.059,2.059,0,0,0-.605.875,8.205,8.205,0,0,0-.369,1.051c.008.18.025.349.048.509-.416.381-.855.78-1.247,1.133h0a27.086,27.086,0,0,0-3.322,2.14c-.835.757-4.729,1.684-4.729,1.684a24.141,24.141,0,0,0-2.8,1.428,6.346,6.346,0,0,0-2.73,2.565c.136-1.537.359-3.389.507-4.567.076,0,.15,0,.222-.009,1.949-.121,1.658-1.981,1.555-2.442-.014-.066-.025-.1-.025-.1,1.391-1.513,4.521-12.793,4.1-14.032a2.219,2.219,0,0,1,.513-2.339,2.784,2.784,0,0,0,.043-2.132c-.348-.757,1.53-1.444,1.53-1.444Zm47.8-30.344c-.123.03-.246.059-.369.091l0-.08s.139,0,.374-.011ZM341.633,184.6c-.056.069-.113.136-.172.2-.023.025-.047.049-.071.074,0-.129,0-.257,0-.382q.12.056.243.107Zm-6.967,13.344.026.387s-.038.236-.108.641Zm31.961-3.844-1.213.209c.172-.065.341-.136.505-.214a1.157,1.157,0,0,1,.387-.105,2.11,2.11,0,0,1,.453.1.945.945,0,0,0-.131.013Z" transform="translate(-207.581 -134.76)"/>
  <path id="Path_921" data-name="Path 921" class="cls-24" d="M388.229,406.379a26.369,26.369,0,0,0-1.329,3.1,27.076,27.076,0,0,1-3,2.662l-3.345-2.389.341-1.638s3.754-3.383,4.027-3.773S388.229,406.379,388.229,406.379Z" transform="translate(-270.225 -297.38)"/>
  <path id="Path_922" data-name="Path 922" class="cls-12" d="M343.131,422.127c2.321,2.253,5.051,1.57,6.348,1.433s8.224-4.3,8.89-4.573a1.772,1.772,0,0,0,.608-.62h0a15.839,15.839,0,0,0,1.173-2.167c-.046.012-2.317.661-2.89,0,0,0-.956-1.171-1.16-1.171s-.016-2.056-.016-2.056a26.545,26.545,0,0,0-3.26,2.124c-.819.751-4.642,1.671-4.642,1.671a23.6,23.6,0,0,0-2.747,1.417C343.625,419.289,341.811,420.846,343.131,422.127Z" transform="translate(-244.204 -303.341)"/>
  <path id="Path_923" data-name="Path 923" class="cls-11" d="M343.131,433.571c2.321,2.253,5.051,1.57,6.348,1.433s8.224-4.3,8.89-4.573a1.772,1.772,0,0,0,.608-.62c-.808-.482-6.085,2.872-7.562,3.487s-5.212.273-7.328-.614c-1.057-.442.014-1.8,1.349-3.055C343.625,430.733,341.811,432.29,343.131,433.571Z" transform="translate(-244.204 -314.785)"/>
  <path id="Path_924" data-name="Path 924" class="cls-24" d="M330.01,417.37s-.972,7.3-.725,8.259-6.1-3.276-6.1-3.276,2.221-4.577,1.57-5.628S330.01,417.37,330.01,417.37Z" transform="translate(-230.81 -305.684)"/>
  <path id="Path_925" data-name="Path 925" class="cls-12" d="M325.576,343.247a24.567,24.567,0,0,0,6.143,1.024c1.913-.12,1.627-1.966,1.526-2.423-.014-.066-.025-.1-.025-.1,1.365-1.5,4.437-12.7,4.027-13.925a2.218,2.218,0,0,1,.5-2.321,2.792,2.792,0,0,0,.042-2.116c-.341-.751,1.5-1.433,1.5-1.433a56.3,56.3,0,0,0,12.014-.416,14.052,14.052,0,0,1-.887,2.4,24.454,24.454,0,0,0-1.57,5.392c0,.819-1.843,7.85-2.389,8.191a2.044,2.044,0,0,0-.594.868,8.2,8.2,0,0,0-.362,1.043c.2,4.573,5.392,2.8,6.143,2.184a1.861,1.861,0,0,0,.683-1.5s6.758-6.894,5.87-9.761,2.184-2.935,2.184-2.935,4.71-2.048,5.365-3.276c.4-.756,3.936-2.415,6.6-3.581,1.665-.73,2.988-1.266,2.988-1.266l-1.107-3.97-.872-3.129-1.642-.617-5.252-1.977-9.429-1.3-.864.112-9.16,1.185s-13.379,3.823-14.744,4.426-2.116,6.564-2.116,6.564-2.867,9.9-2.73,11.2-.956,4.909-.956,4.909,0,4.083-.464,4.36a.036.036,0,0,1-.014.008C325.507,341.267,325.576,343.247,325.576,343.247Z" transform="translate(-232.451 -231.424)"/>
  <path id="Path_926" data-name="Path 926" class="cls-11" d="M369.427,340.075a56.3,56.3,0,0,0,12.014-.416c.41-1.29,6.147-4.84,6.147-4.84C382.881,333.659,369.427,340.075,369.427,340.075Z" transform="translate(-262.582 -249.549)"/>
  <path id="Path_927" data-name="Path 927" class="cls-3" d="M389.276,405.473c.2,4.573,5.393,2.8,6.143,2.184a1.923,1.923,0,0,0,.291-.3c-1.813.668-5.027,1.184-6.072-2.93A8.213,8.213,0,0,0,389.276,405.473Z" transform="translate(-276.219 -297.473)"/>
  <path id="Path_928" data-name="Path 928" class="cls-3" d="M325.576,415.164a24.565,24.565,0,0,0,6.143,1.024c1.913-.12,1.627-1.966,1.526-2.423a35.552,35.552,0,0,1-7.247-.793.036.036,0,0,1-.014.008C325.507,413.185,325.576,415.164,325.576,415.164Z" transform="translate(-232.451 -303.341)"/>
  <path id="Path_929" data-name="Path 929" class="cls-11" d="M389.276,405.473c.2,4.573,5.393,2.8,6.143,2.184a1.923,1.923,0,0,0,.291-.3c-1.813.668-5.027,1.184-6.072-2.93A8.213,8.213,0,0,0,389.276,405.473Z" transform="translate(-276.219 -297.473)"/>
  <path id="Path_930" data-name="Path 930" class="cls-11" d="M325.576,415.164a24.565,24.565,0,0,0,6.143,1.024c1.913-.12,1.627-1.966,1.526-2.423a35.552,35.552,0,0,1-7.247-.793.036.036,0,0,1-.014.008C325.507,413.185,325.576,415.164,325.576,415.164Z" transform="translate(-232.451 -303.341)"/>
  <path id="Path_931" data-name="Path 931" class="cls-12" d="M292.8,441.657c2.116,1.433,5.324.751,5.324.751s4.846-2.321,6.28-2.321,4.915-1.433,4.915-1.433l-.117-.967-.565-4.631s-5.316-.136-5.529-.614c0,0-.956-2.351-1.3-1.483s-5.461,7.012-6.758,7.012a3.917,3.917,0,0,0-2.311,1.2C292.007,439.933,291.695,440.908,292.8,441.657Z" transform="translate(-209.438 -315.568)"/>
  <path id="Path_932" data-name="Path 932" class="cls-11" d="M353.067,336.654s4.437,2.8,3.208,3.413S353.067,336.654,353.067,336.654Z" transform="translate(-251.341 -250.906)"/>
  <path id="Path_933" data-name="Path 933" class="cls-11" d="M347.178,353.886s3.823,3.629,2.389,3.726S347.178,353.886,347.178,353.886Z" transform="translate(-247.295 -262.746)"/>
  <path id="Path_934" data-name="Path 934" class="cls-11" d="M334.09,390.75s1.941,3.648,1.209,4.281S334.09,390.75,334.09,390.75Z" transform="translate(-238.303 -288.074)"/>
  <path id="Path_935" data-name="Path 935" class="cls-11" d="M402.263,397.271c-.683.683,6.485-2.253,4.846-2.389S402.263,397.271,402.263,397.271Z" transform="translate(-285.111 -290.909)"/>
  <path id="Path_936" data-name="Path 936" class="cls-24" d="M448.17,218.586l.228-.034c.849-.13,3.926-.613,6.687-1.212.673-.146,1.326-.3,1.924-.456,2.115-.554,3.533-1.152,2.629-1.642a4.842,4.842,0,0,1-2.161-2.846c-.031-.1-.061-.2-.089-.292a7.506,7.506,0,0,1-.276-1.571s-7.713-2.73-6.212,0a2.588,2.588,0,0,1-.455,3.2,5.989,5.989,0,0,1-1.661,1.238Z" transform="translate(-316.683 -163.418)"/>
  <path id="Path_937" data-name="Path 937" class="cls-11" d="M437.578,232.172a5.43,5.43,0,0,1-5.578.341c-2.818-1.638-6.5,14.471-6.5,14.471l-3.823,9.42s-2.477,2.048.6,2.935,9.918-.887,11.653,1.706a7.586,7.586,0,0,0,5.358,3c.336,0,1.637-9.761,1.637-9.761l.337-14.13Z" transform="translate(-297.832 -179.12)"/>
  <path id="Path_938" data-name="Path 938" class="cls-25" d="M422.715,257.594c3.081.887,9.918-.887,11.653,1.707a6.666,6.666,0,0,0,2.936,2.363,7.691,7.691,0,0,0,2.422.64c.045,0,.109-.179.184-.489.481-1.975,1.453-9.272,1.453-9.272l.337-14.13-3.244-7.027-.442-.96a5.878,5.878,0,0,1-1.406.684,4.949,4.949,0,0,1-4.172-.343c-.827-.481-1.728.567-2.59,2.287-2.074,4.142-3.914,12.184-3.914,12.184l-3.823,9.42a3.306,3.306,0,0,0-.259.248C421.307,255.48,420.29,256.9,422.715,257.594Z" transform="translate(-298.132 -177.921)"/>
  <path id="Path_939" data-name="Path 939" class="cls-11" d="M470.785,249.68a17.772,17.772,0,0,0-.091,3.595,42.123,42.123,0,0,0,.642,5.077,1.942,1.942,0,0,0,.083.31c1.666-.73,2.988-1.266,2.988-1.266l-1.107-3.97c.481-1.975,1.453-9.272,1.453-9.272l.337-14.13L471.846,223c2.115-.554,3.533-1.152,2.629-1.642a5.005,5.005,0,0,1-2.25-3.139,11.432,11.432,0,0,1-1.94,2.087l-.042.035L470,222.722l-.075.732-.157,1.519s.751,17.952,1.3,18.976.273,3-.2,5.324C470.83,249.4,470.807,249.539,470.785,249.68Z" transform="translate(-331.52 -169.532)"/>
  <path id="Path_940" data-name="Path 940" class="cls-26" d="M471.729,239.559c-.478,2.321-.068,6.143.478,9.079s6.348,1.024,7.44,0,4.3-1.5,4.3-1.5.137-13.379,1.16-15.085c.486-.81.6-3.451.591-6-.01-2.292-.123-4.511-.165-5.263-.011-.175-.016-.27-.016-.27s4.437-7.509,4.369-8.055-1.365-.614-1.365-.614-4.915-3.823-5.734-3.345-3.072-.751-3.072-.751-2.855.324-3.444-.227a.3.3,0,0,1-.105-.251c.067-.874-2.909-2.74-3-2.8,2.508,2.257-1.548,5.734-2.008,6.115l-.042.035-.478,4.633s.751,17.952,1.3,18.976S472.207,237.238,471.729,239.559Z" transform="translate(-332.12 -160.091)"/>
  <circle id="Ellipse_109" data-name="Ellipse 109" class="cls-3" cx="0.341" cy="0.341" r="0.341" transform="translate(139.532 59.625)"/>
  <path id="Path_941" data-name="Path 941" class="cls-11" d="M472.736,211.462l2.074,2.007,3.04-5.073a.3.3,0,0,1-.105-.251c.067-.874-2.909-2.74-3-2.8C477.252,207.6,473.2,211.081,472.736,211.462Z" transform="translate(-333.562 -160.69)"/>
  <circle id="Ellipse_110" data-name="Ellipse 110" class="cls-11" cx="0.341" cy="0.341" r="0.341" transform="translate(140.215 70.547)"/>
  <circle id="Ellipse_111" data-name="Ellipse 111" class="cls-3" cx="0.341" cy="0.341" r="0.341" transform="translate(140.215 70.41)"/>
  <path id="Path_942" data-name="Path 942" class="cls-26" d="M472.3,210.589l2.074,2.007,3.04-5.073a.3.3,0,0,1-.105-.251c.067-.874-2.909-2.74-3-2.8C476.815,206.731,472.759,210.208,472.3,210.589Z" transform="translate(-333.261 -160.09)"/>
  <rect id="Rectangle_261" data-name="Rectangle 261" class="cls-12" width="4.75" height="10.038" rx="1.699" transform="matrix(-1, -0.023, 0.023, -1, 141.632, 69.721)"/>
  <rect id="Rectangle_262" data-name="Rectangle 262" class="cls-11" width="4.75" height="10.038" rx="1.699" transform="matrix(-1, -0.023, 0.023, -1, 141.632, 69.721)"/>
  <rect id="Rectangle_263" data-name="Rectangle 263" class="cls-12" width="4.75" height="10.038" rx="1.699" transform="matrix(-1, -0.023, 0.023, -1, 141.658, 69.943)"/>
  <circle id="Ellipse_112" data-name="Ellipse 112" class="cls-26" cx="0.746" cy="0.746" r="0.746" transform="translate(138.779 62.042)"/>
  <path id="Path_943" data-name="Path 943" class="cls-11" d="M391.676,248.761c1.706.751,12.9-1.229,14.539-1.706s4.027-4.164,2.867-6.826a6.22,6.22,0,0,1,.41-5.256s2.457-5.256,3-6.28,1.685-4.005,1.843-4.505a.406.406,0,0,0-.1-.313A11.911,11.911,0,0,0,412.086,222c-.482.175-.542-1.205-.523-2.22.011-.568.045-1.021.045-1.021s-.227.231-.6.545c-.135.113-.289.239-.46.369a7.068,7.068,0,0,1-2.152,1.175c-1.638.485-3.959,2.722-3.959,2.722l.683,10.483s-1.57,9.858-3.208,11.769-6.553,1.843-8.191,1.843A2.039,2.039,0,0,0,391.676,248.761Z" transform="translate(-277.868 -169.907)"/>
  <path id="Path_944" data-name="Path 944" class="cls-26" d="M391.239,247.452c1.707.751,12.9-1.229,14.539-1.706s4.027-4.164,2.867-6.826a6.22,6.22,0,0,1,.41-5.256s2.457-5.256,3-6.28,1.685-4.005,1.843-4.505a.405.405,0,0,0-.1-.313,11.91,11.91,0,0,0-2.156-1.872c-.482.175-.542-1.205-.523-2.22.011-.568.045-1.021.045-1.021s-.227.231-.6.545c-.135.113-.289.239-.46.369a7.069,7.069,0,0,1-2.152,1.175c-1.638.485-3.959,2.722-3.959,2.722l.683,10.483s-1.57,9.858-3.208,11.769-6.553,1.843-8.191,1.843A2.039,2.039,0,0,0,391.239,247.452Z" transform="translate(-277.568 -169.008)"/>
  <path id="Path_945" data-name="Path 945" class="cls-11" d="M450.57,218.325s.064.36.172.913c.367,1.874,1.244,5.967,1.876,5.809a5.7,5.7,0,0,0,1.814-1.61,11.913,11.913,0,0,0-2.156-1.872c-.482.175-.542-1.205-.523-2.22l-.552-.476Z" transform="translate(-318.332 -169.607)"/>
  <path id="Path_946" data-name="Path 946" class="cls-26" d="M451.006,217.453s.064.36.172.913c.367,1.874,1.244,5.967,1.876,5.809a5.7,5.7,0,0,0,1.814-1.61,11.913,11.913,0,0,0-2.156-1.872c-.482.175-.542-1.205-.523-2.22l-.552-.476Z" transform="translate(-318.632 -169.008)"/>
  <path id="Path_947" data-name="Path 947" class="cls-24" d="M430.46,272.627s3.413-.683,4.369-2.184,7.457-2.8,6.664-1.229-6.664,6.707-6.664,6.707l-2.543,3.643-3.4-.861-1.43-2.781Z" transform="translate(-302.454 -204.08)"/>
  <path id="Path_948" data-name="Path 948" class="cls-11" d="M454.412,294.131s-3.305,1.229-3.8,2.867S454.412,294.131,454.412,294.131Z" transform="translate(-318.332 -221.69)"/>
  <path id="Path_949" data-name="Path 949" class="cls-11" d="M460.891,300.227s.3,1.706-3.843,1.569Z" transform="translate(-322.783 -225.879)"/>
  <path id="Path_950" data-name="Path 950" class="cls-11" d="M515.837,230.127l1.5-.137a6.311,6.311,0,0,0,2.867,1.229c1.229,0,1.98,1.57,1.98,1.57a22.069,22.069,0,0,0,2.73,1.092c.683.137,1.843.819,1.5,1.092s.068.887.683,1.365,1.57,2.935.751,3.276-3.072,1.024-3.686,1.365a1.693,1.693,0,0,1-1.365,0s-3.616-4.71-5.46-3.823a11.829,11.829,0,0,1-4.369.887l-1.979-4.164Z" transform="translate(-359.845 -177.622)"/>
  <path id="Path_951" data-name="Path 951" class="cls-26" d="M424.129,254.536a1.825,1.825,0,0,0,1.272.885,9.645,9.645,0,0,0,3.975-.367s-6.876-2.184-.255-7.5h-1.775l-.591-.224.27-1.414.389-12.751-1.433-.341s-1.154,8.4-1.429,9.42a46.009,46.009,0,0,0-.482,4.983,11.536,11.536,0,0,1-.683,2.457A7.1,7.1,0,0,0,424.129,254.536Z" transform="translate(-299.546 -179.57)"/>
  <path id="Path_952" data-name="Path 952" class="cls-11" d="M426.981,286.385a1.825,1.825,0,0,0,1.272.885,9.647,9.647,0,0,0,3.975-.367s-6.876-2.184-.255-7.5H430.2l-.591-.224C428.636,280.9,427.105,283.967,426.981,286.385Z" transform="translate(-302.125 -211.42)"/>
  <path id="Path_953" data-name="Path 953" class="cls-27" d="M426.109,286.385a1.825,1.825,0,0,0,1.272.885,9.646,9.646,0,0,0,3.975-.367s-6.876-2.184-.255-7.5h-1.775l-.591-.224C427.763,280.9,426.233,283.967,426.109,286.385Z" transform="translate(-301.526 -211.42)"/>
  <path id="Path_954" data-name="Path 954" class="cls-26" d="M426.109,286.385a1.825,1.825,0,0,0,1.272.885,9.646,9.646,0,0,0,3.975-.367s-6.876-2.184-.255-7.5h-1.775l-.591-.224C427.763,280.9,426.233,283.967,426.109,286.385Z" transform="translate(-301.526 -211.42)"/>
  <path id="Path_955" data-name="Path 955" class="cls-11" d="M455.442,213.729a6.212,6.212,0,0,0,7.031-1.335c-.031-.1-.061-.2-.089-.292a7.5,7.5,0,0,1-.276-1.571s-7.713-2.73-6.212,0A2.588,2.588,0,0,1,455.442,213.729Z" transform="translate(-321.68 -163.418)"/>
  <path id="Path_956" data-name="Path 956" class="cls-24" d="M443.808,190.833v.06c0,.2.014.4.034.6s.049.375.085.558a6.214,6.214,0,0,0,11.969.8c.041-.12.079-.242.112-.365a6.18,6.18,0,0,0,.224-1.655c0-.143-.005-.287-.015-.427a6.211,6.211,0,0,0-12.408.427Z" transform="translate(-313.686 -146.45)"/>
  <path id="Path_957" data-name="Path 957" class="cls-11" d="M443.808,190.893a2.693,2.693,0,0,1,.034.6,2.307,2.307,0,0,0,.018.324.94.94,0,0,0,.067.235,1.161,1.161,0,0,0,1.611.591,1.749,1.749,0,0,0,.485-.635c.573-1.066,1.372-2.294,2.628-2.314a5.978,5.978,0,0,1,1.556.348,1.668,1.668,0,0,0,1.518-.2c.3-.27.437-.733.836-.829s.764.27.947.628.328.778.7.962c.164.082.356.105.517.193.743.407.4,1.832,1.173,2.063a.58.58,0,0,0,.074.018c.012-.127.026-.255.038-.382l.209-2.082a6.211,6.211,0,0,0-12.408.427Z" transform="translate(-313.686 -146.45)"/>
  <path id="Path_958" data-name="Path 958" class="cls-12" d="M449.184,170.754a2.532,2.532,0,0,1,1.654,1.531,6.047,6.047,0,0,1,.035,1,7.953,7.953,0,0,0,.559,1.941,2.157,2.157,0,0,1-.132,1.944c-.128.171-.3.313-.413.493a2.009,2.009,0,0,0-.239.9l-.337,3.36c-.866-.161-.481-1.663-1.247-2.081-.161-.088-.353-.111-.517-.193-.37-.184-.514-.605-.7-.962s-.543-.724-.948-.627-.538.559-.834.829a1.666,1.666,0,0,1-1.519.2,6.016,6.016,0,0,0-1.556-.348c-1.256.021-2.055,1.248-2.629,2.314a1.737,1.737,0,0,1-.485.636,1.167,1.167,0,0,1-1.678-.827c-.059-.4.066-.848-.165-1.187s-.731-.412-1.123-.593a2.517,2.517,0,0,1-1.141-2.75,4.772,4.772,0,0,0,.174-2.252c-.085-.25-.231-.478-.309-.729a1.971,1.971,0,0,1,.7-1.977,5.739,5.739,0,0,1,2.026-1.017,23.3,23.3,0,0,1,5.8-1.355c.867-.056,2-.328,2.693.213A9.2,9.2,0,0,0,449.184,170.754Z" transform="translate(-308.028 -135.643)"/>
  <circle id="Ellipse_113" data-name="Ellipse 113" class="cls-11" cx="0.341" cy="0.341" r="0.341" transform="translate(139.191 54.233)"/>
  <circle id="Ellipse_114" data-name="Ellipse 114" class="cls-3" cx="0.341" cy="0.341" r="0.341" transform="translate(139.191 54.096)"/>
  <circle id="Ellipse_115" data-name="Ellipse 115" class="cls-11" cx="0.341" cy="0.341" r="0.341" transform="translate(141.376 75.666)"/>
  <circle id="Ellipse_116" data-name="Ellipse 116" class="cls-3" cx="0.341" cy="0.341" r="0.341" transform="translate(141.376 75.53)"/>
  <circle id="Ellipse_117" data-name="Ellipse 117" class="cls-11" cx="0.341" cy="0.341" r="0.341" transform="translate(140.215 81.332)"/>
  <circle id="Ellipse_118" data-name="Ellipse 118" class="cls-3" cx="0.341" cy="0.341" r="0.341" transform="translate(140.215 81.195)"/>
  <path id="Path_959" data-name="Path 959" class="cls-11" d="M438.93,254.27s-.751,5.1,0,5.986S438.93,254.27,438.93,254.27Z" transform="translate(-310.106 -194.303)"/>
  <path id="Path_960" data-name="Path 960" class="cls-11" d="M506.658,284.522a7.712,7.712,0,0,1,0,6.049c-1.434,2.961-2.321,4.163-1.843,6.054S506.658,284.522,506.658,284.522Z" transform="translate(-355.512 -215.088)"/>
  <path id="Path_961" data-name="Path 961" class="cls-11" d="M292.8,456.851c2.116,1.434,5.324.751,5.324.751s4.846-2.321,6.28-2.321,4.915-1.433,4.915-1.433l-.117-.967a29.465,29.465,0,0,0-5,1.24c-.478.41-6.348,2.389-6.348,2.389s-4-.5-5.11-2.142C292.007,455.126,291.695,456.1,292.8,456.851Z" transform="translate(-209.438 -330.761)"/>
  <g id="Group_21" data-name="Group 21" class="cls-20" transform="translate(127.545 36.873)">
    <path id="Path_962" data-name="Path 962" d="M484.457,180.695c0-.074,0-.148,0-.222.006.085.007.17.006.256C484.459,180.716,484.457,180.706,484.457,180.695Z" transform="translate(-469.157 -180.472)"/>
    <path id="Path_963" data-name="Path 963" d="M437.263,193.933c.392.181.886.245,1.123.593s.106.787.165,1.187a1.167,1.167,0,0,0,1.678.827,1.737,1.737,0,0,0,.484-.636c.573-1.066,1.372-2.293,2.629-2.314a6.015,6.015,0,0,1,1.556.348,1.666,1.666,0,0,0,1.519-.2c.3-.27.437-.734.834-.829s.765.27.948.627.328.778.7.962c.164.082.356.105.517.193.766.418.38,1.919,1.247,2.081l.337-3.36a2.009,2.009,0,0,1,.239-.9c.115-.18.285-.322.413-.493a1.5,1.5,0,0,0,.28-.722,1.746,1.746,0,0,1-.28,1.269c-.128.171-.3.313-.413.493a2.009,2.009,0,0,0-.238.9l-.337,3.36c-.866-.161-.481-1.663-1.247-2.081-.161-.088-.353-.111-.517-.193-.37-.184-.514-.605-.7-.963s-.543-.724-.948-.627-.538.559-.834.829a1.666,1.666,0,0,1-1.519.2,6.014,6.014,0,0,0-1.556-.348c-1.256.021-2.055,1.248-2.629,2.314a1.737,1.737,0,0,1-.484.636,1.167,1.167,0,0,1-1.678-.827c-.059-.4.066-.848-.165-1.187s-.731-.412-1.123-.593A2.422,2.422,0,0,1,436.091,192,2.227,2.227,0,0,0,437.263,193.933Z" transform="translate(-435.922 -187.904)"/>
    <path id="Path_964" data-name="Path 964" d="M435.638,181.055c.078.252.225.48.309.729a2.1,2.1,0,0,1,.078.9,1.746,1.746,0,0,0-.078-.351c-.085-.25-.231-.478-.309-.729a1.51,1.51,0,0,1-.04-.712,1.412,1.412,0,0,0,.04.166Z" transform="translate(-435.573 -180.759)"/>
  </g>
  <path id="Path_965" data-name="Path 965" class="cls-11" d="M481.327,263.419c1.57-.344,5.256-1.431,5.256-1.431l.659-.132c-.01-2.292-.123-4.511-.165-5.263l-.016,0a25.4,25.4,0,0,0-3.891,1.57c-.751.546-3.072.41-3.072.41a10.52,10.52,0,0,0-6.621,3.55C470.474,265.47,479.757,263.763,481.327,263.419Z" transform="translate(-333.663 -195.9)"/>
  <path id="Path_966" data-name="Path 966" class="cls-24" d="M496.669,254.766a.911.911,0,0,1,.2,1.53,6.669,6.669,0,0,1-3.2,1.629c-1.933.194-6.587,1.128-7.05,1.221-.025.005-.049.011-.073.018-.384.113-3.741,1.1-5.22,1.42-1.57.344-10.853,2.051-7.85-1.294a10.617,10.617,0,0,1,6.555-3.544.853.853,0,0,1,.12,0c.351.016,2.335.085,3.018-.412a6.444,6.444,0,0,1,1.13-.562,21.687,21.687,0,0,1,4.615-1.331l3.211-.56a.924.924,0,0,1,.541.069Z" transform="translate(-333.663 -193.337)"/>
  <path id="Path_967" data-name="Path 967" class="cls-26" d="M516.709,230.127l1.5-.137a6.311,6.311,0,0,0,2.867,1.229c1.229,0,1.98,1.57,1.98,1.57a22.071,22.071,0,0,0,2.73,1.092c.683.137,1.843.819,1.5,1.092s.068.887.683,1.365,1.57,2.935.751,3.276-3.072,1.024-3.686,1.365a1.693,1.693,0,0,1-1.365,0s-3.616-4.71-5.46-3.823a11.83,11.83,0,0,1-4.369.887l-1.98-4.164Z" transform="translate(-360.444 -177.622)"/>
</svg>
