<svg xmlns="http://www.w3.org/2000/svg" xmlns:xlink="http://www.w3.org/1999/xlink" width="349.819" height="243.631" viewBox="0 0 349.819 243.631">
  <defs>
    <style>
      .cls-1 {
        fill: #ebe300;
      }

      .cls-2, .cls-26, .cls-32 {
        fill: #0c0d1f;
      }

      .cls-2, .cls-5, .cls-7 {
        opacity: 0.1;
      }

      .cls-3 {
        fill: url(#linear-gradient);
      }

      .cls-4 {
        fill: #444176;
      }

      .cls-6 {
        fill: #565387;
      }

      .cls-8 {
        fill: #ced2df;
      }

      .cls-9 {
        fill: #88455e;
      }

      .cls-10 {
        fill: #ec8c9c;
      }

      .cls-11 {
        fill: #002350;
      }

      .cls-12 {
        fill: url(#linear-gradient-2);
      }

      .cls-13 {
        fill: url(#linear-gradient-3);
      }

      .cls-14 {
        fill: #ffbdc6;
      }

      .cls-15 {
        fill: #7679b4;
      }

      .cls-16 {
        fill: #a66477;
      }

      .cls-17 {
        fill: #f2f1f2;
      }

      .cls-18 {
        fill: #565388;
      }

      .cls-19 {
        fill: url(#linear-gradient-4);
      }

      .cls-20 {
        fill: #493545;
      }

      .cls-21 {
        opacity: 0.05;
      }

      .cls-22 {
        fill: #3e3d77;
      }

      .cls-23 {
        fill: #c77485;
      }

      .cls-24 {
        fill: #070707;
      }

      .cls-25, .cls-28 {
        fill: none;
        stroke-miterlimit: 10;
      }

      .cls-25 {
        stroke: #535461;
        stroke-width: 2px;
      }

      .cls-27 {
        fill: #dee3f3;
        opacity: 0.5;
      }

      .cls-28 {
        stroke: #0c0d1f;
      }

      .cls-29 {
        fill: #a8a8a8;
      }

      .cls-30 {
        opacity: 0.2;
      }

      .cls-31 {
        fill: #ffd037;
      }

      .cls-32 {
        opacity: 0.75;
      }
    </style>
    <linearGradient id="linear-gradient" x1="0.5" y1="1" x2="0.5" gradientUnits="objectBoundingBox">
      <stop offset="0" stop-color="gray" stop-opacity="0.251"/>
      <stop offset="0.54" stop-color="gray" stop-opacity="0.122"/>
      <stop offset="1" stop-color="gray" stop-opacity="0.102"/>
    </linearGradient>
    <linearGradient id="linear-gradient-2" x1="0.495" y1="1.014" x2="0.495" y2="0" xlink:href="#linear-gradient"/>
    <linearGradient id="linear-gradient-3" x1="0.5" y1="1" x2="0.5" y2="0" xlink:href="#linear-gradient"/>
    <linearGradient id="linear-gradient-4" x1="0.5" y1="1" x2="0.5" y2="0" xlink:href="#linear-gradient"/>
  </defs>
  <g id="undraw_celebration_0jvk" transform="translate(0.021 -0.02)">
    <path id="Path_1130" data-name="Path 1130" class="cls-1" d="M17.122,0A17.122,17.122,0,1,1,0,17.122,17.122,17.122,0,0,1,17.122,0Z" transform="translate(17.901 7.209)"/>
    <path id="Path_968" data-name="Path 968" class="cls-2" d="M178.652,178.428c7.189,16.238-1.981,34.937-12.776,49.017-3.613,4.722-7.6,9.672-8.1,15.594-.6,7.244,4.3,13.9,10.121,18.257a42.616,42.616,0,0,0,37.743,6.383c10.916-3.458,20.094-11.27,31.107-14.419,18.415-5.274,37.935,3.469,53.706,14.364,11.163,7.7,23.118,17.085,36.576,15.436,9.469-1.16,17.505-7.808,22.96-15.634,2.633-3.779,4.924-8.014,8.758-10.563a21.923,21.923,0,0,1,7.635-2.895c24.451-5.226,50.4,7.528,74.529.969,16.3-4.42,29.291-17.31,37.371-32.142s11.852-31.578,14.994-48.17c2.232-11.786,4.084-24.518-1.046-35.357-5.429-11.476-18-18.433-30.624-19.737s-25.295,2.295-36.93,7.37c-14.537,6.357-28.786,15.255-44.653,15.284-10.806.022-21.111-4.125-31.442-7.289-17.273-5.285-35.235-7.911-53.135-10.335-17.137-2.32-34.443-4.479-51.684-3.108-12.2.969-22.971,5.631-34.808,7.79-7.716,1.407-15.469.368-23.041,2.725-9.325,2.917-18.916,9.675-19.432,20.319C165.994,162.418,174.841,169.813,178.652,178.428Z" transform="translate(-145.721 -119.24)"/>
    <path id="Path_969" data-name="Path 969" class="cls-3" d="M547.975,274.83c-1.573-4.1-5.628-13.734-8.3-11.822-3.374,2.416,3.374,13.089,3.374,13.089.192,1.959-3.6,6.036-5.635,8.069v-.254a.885.885,0,0,1-.088.221l-.169-.092a1.1,1.1,0,0,1-.239.438,4.3,4.3,0,0,0-.018-.438c-.39,1.654-7.2,3.749-7.2,3.749h-.5c-1.893,0-6.821-.427-9.1-4.081a20.208,20.208,0,0,0-4.467-5.211,3.8,3.8,0,0,0-2.118-.8,27.247,27.247,0,0,1-12.437-4.28l-.188-.129-.04.118c-.239-.343-.471-.707-.689-1.083h0l-.11-.2a9.252,9.252,0,0,0,5.1-8.228V263.7a6.3,6.3,0,0,0,.847-3.156v-1.1l1.44-1.282a5.922,5.922,0,0,0,1.676-2.011,2.383,2.383,0,0,0,.177-1.031,1.786,1.786,0,0,0-.678-1.6c-1.1-.762-2.946,0-3.746-1.061-.368-.479-.3-1.131-.482-1.694a3.031,3.031,0,0,0-2.921-1.783,12.617,12.617,0,0,0-3.58.762,21.019,21.019,0,0,1-7.624.715,4.979,4.979,0,0,0-2.088.074,2.876,2.876,0,0,0-1.694,1.97,4.627,4.627,0,0,0-.162,1.009,6.349,6.349,0,0,0-1.6,4.2v2.832a6.346,6.346,0,0,0,1.528,4.121,9.207,9.207,0,0,0,3.856,6.718v.225l.048.029a15.219,15.219,0,0,1-.405,2.6v-.188a26.619,26.619,0,0,1-10.681,2.81h-.608a4.114,4.114,0,0,0-2.946,1.1c-1.635,1.54-4.5,3.974-6.261,3.974-.368,0-9.664,1.816-11.2,2.118l-2.876-2.818-.088.166-.169-.166a6.994,6.994,0,0,0-.935.136,22.293,22.293,0,0,1-5.1-11.252s6.361-7.245,4.022-14c-2-5.753-7.495,6.578-9.057,10.294a2.968,2.968,0,0,0-.1,2.044l5.167,16.654a7.812,7.812,0,0,0-.409,4.051h-.059L452.2,294a19.875,19.875,0,0,0,7.263,1.186,25.391,25.391,0,0,0,9.48-1.819h.873l-.166.063h4.482l2.851,8.622c-.1.784-1.473,11.734-2.578,14.183a6.155,6.155,0,0,0-.435,2.578,19.684,19.684,0,0,0,.821,4.99l2.5-.092-.1.2a129.989,129.989,0,0,0-7.734,19.277l-3.635,7.366,2.725,33.037h.11l.21.033h0c.295.044.737.11,1.318.184l-.214.368-6.007,9.944s-4.283,8.769,5.193,7.116c0,0,3.5-1.016,4.932-7l6.232-5.845s.291-3.882-1.473-5.432c-.111-1.794-.39-7.031.04-8.29.519-1.525-2.21-19.06-2.21-19.06s9.863-20.459,15.837-20.967a3.274,3.274,0,0,1,1.293.169c4.909,1.6,10.857,13.469,12.607,17.163h0l.081.169v.033l.066.144v.04l.059.125v.033l.052.114v.026l.044.092v.037l.033.07v.029l.022.052V353h0l.018.044.777,23h0l.077.04h.037l-.066.475-.339,2.375s4.283,9.023,4.022,10.165,2.854,5.72,7.267,4.449,1.786-8.434,1.786-8.434l-4.25-8.758-.188-.39a8.349,8.349,0,0,0,1.193-.888s-1.3-9.4,0-11.436,1.687-11.31,1.687-11.31-.91-6.353-2.468-9.149L509.8,319.892c1.956,1.819,3.477,2.53,4.747,2.482h.21a3.171,3.171,0,0,0,1.6-.4,4.507,4.507,0,0,0,.737-.519,1.172,1.172,0,0,0,.122-.122h0c1.816-1.525-2.077-7.5-4.283-11.049-2.125-3.425.8-12.732,1.024-13.425a3.515,3.515,0,0,1,.63-.368,3.887,3.887,0,0,1,1.444-.313c2.114.074,4.714,1.289,7.933,1.9a37.433,37.433,0,0,0,6.773.527h.133c.9,0,1.72-.018,2.383-.044a4.026,4.026,0,0,0,1.731-.468h0a5.226,5.226,0,0,0,1.23-.994l5.65-6.383-.147.07a3.175,3.175,0,0,0,0-2.247l5.97-10.312a3.922,3.922,0,0,0,.291-3.4Z" transform="translate(-326.308 -201.183)"/>
    <path id="Path_970" data-name="Path 970" class="cls-4" d="M516.2,614.659l-6.014,5.764c-1.377,5.893-4.762,6.891-4.762,6.891-9.145,1.628-5.013-7-5.013-7l5.8-9.815.715-1.212s4.136-1.252,6.891-.5a2.357,2.357,0,0,1,.939.508C516.485,610.8,516.2,614.659,516.2,614.659Z" transform="translate(-361.61 -428.323)"/>
    <path id="Path_971" data-name="Path 971" class="cls-4" d="M626.891,606.659c-4.261,1.252-7.267-3.256-7-4.386S616,592.262,616,592.262l.324-2.342.3-2.169,7,.5.659,1.385,4.1,8.637S631.152,605.406,626.891,606.659Z" transform="translate(-435.214 -415.185)"/>
    <path id="Path_972" data-name="Path 972" class="cls-5" d="M526.377,610.245c-.659,1.131-6,.56-8.607.206l.715-1.212s4.136-1.252,6.891-.5a2.356,2.356,0,0,1,.939.508C526.351,609.858,526.377,610.245,526.377,610.245Z" transform="translate(-373.162 -428.291)"/>
    <path id="Path_973" data-name="Path 973" class="cls-5" d="M624.834,589.616c-3.583,2.387-7.4.582-7.974.284l.3-2.169,7,.5Z" transform="translate(-435.757 -415.172)"/>
    <path id="Path_974" data-name="Path 974" class="cls-6" d="M556.3,475.647c-1.252,2,0,11.277,0,11.277-4.136,3.76-9.02,1-9.02,1l-.737-22.676s-8.143-18.669-13.907-18.168-15.284,20.673-15.284,20.673,2.63,17.288,2.129,18.783,0,8.769,0,8.769c-.877,1.5-10.021,0-10.021,0l-2.63-32.576,3.491-7.27a128.889,128.889,0,0,1,7.458-19c1.013-2.125,1.691-3.422,1.691-3.422l6.666-1.388,21.638-4.486,7.775,28.3c1.5,2.755,2.379,9.02,2.379,9.02S557.552,473.643,556.3,475.647Z" transform="translate(-366.252 -313.74)"/>
    <g id="Group_22" data-name="Group 22" class="cls-7" transform="translate(140.564 113.405)">
      <path id="Path_975" data-name="Path 975" d="M595.689,522.078l-.737-22.676s-8.143-18.669-13.907-18.168a3.136,3.136,0,0,0-.755.169c5.62,1.867,12.658,18,12.658,18l.737,22.676a8.84,8.84,0,0,0,4.983.91,8.867,8.867,0,0,1-2.98-.91Z" transform="translate(-553.22 -461.297)"/>
      <path id="Path_976" data-name="Path 976" d="M511.423,495.292l-2.63-32.576,3.506-7.281a128.875,128.875,0,0,1,7.458-19c1.013-2.125,1.69-3.422,1.69-3.422l6.666-1.388,19.752-4.107-.107-.394-21.649,4.5-6.666,1.388s-.678,1.3-1.691,3.422a128.724,128.724,0,0,0-7.458,19L506.79,462.7l2.63,32.576a47.055,47.055,0,0,0,7.955.641A59.173,59.173,0,0,1,511.423,495.292Z" transform="translate(-506.79 -427.12)"/>
    </g>
    <path id="Path_977" data-name="Path 977" class="cls-8" d="M467.3,338.21s-7.141.368-6.14,7.893l2,.25,3.005-3.256,1.5-2.755v-.626Z" transform="translate(-337.344 -257.55)"/>
    <path id="Path_978" data-name="Path 978" class="cls-5" d="M467.3,338.21s-7.141.368-6.14,7.893l2,.25,3.005-3.256,1.5-2.755v-.626Z" transform="translate(-337.344 -257.55)"/>
    <path id="Path_979" data-name="Path 979" class="cls-8" d="M693.085,345.69s5.893,3.131,4.386,6.766l-1.878.737-2.5-1.377-.368-3.256.25-2.254Z" transform="translate(-483.678 -262.276)"/>
    <path id="Path_980" data-name="Path 980" class="cls-5" d="M693.085,345.69s5.893,3.131,4.386,6.766l-1.878.737-2.5-1.377-.368-3.256.25-2.254Z" transform="translate(-483.678 -262.276)"/>
    <rect id="Rectangle_264" data-name="Rectangle 264" class="cls-9" width="20.547" height="15.535" rx="7.767" transform="translate(158.791 51.089)"/>
    <path id="Path_981" data-name="Path 981" class="cls-10" d="M459.267,294.248l-4.386,7L454.512,300l-5.959-19.417a2.987,2.987,0,0,1,.092-2.015c1.506-3.661,6.817-15.837,8.743-10.147,2.254,6.629-3.886,13.782-3.886,13.782a22.07,22.07,0,0,0,5.241,11.469C459.068,294.053,459.267,294.248,459.267,294.248Z" transform="translate(-329.355 -212.524)"/>
    <path id="Path_982" data-name="Path 982" class="cls-10" d="M691.16,311.046s6.891-6.515,6.63-9.145c0,0-6.515-10.522-3.256-12.891,2.578-1.886,6.493,7.616,8.011,11.657a3.941,3.941,0,0,1-.262,3.315l-8.235,14.581Z" transform="translate(-482.693 -226.316)"/>
    <path id="Path_983" data-name="Path 983" class="cls-10" d="M564.94,299.915s1.252,8.018-2.379,11.027,10.4,2.991,10.4,2.991l5.013-4.637s-5.764-5.388-4.011-9.4Z" transform="translate(-401.077 -233.35)"/>
    <path id="Path_984" data-name="Path 984" class="cls-5" d="M551.629,323.911a8.784,8.784,0,0,0,10.773-.5l8.769,18.168-.5,22.175s-18.168,9.4-25.685,3.635-1.252-8.769-1.252-8.769l-1.753-17.038,1.878-11.027s3.381-5.263,3.635-5.263S551.629,323.911,551.629,323.911Z" transform="translate(-388.017 -248.201)"/>
    <path id="Path_985" data-name="Path 985" class="cls-11" d="M551.635,323.231a8.777,8.777,0,0,0,10.776-.5l8.769,18.168-.5,22.175s-18.168,9.4-25.685,3.635-1.252-8.769-1.252-8.769L541.989,340.9l1.878-11.027s3.381-5.263,3.635-5.263S551.635,323.231,551.635,323.231Z" transform="translate(-388.023 -247.772)"/>
    <path id="Path_986" data-name="Path 986" class="cls-5" d="M501.462,319a23.249,23.249,0,0,1-10.655,2.766,3.926,3.926,0,0,0-2.832,1.083c-1.58,1.517-4.346,3.919-6.059,3.919-.368,0-11.027,2.129-11.027,2.129l-2.818-2.818s-4.2,8.206-6.2,7.83l3.635,4.762s6.891,3.005,15.911-.626h5.263l2.755,8.519s-1.377,11.528-2.5,14.032.368,7.392.368,7.392l9.9-.368s.5-4.887,1.252-5.525-2.63-22.175-2.63-22.175-2.254-12.154,6.014-16.537Z" transform="translate(-337.85 -245.415)"/>
    <path id="Path_987" data-name="Path 987" class="cls-5" d="M544.913,439.38a32.709,32.709,0,0,0-.777,4.519l-7.576.287c1.013-2.125,1.69-3.422,1.69-3.422Z" transform="translate(-385.032 -321.459)"/>
    <path id="Path_988" data-name="Path 988" class="cls-5" d="M469.715,340.108l-4.386,7-.368-1.245a32.387,32.387,0,0,0,4.246-6.331A7.411,7.411,0,0,0,469.715,340.108Z" transform="translate(-339.802 -258.384)"/>
    <path id="Path_989" data-name="Path 989" class="cls-8" d="M501.014,319a24.9,24.9,0,0,1-10.905,2.766,3.926,3.926,0,0,0-2.832,1.083c-1.58,1.517-4.346,3.919-6.059,3.919-.368,0-11.027,2.129-11.027,2.129l-2.829-2.821s-4.2,8.206-6.2,7.83l3.635,4.762s6.891,3.005,15.911-.626h5.263l2.755,8.515s-1.377,11.528-2.5,14.032.368,7.392.368,7.392l9.9-.368s.5-4.887,1.252-5.525-2.63-22.175-2.63-22.175-2.254-12.154,6.014-16.537Z" transform="translate(-337.402 -245.415)"/>
    <path id="Path_990" data-name="Path 990" class="cls-5" d="M595.667,316.94a24.38,24.38,0,0,0,11.937,4.346,3.628,3.628,0,0,1,2.044.792,19.786,19.786,0,0,1,4.313,5.156c2.755,4.512,9.521,4.011,9.521,4.011s6.578-2.066,6.953-3.683c0,0,.188,8.839,4.324,6.7l-5.44,6.268a3.838,3.838,0,0,1-2.744,1.322,40.332,40.332,0,0,1-8.592-.475c-4.512-.877-7.768-3.005-10.147-1.127,0,0-3.131,9.771-1,13.281s5.893,9.4,4.136,10.9-3.886,1.377-7.392-2.254-3.886-9.771-3.886-9.771l.877-15.785s-3.381-11.9-6.629-14.283Z" transform="translate(-421.279 -244.114)"/>
    <path id="Path_991" data-name="Path 991" class="cls-5" d="M636.09,334.315l-5.454,6.294a3.833,3.833,0,0,1-1.315.98h0a3.82,3.82,0,0,1-1.422.335,39.852,39.852,0,0,1-8.592-.475c-4.221-.821-7.344-2.736-9.679-1.444a3.428,3.428,0,0,0-.471.313s-3.131,9.771-1,13.281,5.893,9.4,4.136,10.9a4.052,4.052,0,0,1-.98.637c-1.576.711-3.532.1-6.412-2.891-3.506-3.635-3.885-9.771-3.885-9.771l.877-15.785s-3.381-11.9-6.629-14.283l1.433-5.138a26.011,26.011,0,0,0,12.007,4.221,3.628,3.628,0,0,1,2.044.792,19.8,19.8,0,0,1,4.313,5.156c2.755,4.512,9.521,4.011,9.521,4.011a36.563,36.563,0,0,0,4.74-1.886h0a7.226,7.226,0,0,0,2.21-1.473,1.105,1.105,0,0,0,.239-.442S631.958,336.444,636.09,334.315Z" transform="translate(-422.113 -244.323)"/>
    <path id="Path_992" data-name="Path 992" class="cls-8" d="M635.391,334.238l-5.451,6.3a3.833,3.833,0,0,1-1.061.854h0a3.823,3.823,0,0,1-1.672.46,39.854,39.854,0,0,1-8.592-.475c-4.07-.792-7.123-2.6-9.425-1.569a3.407,3.407,0,0,0-.737.438s-3.131,9.771-1,13.281,5.893,9.4,4.136,10.9a4.343,4.343,0,0,1-.737.512c-1.621.895-3.624.368-6.663-2.766-3.506-3.635-3.886-9.771-3.886-9.771l.877-15.785s-3.381-11.9-6.629-14.283l1.5-5.388.18.125A26.011,26.011,0,0,0,608.24,321.3a3.628,3.628,0,0,1,2.044.792,19.8,19.8,0,0,1,4.313,5.156c2.755,4.512,9.521,4.011,9.521,4.011a36.559,36.559,0,0,0,4.74-1.886h0c1.138-.582,2.066-1.219,2.21-1.8v.317C631.177,329.406,631.73,336.12,635.391,334.238Z" transform="translate(-421.664 -244.12)"/>
    <path id="Path_993" data-name="Path 993" class="cls-5" d="M579.057,300.45H569.85a22.53,22.53,0,0,1,.173,4.42,9.465,9.465,0,0,0,9.73.7C578.87,303.934,578.332,302.078,579.057,300.45Z" transform="translate(-406.061 -233.697)"/>
    <circle id="Ellipse_120" data-name="Ellipse 120" class="cls-10" cx="9.145" cy="9.145" r="9.145" transform="translate(160.231 54.411)"/>
    <path id="Path_994" data-name="Path 994" class="cls-5" d="M567.575,265.36a9.763,9.763,0,0,1,3.046-.28c.913.184,1.69.814,2.6,1.005,1.76.368,3.4-.928,4.725-2.136l2.873-2.615a5.863,5.863,0,0,0,1.62-1.981,1.989,1.989,0,0,0-.486-2.342c-1.05-.737-2.858,0-3.617-1.046a5.458,5.458,0,0,1-.468-1.668,2.932,2.932,0,0,0-2.821-1.757,12.48,12.48,0,0,0-3.455.737,19.888,19.888,0,0,1-7.366.7,4.707,4.707,0,0,0-2.015.07,2.817,2.817,0,0,0-1.635,1.941c-.567,2,.4,5.234,1.374,7.027S565.634,265.6,567.575,265.36Z" transform="translate(-400.1 -203.432)"/>
    <path id="Path_995" data-name="Path 995" class="cls-9" d="M567.575,264.68a9.763,9.763,0,0,1,3.046-.28c.913.184,1.69.814,2.6,1.005,1.76.368,3.4-.928,4.725-2.136l2.873-2.615a5.863,5.863,0,0,0,1.62-1.981,1.989,1.989,0,0,0-.486-2.342c-1.05-.737-2.858,0-3.617-1.046a5.458,5.458,0,0,1-.468-1.668,2.932,2.932,0,0,0-2.821-1.757,12.481,12.481,0,0,0-3.455.737,19.888,19.888,0,0,1-7.366.7,4.707,4.707,0,0,0-2.015.07,2.817,2.817,0,0,0-1.635,1.941c-.567,2,.4,5.234,1.374,7.027S565.634,264.9,567.575,264.68Z" transform="translate(-400.1 -203.003)"/>
    <path id="Path_996" data-name="Path 996" class="cls-5" d="M536.55,394a5.163,5.163,0,0,1,3.005,1.5,5.4,5.4,0,0,0,2.755,1.628" transform="translate(-385.026 -292.793)"/>
    <path id="Path_997" data-name="Path 997" class="cls-5" d="M487.438,349.09s1.635,3.65.626,4.018-.626,3.005-.626,3.005" transform="translate(-353.956 -264.423)"/>
    <g id="Group_23" data-name="Group 23" class="cls-7" transform="translate(133.931 73.643)">
      <path id="Path_998" data-name="Path 998" d="M488.894,333.678s10.648-2.129,11.016-2.129c1.716,0,4.479-2.4,6.059-3.919a3.867,3.867,0,0,1,1.716-.954h-.136a3.926,3.926,0,0,0-2.832,1.083c-1.58,1.517-4.346,3.919-6.059,3.919-.3,0-7.112,1.352-9.878,1.9Z" transform="translate(-488.78 -323.907)"/>
      <path id="Path_999" data-name="Path 999" d="M555.411,319.628v-.468a26.585,26.585,0,0,1-8.161,2.611,25.222,25.222,0,0,0,8.161-2.143Z" transform="translate(-525.715 -319.16)"/>
      <path id="Path_1000" data-name="Path 1000" d="M523.01,400.463s-1.5-4.887-.368-7.392,2.5-14.032,2.5-14.032L522.4,370.52H517.12l-.32.125h4.328l2.744,8.522s-1.377,11.528-2.5,14.032.368,7.392.368,7.392l9.9-.368v-.077Z" transform="translate(-506.48 -351.604)"/>
    </g>
    <g id="Group_24" data-name="Group 24" class="cls-7" transform="translate(178.764 90.125)">
      <path id="Path_1001" data-name="Path 1001" d="M621.795,421.018a4.339,4.339,0,0,1-.737.512c-1.62.895-3.624.368-6.663-2.766-2.784-2.884-3.595-7.366-3.812-9.064l-.074,1.3s.368,6.14,3.886,9.771c3.038,3.145,5.042,3.661,6.663,2.766a4.341,4.341,0,0,0,.737-.512c.527-.453.556-1.3.28-2.364A1.159,1.159,0,0,1,621.795,421.018Z" transform="translate(-610.51 -392.836)"/>
      <path id="Path_1002" data-name="Path 1002" d="M654.7,364.09l-3.547,4.1a3.836,3.836,0,0,1-1.061.854h0a3.823,3.823,0,0,1-1.672.46,39.853,39.853,0,0,1-8.593-.475c-4.07-.792-7.123-2.6-9.425-1.569a3.407,3.407,0,0,0-.737.438s-2.022,6.313-1.713,10.611a41.433,41.433,0,0,1,1.713-8.607,3.408,3.408,0,0,1,.737-.438c2.306-1.035,5.355.777,9.425,1.569a40.319,40.319,0,0,0,8.593.475,3.823,3.823,0,0,0,1.672-.46h0a3.835,3.835,0,0,0,1.061-.843l5.454-6.294A2.147,2.147,0,0,1,654.7,364.09Z" transform="translate(-621.509 -363.91)"/>
    </g>
    <path id="Path_1003" data-name="Path 1003" class="cls-12" d="M265.74,486.89a.284.284,0,0,0,.335.044A1.139,1.139,0,0,1,265.74,486.89Z" transform="translate(-213.955 -351.471)"/>
    <path id="Path_1004" data-name="Path 1004" class="cls-13" d="M214.418,289.488c-.663-.192-1.609-.5-2.748-.9a14.407,14.407,0,0,0,2.545-5.127l-.1.037c.033-.114.066-.225.1-.342-2.184.888-4.6-.615-6.14-2.545s-2.578-4.324-4.265-6.1a19.523,19.523,0,0,0-2.261-1.948,3.127,3.127,0,0,0-1.639-.8c-.983-.029-1.753.935-2.7,1.219a3.683,3.683,0,0,1-1.882-.07c-2.442-.56-4.788-1.595-7.281-1.867a8.534,8.534,0,0,0-3.952.446c-1.252.475-1.823,1.422-2.836,2.18-1.1.814-3.263.8-4.549.939a32.6,32.6,0,0,1-4.7.2,11,11,0,0,0-2.7.1c-1.867.409-3.366,1.893-4.766,3.315a2.457,2.457,0,0,0-.788,1.234,1.558,1.558,0,0,0,0,.409,2.656,2.656,0,0,0,.188,1.087,14.364,14.364,0,0,0,1.808,3.6,10.392,10.392,0,0,1,1.562,2.556,4.961,4.961,0,0,1,.239,1.473,10.714,10.714,0,0,1-.166,1.584,19.889,19.889,0,0,1-1.212,4.217,7.661,7.661,0,0,0-.707,2.21,3.52,3.52,0,0,0,0,.471c-.092,2.431,2.361,4.18,2.836,6.6a3.939,3.939,0,0,1,.07.608,4.116,4.116,0,0,1-2.177,3.565c.111.044.225.081.339.118a3.067,3.067,0,0,1-.339.184,6.873,6.873,0,0,0,.707.228,16.426,16.426,0,0,0-3.576,4.42c-4.261,7.933-33.121,23.472-33.121,23.472l.427.243-.346.225c-2.5,1.661-8.357,6.5-3.061,12.629,0,0,4.136-6.526,7.035-9.307.129-.125.258-.239.368-.346a.847.847,0,0,1,.111.67L153.715,329.7s6.744-4.722,8.626-5.786a15.525,15.525,0,0,1,4.276-1.841l-.221.092a8.661,8.661,0,0,1,2.177-.309c3.359.052,7,2.512,8.195,12.253,1.606,13.045.862,15.4.346,15.719a.948.948,0,0,1-.188-.033.321.321,0,0,0,.052.037.986.986,0,0,1-.206-.037.3.3,0,0,0,.28.066.261.261,0,0,0,.21-.026h0a2.172,2.172,0,0,0,.254,0,2.708,2.708,0,0,1-.026.368c-.026,0-.151.07,0,.077h0c-.041.737-.037,1.536,0,2.372-1.668.092-3.337.192-4.788.28l.129-.689.059-.309c1.282-.1,2.5-.479,2.641-1.517.313-2.283-2.821-3.5-5.488-3.654s-18.658.913-18.658.913-2.4,3.1,5.208,4.051l.7.368a84.537,84.537,0,0,1,8.957,6.364l.269.214-.869.707c4.7,1.064,9.252,19.037,11.76,27.254s8,7.918,12.544,6.7c4.261-1.142,4.788-13.517,4.858-15.071V378.1l7.58,9.362.575.711q.331.173.656.324c5.738,2.729,12.077-2.5,10.276-8.471-1.823-6.014-4.652-14.909-6.537-18.669-1.58-3.149-3.62-8.379-4.858-11.653a3.937,3.937,0,0,0,.468-.225s-.029-.147-.077-.416l.077-.04a112.921,112.921,0,0,1-1.923-16.205v-.586c1.37-.313,2.239-.435,2.239-.435l.026-.295-.158.033.762-8.725s2.8-5.955.656-8.434a5.208,5.208,0,0,1-1.256-2.578c-.368-2.28,0-6.084,4.99-9.244,7.683-4.873,10.681-8.839,10.681-8.839S219.122,290.873,214.418,289.488Zm-15.259,6.055V291.51c1.425-.07,2.88.1,4.313,0a10.915,10.915,0,0,0,2.081-.35l.346.239a37.934,37.934,0,0,1-6.74,4.143Zm-21.785,63.215c.564.39,1.131.8,1.687,1.2.346,1.989.652,3.392.674,3.491A27.569,27.569,0,0,0,177.375,358.758Z" transform="translate(-125.1 -215.078)"/>
    <path id="Path_1005" data-name="Path 1005" class="cls-14" d="M270.036,500.32l-.331,1.8-.254,1.377-.464,2.519-4.5,3.149s-.405-.346-1.075-.895a78.888,78.888,0,0,0-8.567-6.261,9.575,9.575,0,0,0-2.353-1.086Z" transform="translate(-205.585 -359.955)"/>
    <path id="Path_1006" data-name="Path 1006" class="cls-5" d="M270.03,500.32l-.331,1.8a14,14,0,0,1-2.969-.151l-10.5.151c-.5-.029-.961-.07-1.4-.114a9.576,9.576,0,0,0-2.353-1.086Z" transform="translate(-205.579 -359.955)"/>
    <path id="Path_1007" data-name="Path 1007" class="cls-15" d="M260.481,495.466s5.252.9,5.55-1.352-2.7-3.436-5.245-3.606-17.855.906-17.855.906-2.7,3.6,7.049,4.2Z" transform="translate(-199.331 -353.746)"/>
    <path id="Path_1008" data-name="Path 1008" class="cls-5" d="M270.036,500.32l-.331,1.8-.254,1.377-.464,2.519-4.5,3.149s-.405-.346-1.075-.895a78.888,78.888,0,0,0-8.567-6.261,9.575,9.575,0,0,0-2.353-1.086Z" transform="translate(-205.585 -359.955)"/>
    <path id="Path_1009" data-name="Path 1009" class="cls-5" d="M270.03,500.32l-.331,1.8a14,14,0,0,1-2.969-.151l-10.5.151c-.5-.029-.961-.07-1.4-.114a9.576,9.576,0,0,0-2.353-1.086Z" transform="translate(-205.579 -359.955)"/>
    <path id="Path_1010" data-name="Path 1010" class="cls-5" d="M260.481,495.466s5.252.9,5.55-1.352-2.7-3.436-5.245-3.606-17.855.906-17.855.906-2.7,3.6,7.049,4.2Z" transform="translate(-199.331 -353.746)"/>
    <rect id="Rectangle_265" data-name="Rectangle 265" class="cls-16" width="27.449" height="32.55" transform="translate(45.174 67.762)"/>
    <rect id="Rectangle_266" data-name="Rectangle 266" class="cls-5" width="27.449" height="32.55" transform="translate(45.174 67.762)"/>
    <path id="Path_1011" data-name="Path 1011" class="cls-14" d="M142.5,449.863a4.4,4.4,0,0,0-1.672,1.182c-2.773,2.74-6.729,9.167-6.729,9.167-5.068-6.033.541-10.8,2.946-12.441.582-.4.972-.611.972-.611Z" transform="translate(-129.499 -326.374)"/>
    <path id="Path_1012" data-name="Path 1012" class="cls-14" d="M274.362,331.09s1.352,9.451,6,11.7-6,6.449-6,6.449l-14.552-5.4s8.25-2.7,6.6-10.651Z" transform="translate(-210.209 -253.053)"/>
    <path id="Path_1013" data-name="Path 1013" class="cls-14" d="M226.906,485.45l-.331,1.8-.254,1.377-.464,2.519-4.5,3.149s-.405-.346-1.075-.895a78.892,78.892,0,0,0-8.567-6.261,9.576,9.576,0,0,0-2.353-1.086Z" transform="translate(-178.34 -350.562)"/>
    <path id="Path_1014" data-name="Path 1014" class="cls-5" d="M226.9,485.45l-.331,1.8a13.991,13.991,0,0,1-2.969-.151l-10.5.151c-.5-.029-.961-.07-1.4-.114a9.574,9.574,0,0,0-2.353-1.086Z" transform="translate(-178.334 -350.562)"/>
    <path id="Path_1015" data-name="Path 1015" class="cls-15" d="M217.3,480.606s5.252.9,5.55-1.352-2.7-3.451-5.252-3.6-17.852.9-17.852.9-2.7,3.6,7.049,4.2Z" transform="translate(-172.054 -344.366)"/>
    <path id="Path_1016" data-name="Path 1016" class="cls-5" d="M245.01,493.907l-.464,2.519-4.5,3.149s-.405-.346-1.075-.895l5.952-4.88Z" transform="translate(-197.045 -355.836)"/>
    <path id="Path_1017" data-name="Path 1017" class="cls-15" d="M273.708,516.8q-.309-.151-.626-.32l-.549-.7-7.248-9.208v.162c-.048,1.528-.571,13.719-4.644,14.843-4.35,1.2-9.6,1.5-12-6.6s-6.751-25.8-11.252-26.849l6.674-5.477s4.42,5.156,6.224,10.121c-.066-.317-3.12-14.574-.6-17.093h21.9s3.374,9.627,5.7,14.4c1.8,3.705,4.512,12.463,6.261,18.389A7.044,7.044,0,0,1,273.708,516.8Z" transform="translate(-196.046 -344.39)"/>
    <path id="Path_1018" data-name="Path 1018" class="cls-5" d="M292.421,446.993c-3.377,2-18.227,1.186-23.067.862l-1.315-.1c-.144,0,.022-.081.022-.081l.136-1.363,3.6-9.149L291.073,426a16.683,16.683,0,0,0-.49,5.042A117.523,117.523,0,0,0,292.421,446.993Z" transform="translate(-215.371 -313.007)"/>
    <path id="Path_1019" data-name="Path 1019" class="cls-17" d="M292.149,445.8c-3.377,2-18.227,1.186-23.067.862l-1.315-.1h-.217l.239-.063,1.186-.313,2.549-10.2L290.8,424.81a16.679,16.679,0,0,0-.49,5.042A117.605,117.605,0,0,0,292.149,445.8Z" transform="translate(-215.099 -312.256)"/>
    <path id="Path_1020" data-name="Path 1020" class="cls-5" d="M290.69,429.78c-3.919.9-12.544,3.558-15.859,9.944-2.21,4.265-4.051,6.1-5.366,6.861l-1.315-.1.022-.081,1.186-.313,2.549-10.2,19.277-11.174A16.683,16.683,0,0,0,290.69,429.78Z" transform="translate(-215.478 -312.199)"/>
    <path id="Path_1021" data-name="Path 1021" class="cls-5" d="M146.542,447.17l4.5,2.7a4.4,4.4,0,0,0-1.672,1.182c-.368-1.1-2.733-2.622-3.8-3.271C146.152,447.384,146.542,447.17,146.542,447.17Z" transform="translate(-138.044 -326.38)"/>
    <path id="Path_1022" data-name="Path 1022" class="cls-5" d="M265.457,484.27a.269.269,0,0,1-.317-.04A1.082,1.082,0,0,0,265.457,484.27Z" transform="translate(-213.576 -349.791)"/>
    <path id="Path_1023" data-name="Path 1023" class="cls-18" d="M199.954,321.9a8.923,8.923,0,0,1-6.9-2.549S181.053,322.8,177,330.6s-31.652,23.1-31.652,23.1,4.788,2.7,4.35,4.051l18.15-10.5s6.449-4.652,8.25-5.7,11.7-7.5,13.8,10.051,0,15.469,0,15.469,3,1.05,7.366-7.366,17.852-10.349,17.852-10.349l.737-8.839s2.678-5.863.626-8.309a5.193,5.193,0,0,1-1.2-2.538c-.343-2.247,0-5.992,4.788-9.1,7.366-4.788,10.2-8.7,10.2-8.7s.151-2.851-4.35-4.2-22.8-8.7-22.8-8.7l-.6,2.549,14.4,10.2s-7.2,5.849-12.891,5.7C204.006,317.4,205.055,321.749,199.954,321.9Z" transform="translate(-137.905 -232.762)"/>
    <path id="Path_1024" data-name="Path 1024" class="cls-5" d="M285.791,335.943a29.463,29.463,0,0,1-.829-3.683l-7.952,2.114a8.765,8.765,0,0,1-.18,4.585,8.552,8.552,0,0,0,8.961-3.02Z" transform="translate(-220.961 -253.792)"/>
    <circle id="Ellipse_121" data-name="Ellipse 121" class="cls-14" cx="8.552" cy="8.552" r="8.552" transform="translate(49.674 67.909)"/>
    <path id="Path_1025" data-name="Path 1025" class="cls-5" d="M255.651,273.871c2.372.269,4.63,1.289,6.965,1.841a3.44,3.44,0,0,0,1.8.07c.906-.28,1.643-1.23,2.578-1.2a2.71,2.71,0,0,1,1.569.792,18.824,18.824,0,0,1,2.162,1.919c1.609,1.749,2.611,4.107,4.081,6.007s3.786,3.381,5.874,2.508c-1.418,5.525-6.073,9.749-11.1,10.091-2.007.136-4.051-.28-6.007.309a5.259,5.259,0,0,1-1.517.368c-1.1,0-2.018-1.028-2.718-2.026-1.635-2.35-2.946-5.016-4.788-7.156a3.914,3.914,0,0,0-2.184-1.51,4.044,4.044,0,0,0-2.416.678,11.47,11.47,0,0,0-3.536,2.453,4.9,4.9,0,0,0-1.193,4.313,10.533,10.533,0,0,1,.737,2.412c0,1.363-1.186,2.361-1.425,3.683a14.218,14.218,0,0,0-.059,1.679,6.851,6.851,0,0,1-2.538,4.453,3.2,3.2,0,0,0-1.16,1.609c-.1.468,0,.965-.063,1.44a2.614,2.614,0,0,1-2.4,1.934,6.961,6.961,0,0,1-3.6-.427,4.14,4.14,0,0,0,2.015-4.42c-.464-2.434-2.91-4.18-2.7-6.663a7.708,7.708,0,0,1,.678-2.191,20.055,20.055,0,0,0,1.156-4.154,7.038,7.038,0,0,0-.07-3.315,10.463,10.463,0,0,0-1.5-2.519,14.3,14.3,0,0,1-1.731-3.547,2.486,2.486,0,0,1-.166-1.171,2.427,2.427,0,0,1,.737-1.215c1.341-1.4,2.777-2.865,4.56-3.271a10.222,10.222,0,0,1,2.578-.1,30.29,30.29,0,0,0,4.5-.191c1.23-.144,3.315-.125,4.353-.928.969-.737,1.517-1.676,2.714-2.147A7.944,7.944,0,0,1,255.651,273.871Z" transform="translate(-192.879 -216.86)"/>
    <path id="Path_1026" data-name="Path 1026" class="cls-5" d="M308.48,513.76s4.95,9.749,3.451,12.751" transform="translate(-240.954 -368.445)"/>
    <path id="Path_1027" data-name="Path 1027" class="cls-5" d="M320.315,565.306l-7.248-9.207v.162s-.42-2.976.961-1.974c3.024,2.188,7.863,5.775,7.966,6.394S321.015,563.781,320.315,565.306Z" transform="translate(-243.814 -393.916)"/>
    <g id="Group_25" data-name="Group 25" class="cls-7" transform="translate(7.596 66.182)">
      <path id="Path_1028" data-name="Path 1028" d="M302.656,348.792s.611,2.534-1.366,3.8a3.4,3.4,0,0,0,3.086-3.922A9.6,9.6,0,0,1,302.656,348.792Z" transform="translate(-244.008 -330.34)"/>
      <path id="Path_1029" data-name="Path 1029" d="M147.414,388.484s27.6-15.3,31.652-23.1c2.906-5.6,9.907-8.953,13.627-10.4-2.714.91-11.848,4.4-15.281,11-4.051,7.8-31.652,23.1-31.652,23.1Z" transform="translate(-145.76 -334.326)"/>
      <path id="Path_1030" data-name="Path 1030" d="M307.805,316.162a32.873,32.873,0,0,0,9.185-5.108l-14.4-10.2.328-1.4-1.377-.552-.6,2.549,14.4,10.2A34.751,34.751,0,0,1,307.805,316.162Z" transform="translate(-243.787 -298.9)"/>
      <path id="Path_1031" data-name="Path 1031" d="M319.83,436.686a35.682,35.682,0,0,1,5.646-1.425l.026-.291a38.207,38.207,0,0,0-5.672,1.716Z" transform="translate(-255.72 -384.855)"/>
      <path id="Path_1032" data-name="Path 1032" d="M251.562,435.029h-.133a.269.269,0,0,1-.317-.041,1.1,1.1,0,0,0,.317.041c.494-.287,1.234-2.527-.317-15.491-1.657-13.841-8.162-12.754-11.723-11.163,3.639-1,8.648-.136,10.073,11.764,1.551,12.964.81,15.207.317,15.491a3.315,3.315,0,0,0,1.783-.6Z" transform="translate(-204.906 -367.483)"/>
      <path id="Path_1033" data-name="Path 1033" d="M267.057,483.871a1.1,1.1,0,0,1-.317-.041A.269.269,0,0,0,267.057,483.871Z" transform="translate(-222.183 -415.72)"/>
    </g>
    <path id="Path_1034" data-name="Path 1034" class="cls-16" d="M255.651,273.081c2.372.269,4.63,1.289,6.965,1.841a3.44,3.44,0,0,0,1.8.07c.906-.28,1.643-1.23,2.578-1.2a2.71,2.71,0,0,1,1.569.792,18.829,18.829,0,0,1,2.162,1.919c1.609,1.749,2.611,4.107,4.081,6.007s3.786,3.381,5.874,2.508c-1.418,5.524-6.073,9.749-11.1,10.091-2.007.136-4.051-.28-6.007.309a5.26,5.26,0,0,1-1.517.368c-1.1,0-2.018-1.028-2.718-2.026-1.635-2.35-2.946-5.016-4.788-7.156a3.914,3.914,0,0,0-2.184-1.51,4.044,4.044,0,0,0-2.416.678,11.47,11.47,0,0,0-3.536,2.453,4.9,4.9,0,0,0-1.193,4.313,10.532,10.532,0,0,1,.737,2.412c0,1.363-1.186,2.361-1.425,3.683a14.218,14.218,0,0,0-.059,1.679,6.851,6.851,0,0,1-2.538,4.453,3.2,3.2,0,0,0-1.16,1.609c-.1.468,0,.965-.063,1.44a2.614,2.614,0,0,1-2.4,1.934,6.961,6.961,0,0,1-3.6-.427,4.14,4.14,0,0,0,2.015-4.42c-.464-2.434-2.91-4.18-2.7-6.663a7.709,7.709,0,0,1,.678-2.191,20.055,20.055,0,0,0,1.156-4.154,7.039,7.039,0,0,0-.07-3.315,10.465,10.465,0,0,0-1.5-2.519,14.3,14.3,0,0,1-1.731-3.547,2.487,2.487,0,0,1-.166-1.171,2.427,2.427,0,0,1,.737-1.215c1.341-1.4,2.777-2.865,4.56-3.271a10.224,10.224,0,0,1,2.578-.1,30.29,30.29,0,0,0,4.5-.191c1.23-.144,3.315-.125,4.353-.928.969-.737,1.517-1.676,2.714-2.147A7.944,7.944,0,0,1,255.651,273.081Z" transform="translate(-192.88 -216.361)"/>
    <path id="Path_1035" data-name="Path 1035" class="cls-19" d="M824.714,204.609h0v-.136a.311.311,0,0,0-.022-.14h-.059v-.306c-.147-3.414-4.869-10.681-6.762-8.559-1.657,1.864.843,6.578,2.118,8.7l.114.192-.063-.041s-5.27,15.719-5.893,16.33-4.961,12.972-10.681,14.364c-1.131.269-2.07.512-2.858.737l.063-.21a22.794,22.794,0,0,0,1.005-3.683c.184-1.341,0-2.965-.678-3.617-.332-.324-.737-.368-1.009-.884a4.079,4.079,0,0,1-.28-1.418l-.486-5.959.339-.1c2.048-.656,4.033-2.21,4.265-4.3a2.2,2.2,0,0,1-.217.07,3.722,3.722,0,0,0,.063-.368c-1.72.678-3.315-1.1-4.972-1.9-2.729-1.337-5.849-.077-8.666.228-3.193.35-6.224-.976-9.487-.737-1.775.136-3.749,1.341-3.654,3.09.055.961.737,1.775,1.016,2.7.707,2.228-.865,4.464-2.243,6.364a9.474,9.474,0,0,0-1.93,4.235c-3.171-3.315-6.6-7.145-7-8.585l-9.174-15.719s-.217.232-.567.575c-.055-.169-.122-.368-.2-.567-1.171-3.282-4.486-11.233-8.688-9.775s1.742,9.609,4.328,12.857l.368.449a1.163,1.163,0,0,1-.656-.029L762.387,226s1.86,3.359,3.565,4.272c0,0,12.71,16.025,12.865,19.229s5.716,11.752,5.716,11.752,1.86,13.889-1.4,16.33h.538q-.232.227-.475.5c-2.412,2.674-5.5,8.4-1.282,18.15,6.2,14.364,7.13,19.991,7.13,19.991s-11.786.611-14.106,1.068c-2.055.405-10.044.689-11.87.737-.652-.759-2.578-2.438-5.178,0-3.256,3.053-5.58,13.259-5.58,13.259s-1.241,8.243,2.946,6.1c0,0,4.961-6.869,6.353-7.174.692-.151,1.425-1.171,1.985-2.155l.029.018h0c.033,0,.169-.074.39-.162h0c1.031-.409,3.871-1.392,6.11-.9a112.524,112.524,0,0,0,12,.317c-1.245,2.983-3.477,10.681-3.477,10.681s-.932,7.178,2.162,6.884c2.21-.217,5.6-5.863,7.366-9.086,1.282-.939,4.954-4.305,7.668-4.051l18.29-7.02s4.339-2.442,2.015-10.53c-1.841-6.431-7.082-19.594-9.152-24.724h0l-.063-.133c-.5-1.241-.8-1.978-.8-1.978h0a30.274,30.274,0,0,1-1.661-7.259c-.018-.2-.033-.394-.048-.589a3.256,3.256,0,0,0,.718-.416s-1.705-17.244,0-19.078h0l.029-.033h0v-.022h0l.029-.037h0l.066-.085h0l.081-.1h0c.092-.122.2-.273.328-.457h0a12.642,12.642,0,0,0,2.272-8.545h0q-.033-.25-.081-.5h0a10.522,10.522,0,0,0-1.061-2.991,8.3,8.3,0,0,1-.136-1.182V245.03a3.546,3.546,0,0,1,.055-.53v-.066a.66.66,0,0,1,.033-.2v-.085a.966.966,0,0,1,.044-.2v-.07c.022-.088.044-.177.074-.265v-.044q.033-.111.074-.217l.033-.085.074-.177.037-.088c.029-.066.063-.133.1-.2l.026-.055q.066-.122.14-.239l.041-.063.122-.173.059-.077.129-.155.059-.066c.066-.07.133-.14.206-.206,2.015-1.842,11-15.413,11-15.413s2.169-3.053,2.169-5.035C821.267,221.275,825.1,208.495,824.714,204.609ZM800.58,318.69c-.221-2.092-.442-4.685-.645-7.366l3.506,5.466S803.11,318.454,800.58,318.69Z" transform="translate(-517.749 -167.085)"/>
    <path id="Path_1036" data-name="Path 1036" class="cls-20" d="M775.256,525.015s-2.1-3.315-5.252-.3-5.4,13.049-5.4,13.049-1.2,8.1,2.851,6c0,0,4.788-6.751,6.151-7.049s2.851-4.051,2.851-4.051Z" transform="translate(-528.983 -374.566)"/>
    <path id="Path_1037" data-name="Path 1037" class="cls-20" d="M841.563,548.489s-2.851-1.352-3.749-.3-3.9,11.55-3.9,11.55-.9,6.9,2.1,6.6,8.25-11.108,8.25-11.108Z" transform="translate(-572.79 -389.942)"/>
    <path id="Path_1038" data-name="Path 1038" class="cls-21" d="M841.563,548.489s-2.851-1.352-3.749-.3-3.9,11.55-3.9,11.55-.9,6.9,2.1,6.6,8.25-11.108,8.25-11.108Z" transform="translate(-572.79 -389.942)"/>
    <path id="Path_1039" data-name="Path 1039" class="cls-22" d="M862.187,462.955l6.449,10.051s-.449,2.25-4.35,1.8l-13.351,8.4s-1.16,10.228,2.549,9.3c.6-.151,4.788-4.5,7.8-4.2l17.7-6.9s4.2-2.4,1.948-10.349-9.69-26.378-9.69-26.378l-11.76,6.578Z" transform="translate(-583.514 -324.807)"/>
    <path id="Path_1040" data-name="Path 1040" class="cls-21" d="M862.187,462.955l6.449,10.051s-.449,2.25-4.35,1.8l-13.351,8.4s-1.16,10.228,2.549,9.3c.6-.151,4.788-4.5,7.8-4.2l17.7-6.9s4.2-2.4,1.948-10.349-9.69-26.378-9.69-26.378l-11.76,6.578Z" transform="translate(-583.514 -324.807)"/>
    <path id="Path_1041" data-name="Path 1041" class="cls-22" d="M826.777,459.246c.9,5.7-4.2,6.151-4.2,6.151s-22.952.449-25.652-.151-6.3,1.05-6.3,1.05c-4.652-2.851-.9-9.9-.9-9.9s9.6-.3,11.852-.737,13.649-1.061,13.649-1.061-.9-5.55-6.9-19.649c-4.077-9.576-1.1-15.211,1.241-17.837a9.879,9.879,0,0,1,2.059-1.812l18.452.9a23.926,23.926,0,0,0,.1,2.788,29.692,29.692,0,0,0,2.449,9.208c-1.05,0-7.8,6.3-7.8,6.3S825.875,453.548,826.777,459.246Z" transform="translate(-544.053 -306.248)"/>
    <path id="Path_1042" data-name="Path 1042" class="cls-5" d="M791.077,457.014s9.6-.3,11.852-.737,13.649-1.05,13.649-1.05-.9-5.55-6.9-19.649c-4.077-9.576-1.1-15.211,1.241-17.837a9.881,9.881,0,0,1,2.059-1.812l17.1.832v-.534l-18.452-.9a9.878,9.878,0,0,0-2.059,1.812c-2.335,2.63-5.318,8.261-1.241,17.837,6.018,14.087,6.909,19.638,6.909,19.638s-11.417.6-13.649,1.05-11.852.737-11.852.737-3.749,7.053.9,9.915c0,0,.14-.066.368-.162C787.906,462.977,791.077,457.014,791.077,457.014Z" transform="translate(-544.056 -306.267)"/>
    <rect id="Rectangle_267" data-name="Rectangle 267" class="cls-20" width="9.3" height="23.549" transform="translate(265.171 53.995)"/>
    <rect id="Rectangle_268" data-name="Rectangle 268" class="cls-5" width="9.3" height="23.549" transform="translate(265.171 53.995)"/>
    <path id="Path_1043" data-name="Path 1043" class="cls-20" d="M877.568,249.6c.32.088.681.1.9.541a3.313,3.313,0,0,1,.217,1.1l.586,7.278a4.047,4.047,0,0,0,.273,1.392c.247.493.656.552.976.869.645.641.832,2.247.656,3.554a23.339,23.339,0,0,1-.972,3.609,33.98,33.98,0,0,1-1.536,5.027c-.7,1.429-1.981,2.21-2.807,1.009s-.714-3.624-.869-5.609c-.258-3.315-1.551-6.173-1.639-9.51-.074-2.7.652-5.219,1.1-7.778.324-1.757.342-3.889.814-5.469C875.664,247.5,876.415,249.285,877.568,249.6Z" transform="translate(-597.78 -199.061)"/>
    <path id="Path_1044" data-name="Path 1044" class="cls-5" d="M877.568,249.6c.32.088.681.1.9.541a3.313,3.313,0,0,1,.217,1.1l.586,7.278a4.047,4.047,0,0,0,.273,1.392c.247.493.656.552.976.869.645.641.832,2.247.656,3.554a23.339,23.339,0,0,1-.972,3.609,33.98,33.98,0,0,1-1.536,5.027c-.7,1.429-1.981,2.21-2.807,1.009s-.714-3.624-.869-5.609c-.258-3.315-1.551-6.173-1.639-9.51-.074-2.7.652-5.219,1.1-7.778.324-1.757.342-3.889.814-5.469C875.664,247.5,876.415,249.285,877.568,249.6Z" transform="translate(-597.78 -199.061)"/>
    <path id="Path_1045" data-name="Path 1045" class="cls-23" d="M760.32,209.268l-3.6,3s-.427-.5-1.064-1.311c-2.5-3.193-8.25-11.2-4.188-12.636s7.274,6.379,8.408,9.605C760.165,208.745,760.32,209.268,760.32,209.268Z" transform="translate(-519.899 -169.074)"/>
    <path id="Path_1046" data-name="Path 1046" class="cls-23" d="M942.568,208.374c-1.5,2.25-3.6,0-3.6,0s-.269-.4-.648-1.05c-1.234-2.088-3.654-6.718-2.051-8.552,1.842-2.1,6.4,5.057,6.545,8.412A2,2,0,0,1,942.568,208.374Z" transform="translate(-637.193 -169.229)"/>
    <path id="Path_1047" data-name="Path 1047" class="cls-23" d="M854.08,287.111s3,9.6,2.1,12.449,6.453,6.162,6.453,6.162h8.4s3-6.151,2.25-7.952-7.2-3.149-7.2-3.149-3.749,0-3.6-10.051Z" transform="translate(-585.609 -223.666)"/>
    <path id="Path_1048" data-name="Path 1048" class="cls-5" d="M769.923,226.041l-3.6,3s-.427-.5-1.064-1.311c1.307-.232,3.337-2.14,4.224-3.031C769.768,225.518,769.923,226.041,769.923,226.041Z" transform="translate(-529.502 -185.846)"/>
    <path id="Path_1049" data-name="Path 1049" class="cls-5" d="M947,223.431c-1.5,2.25-3.6,0-3.6,0s-.269-.4-.648-1.05l.048-.151c.972.7,4,.1,4.445,0A2,2,0,0,1,947,223.431Z" transform="translate(-641.622 -184.286)"/>
    <path id="Path_1050" data-name="Path 1050" class="cls-5" d="M866.625,418.97c-4.641,2.118-19.719-1.654-20.625-1.878a9.881,9.881,0,0,1,2.059-1.812l18.452.9a23.952,23.952,0,0,0,.114,2.792Z" transform="translate(-580.505 -306.235)"/>
    <path id="Path_1051" data-name="Path 1051" class="cls-24" d="M799.444,256.518s-3.6,1.2-8.7-3.451c0,0-11.417-11.252-12.154-13.951l-8.839-15.469S766,227.7,764.5,227.1l9.9,17.251s1.8,3.315,3.451,4.2c0,0,12.3,15.752,12.449,18.9s5.543,11.583,5.543,11.583,1.8,13.649-1.352,16.051c0,0,17.55,4.5,21.3,1.5,0,0-1.65-16.942,0-18.75,0,0,5.1-6,1.65-12.6,0,0-.737-3.6,1.2-5.4s10.651-15.152,10.651-15.152,2.1-3,2.1-4.95c0,0,3.9-13.2,3.315-16.651,0,0-3.451.737-4.5,0,0,0-5.1,15.469-5.7,16.051s-4.788,12.751-10.349,14.1-6.449,1.948-6.449,1.948,10.8,6.751,5.55,9.749S799.444,256.518,799.444,256.518Z" transform="translate(-529.022 -184.823)"/>
    <path id="Path_1052" data-name="Path 1052" class="cls-5" d="M863.108,290.431a28.663,28.663,0,0,1-.217-4.261l-8.4,2.549a11.319,11.319,0,0,1,.527,1.724c.961.424,2.258,1.425,3.374,1.425A7.65,7.65,0,0,0,863.108,290.431Z" transform="translate(-585.868 -224.677)"/>
    <circle id="Ellipse_122" data-name="Ellipse 122" class="cls-23" cx="7.801" cy="7.801" r="7.801" transform="translate(264.57 51.144)"/>
    <path id="Path_1053" data-name="Path 1053" class="cls-5" d="M828.139,246.439c-1.716.133-3.631,1.319-3.536,3.038a11.554,11.554,0,0,0,.983,2.652c.681,2.191-.836,4.39-2.169,6.261s-2.578,4.35-1.436,6.331a15.616,15.616,0,0,0,1.053,1.374c1.411,1.9,1.392,4.475,2.018,6.762a11.863,11.863,0,0,0,13.936,8.471,7.417,7.417,0,0,1-1.565-5.016c.085-1.311.508-2.681,0-3.893-.656-1.558-2.578-2.173-3.569-3.536a5.651,5.651,0,0,1-.446-4.876c.479-1.624,1.307-3.131,1.705-4.788a14.424,14.424,0,0,1,.368-1.433c.692-1.967,2.762-3.108,4.788-3.6s4.154-.519,6.132-1.164,3.9-2.155,4.129-4.228c-1.665.667-3.208-1.072-4.814-1.871-2.644-1.311-5.661-.077-8.386.225C834.227,247.5,831.281,246.211,828.139,246.439Z" transform="translate(-565.049 -199.512)"/>
    <path id="Path_1054" data-name="Path 1054" class="cls-20" d="M827.729,245.629c-1.716.133-3.631,1.318-3.536,3.038a11.551,11.551,0,0,0,.983,2.652c.681,2.191-.836,4.39-2.169,6.261s-2.578,4.35-1.436,6.331a15.6,15.6,0,0,0,1.053,1.374c1.411,1.9,1.392,4.475,2.018,6.762a11.863,11.863,0,0,0,13.937,8.471,7.418,7.418,0,0,1-1.565-5.016c.085-1.311.508-2.681,0-3.893-.656-1.558-2.578-2.173-3.569-3.536A5.651,5.651,0,0,1,833,263.2c.479-1.624,1.307-3.131,1.705-4.788a14.405,14.405,0,0,1,.368-1.433c.693-1.967,2.762-3.108,4.788-3.6s4.154-.519,6.132-1.164,3.9-2.155,4.129-4.228c-1.665.667-3.208-1.072-4.814-1.871-2.644-1.311-5.661-.077-8.386.225C833.824,246.683,830.889,245.382,827.729,245.629Z" transform="translate(-564.79 -199.001)"/>
    <path id="Path_1055" data-name="Path 1055" class="cls-5" d="M885.65,326.3s3.123,2.788,3.738,4.018" transform="translate(-605.552 -250.027)"/>
    <path id="Path_1056" data-name="Path 1056" class="cls-5" d="M883.672,371.51a33.59,33.59,0,0,0-5.7.449c-1.8.449-6.151,0-6.151,0" transform="translate(-596.816 -278.586)"/>
    <g id="Group_26" data-name="Group 26" class="cls-7" transform="translate(235.475 38.246)">
      <path id="Path_1057" data-name="Path 1057" d="M887.33,319.959a3.749,3.749,0,0,1-1.079.413,4.125,4.125,0,0,0,2.88-.413c5.252-3-5.55-9.749-5.55-9.749h-1.8S892.582,316.961,887.33,319.959Z" transform="translate(-838.582 -278.109)"/>
      <path id="Path_1058" data-name="Path 1058" d="M951.924,223.323a1.572,1.572,0,0,0-.037-.273,17.62,17.62,0,0,1-1.867.284A8.271,8.271,0,0,0,951.924,223.323Z" transform="translate(-881.689 -223.05)"/>
      <path id="Path_1059" data-name="Path 1059" d="M796.289,302c3.149-2.4,1.352-16.051,1.352-16.051s-5.4-8.4-5.55-11.55-12.449-18.9-12.449-18.9c-1.65-.9-3.451-4.2-3.451-4.2s-10.2-16.651-11.7-17.251l9.9,17.251s1.8,3.315,3.451,4.2c0,0,12.3,15.752,12.449,18.9s5.547,11.561,5.547,11.561,1.8,13.649-1.352,16.051c0,0,10.788,2.766,17.255,2.516C805.257,304.3,796.289,302,796.289,302Z" transform="translate(-764.49 -229.999)"/>
      <path id="Path_1060" data-name="Path 1060" d="M858.932,313.994l-.089-.114a2.37,2.37,0,0,1-.313.07C858.67,313.968,858.8,313.983,858.932,313.994Z" transform="translate(-823.895 -280.427)"/>
    </g>
    <g id="Group_27" data-name="Group 27" class="cls-7" transform="translate(286.624 38.228)">
      <path id="Path_1061" data-name="Path 1061" d="M925,223l-.092.018c-.158,4.607-3.355,15.432-3.355,15.432,0,1.948-2.1,4.95-2.1,4.95s-8.7,13.351-10.651,15.152-1.2,5.4-1.2,5.4l.018.037a5.446,5.446,0,0,1,1.33-4.239c1.948-1.8,10.651-15.152,10.651-15.152s2.1-3,2.1-4.95C921.7,239.669,925.605,226.469,925,223Z" transform="translate(-905.956 -223)"/>
      <path id="Path_1062" data-name="Path 1062" d="M903.37,353.94c.225,1.274.074-.074.151,1.2,0,0,3.683-4.32,2.677-9.661A13.133,13.133,0,0,1,903.37,353.94Z" transform="translate(-903.37 -300.371)"/>
    </g>
    <ellipse id="Ellipse_123" data-name="Ellipse 123" class="cls-2" cx="157.511" cy="15.13" rx="157.511" ry="15.13" transform="translate(15.5 213.391)"/>
    <path id="Path_1063" data-name="Path 1063" class="cls-25" d="M425.489,598.293s-5.362-18.212,1.005-31.615a28.765,28.765,0,0,0,2.328-18.047,48.378,48.378,0,0,0-2.556-8.471" transform="translate(-313.535 -385.122)"/>
    <path id="Path_1064" data-name="Path 1064" class="cls-26" d="M428.084,509.718c0,2.232-4.051,8.7-4.051,8.7s-4.051-6.471-4.051-8.7a4.051,4.051,0,1,1,8.081,0Z" transform="translate(-311.382 -363.144)"/>
    <path id="Path_1065" data-name="Path 1065" class="cls-26" d="M446.181,539.614c-1.212,1.875-8.121,5.108-8.121,5.108s.125-7.628,1.337-9.5a4.051,4.051,0,1,1,6.784,4.394Z" transform="translate(-322.81 -380.68)"/>
    <path id="Path_1066" data-name="Path 1066" class="cls-26" d="M442.9,594.737c-1.992,1.005-9.576.309-9.576.309s3.959-6.523,5.952-7.528a4.051,4.051,0,1,1,3.639,7.215Z" transform="translate(-319.815 -414.673)"/>
    <path id="Path_1067" data-name="Path 1067" class="cls-26" d="M432.823,639.209c-1.794,1.326-9.4,1.926-9.4,1.926s2.8-7.1,4.6-8.427a4.051,4.051,0,0,1,4.788,6.5Z" transform="translate(-313.562 -443.213)"/>
    <path id="Path_1068" data-name="Path 1068" class="cls-26" d="M412.525,553.524c1.6,1.554,9.06,3.167,9.06,3.167s-1.842-7.406-3.429-8.964a4.051,4.051,0,1,0-5.631,5.8Z" transform="translate(-305.767 -389.047)"/>
    <path id="Path_1069" data-name="Path 1069" class="cls-26" d="M400.157,603.668c1.992,1.005,9.576.309,9.576.309s-3.944-6.523-5.937-7.51a4.051,4.051,0,0,0-3.639,7.215Z" transform="translate(-297.624 -420.495)"/>
    <path id="Path_1070" data-name="Path 1070" class="cls-26" d="M395.821,654.516c1.794,1.326,9.4,1.926,9.4,1.926s-2.8-7.1-4.6-8.427a4.051,4.051,0,1,0-4.788,6.5Z" transform="translate(-294.909 -452.612)"/>
    <path id="Path_1071" data-name="Path 1071" class="cls-2" d="M428.084,509.718c0,2.232-4.051,8.7-4.051,8.7s-4.051-6.471-4.051-8.7a4.051,4.051,0,1,1,8.081,0Z" transform="translate(-311.382 -363.144)"/>
    <path id="Path_1072" data-name="Path 1072" class="cls-2" d="M446.181,539.614c-1.212,1.875-8.121,5.108-8.121,5.108s.125-7.628,1.337-9.5a4.051,4.051,0,1,1,6.784,4.394Z" transform="translate(-322.81 -380.68)"/>
    <path id="Path_1073" data-name="Path 1073" class="cls-2" d="M442.9,594.737c-1.992,1.005-9.576.309-9.576.309s3.959-6.523,5.952-7.528a4.051,4.051,0,1,1,3.639,7.215Z" transform="translate(-319.815 -414.673)"/>
    <path id="Path_1074" data-name="Path 1074" class="cls-2" d="M432.823,639.209c-1.794,1.326-9.4,1.926-9.4,1.926s2.8-7.1,4.6-8.427a4.051,4.051,0,0,1,4.788,6.5Z" transform="translate(-313.562 -443.213)"/>
    <path id="Path_1075" data-name="Path 1075" class="cls-2" d="M412.525,553.524c1.6,1.554,9.06,3.167,9.06,3.167s-1.842-7.406-3.429-8.964a4.051,4.051,0,1,0-5.631,5.8Z" transform="translate(-305.767 -389.047)"/>
    <path id="Path_1076" data-name="Path 1076" class="cls-2" d="M400.157,603.668c1.992,1.005,9.576.309,9.576.309s-3.944-6.523-5.937-7.51a4.051,4.051,0,0,0-3.639,7.215Z" transform="translate(-297.624 -420.495)"/>
    <path id="Path_1077" data-name="Path 1077" class="cls-2" d="M395.821,654.516c1.794,1.326,9.4,1.926,9.4,1.926s-2.8-7.1-4.6-8.427a4.051,4.051,0,1,0-4.788,6.5Z" transform="translate(-294.909 -452.612)"/>
    <path id="Path_1078" data-name="Path 1078" class="cls-25" d="M720.129,599s-5.362-18.213,1.005-31.615a28.764,28.764,0,0,0,2.328-18.047,48.378,48.378,0,0,0-2.556-8.471" transform="translate(-499.659 -385.571)"/>
    <path id="Path_1079" data-name="Path 1079" class="cls-26" d="M722.723,511.444c0,2.232-4.051,8.7-4.051,8.7s-4.051-6.471-4.051-8.7a4.051,4.051,0,0,1,8.08,0Z" transform="translate(-497.512 -364.612)"/>
    <path id="Path_1080" data-name="Path 1080" class="cls-26" d="M740.831,540.314c-1.212,1.875-8.121,5.108-8.121,5.108s.125-7.628,1.337-9.5a4.051,4.051,0,1,1,6.784,4.394Z" transform="translate(-508.94 -381.122)"/>
    <path id="Path_1081" data-name="Path 1081" class="cls-26" d="M737.576,595.425c-1.992,1.005-9.576.309-9.576.309s3.959-6.523,5.952-7.528a4.051,4.051,0,1,1,3.624,7.219Z" transform="translate(-505.965 -415.103)"/>
    <path id="Path_1082" data-name="Path 1082" class="cls-26" d="M727.463,639.91c-1.794,1.326-9.4,1.926-9.4,1.926s2.8-7.1,4.6-8.427a4.051,4.051,0,0,1,4.788,6.5Z" transform="translate(-499.685 -443.655)"/>
    <path id="Path_1083" data-name="Path 1083" class="cls-26" d="M707.184,554.224c1.6,1.554,9.06,3.167,9.06,3.167s-1.841-7.406-3.429-8.964a4.051,4.051,0,1,0-5.631,5.8Z" transform="translate(-491.904 -389.489)"/>
    <path id="Path_1084" data-name="Path 1084" class="cls-26" d="M694.772,604.336c1.992,1.005,9.576.309,9.576.309s-3.959-6.523-5.952-7.528a4.051,4.051,0,0,0-3.639,7.215Z" transform="translate(-483.723 -420.906)"/>
    <path id="Path_1085" data-name="Path 1085" class="cls-26" d="M691.466,655.95c1.794,1.326,9.4,1.926,9.4,1.926s-2.8-7.1-4.6-8.427a4.051,4.051,0,0,0-4.788,6.5Z" transform="translate(-482.034 -453.788)"/>
    <path id="Path_1086" data-name="Path 1086" class="cls-2" d="M722.723,511.444c0,2.232-4.051,8.7-4.051,8.7s-4.051-6.471-4.051-8.7a4.051,4.051,0,0,1,8.08,0Z" transform="translate(-497.512 -364.612)"/>
    <path id="Path_1087" data-name="Path 1087" class="cls-2" d="M740.831,540.314c-1.212,1.875-8.121,5.108-8.121,5.108s.125-7.628,1.337-9.5a4.051,4.051,0,1,1,6.784,4.394Z" transform="translate(-508.94 -381.122)"/>
    <path id="Path_1088" data-name="Path 1088" class="cls-2" d="M737.576,595.425c-1.992,1.005-9.576.309-9.576.309s3.959-6.523,5.952-7.528a4.051,4.051,0,1,1,3.624,7.219Z" transform="translate(-505.965 -415.103)"/>
    <path id="Path_1089" data-name="Path 1089" class="cls-2" d="M727.463,639.91c-1.794,1.326-9.4,1.926-9.4,1.926s2.8-7.1,4.6-8.427a4.051,4.051,0,0,1,4.788,6.5Z" transform="translate(-499.685 -443.655)"/>
    <path id="Path_1090" data-name="Path 1090" class="cls-2" d="M707.184,554.224c1.6,1.554,9.06,3.167,9.06,3.167s-1.841-7.406-3.429-8.964a4.051,4.051,0,1,0-5.631,5.8Z" transform="translate(-491.904 -389.489)"/>
    <path id="Path_1091" data-name="Path 1091" class="cls-2" d="M694.772,604.336c1.992,1.005,9.576.309,9.576.309s-3.959-6.523-5.952-7.528a4.051,4.051,0,0,0-3.639,7.215Z" transform="translate(-483.723 -420.906)"/>
    <path id="Path_1092" data-name="Path 1092" class="cls-2" d="M691.466,655.95c1.794,1.326,9.4,1.926,9.4,1.926s-2.8-7.1-4.6-8.427a4.051,4.051,0,0,0-4.788,6.5Z" transform="translate(-482.034 -453.788)"/>
    <path id="Path_1093" data-name="Path 1093" class="cls-27" d="M754.369,128.994h-2.313a1.621,1.621,0,1,0,0-3.237H733.3a1.621,1.621,0,0,0,0,3.237h2.313a1.621,1.621,0,0,0,0,3.237h-3.237a1.621,1.621,0,1,0,0,3.237h18.739a1.621,1.621,0,1,0,0-3.237h3.252a1.621,1.621,0,0,0,0-3.237Z" transform="translate(-507.658 -123.343)"/>
    <path id="Path_1094" data-name="Path 1094" class="cls-27" d="M469.863,155.961H468.1a1.234,1.234,0,1,0,0-2.464H453.842a1.234,1.234,0,0,0,0,2.464h1.76a1.234,1.234,0,1,0,0,2.464h-2.464a1.234,1.234,0,1,0,0,2.464H467.4a1.234,1.234,0,1,0,0-2.464h2.464a1.234,1.234,0,0,0,0-2.464Z" transform="translate(-331.513 -140.866)"/>
    <path id="Path_1095" data-name="Path 1095" class="cls-28" d="M174.025,634s6.445,12.651,1.193,19.571.479,25.781.479,25.781" transform="translate(-155.373 -444.401)"/>
    <path id="Path_1096" data-name="Path 1096" class="cls-26" d="M174.86,615.68a7.454,7.454,0,0,1-1.79,4.42,6.351,6.351,0,0,1,0-8.839A7.455,7.455,0,0,1,174.86,615.68Z" transform="translate(-154.285 -430.036)"/>
    <path id="Path_1097" data-name="Path 1097" class="cls-28" d="M179.269,634s-6.445,12.651-1.193,19.571-.479,25.781-.479,25.781" transform="translate(-157.276 -444.401)"/>
    <path id="Path_1098" data-name="Path 1098" class="cls-26" d="M179.67,615.68a7.454,7.454,0,0,0,1.79,4.42,6.351,6.351,0,0,0,0-8.839A7.455,7.455,0,0,0,179.67,615.68Z" transform="translate(-159.585 -430.036)"/>
    <path id="Path_1099" data-name="Path 1099" class="cls-5" d="M179.67,615.68a7.454,7.454,0,0,0,1.79,4.42,6.351,6.351,0,0,0,0-8.839A7.455,7.455,0,0,0,179.67,615.68Z" transform="translate(-159.585 -430.036)"/>
    <path id="Path_1100" data-name="Path 1100" class="cls-28" d="M190.245,634s6.445,12.651,1.193,19.571.479,25.781.479,25.781" transform="translate(-165.619 -444.401)"/>
    <path id="Path_1101" data-name="Path 1101" class="cls-26" d="M191.03,615.68a7.454,7.454,0,0,1-1.79,4.42,6.351,6.351,0,0,1,0-8.839A7.455,7.455,0,0,1,191.03,615.68Z" transform="translate(-164.499 -430.036)"/>
    <path id="Path_1102" data-name="Path 1102" class="cls-26" d="M186.973,643.2a7.442,7.442,0,0,1-4.353,1.941,6.341,6.341,0,0,1,6.125-6.361A7.52,7.52,0,0,1,186.973,643.2Z" transform="translate(-161.448 -447.42)"/>
    <path id="Path_1103" data-name="Path 1103" class="cls-26" d="M187.433,666.9a7.441,7.441,0,0,1-4.353,1.941,6.341,6.341,0,0,1,6.125-6.361A7.436,7.436,0,0,1,187.433,666.9Z" transform="translate(-161.739 -462.392)"/>
    <path id="Path_1104" data-name="Path 1104" class="cls-26" d="M162.716,683.8a7.437,7.437,0,0,1,1.543,4.508,6.343,6.343,0,0,1-5.79-6.67A7.439,7.439,0,0,1,162.716,683.8Z" transform="translate(-146.192 -474.495)"/>
    <path id="Path_1105" data-name="Path 1105" class="cls-26" d="M165.99,635.277a7.44,7.44,0,0,1,2.692,3.933,6.34,6.34,0,0,1-7.362-4.88A7.365,7.365,0,0,1,165.99,635.277Z" transform="translate(-147.993 -444.573)"/>
    <path id="Path_1106" data-name="Path 1106" class="cls-5" d="M165.99,635.277a7.44,7.44,0,0,1,2.692,3.933,6.34,6.34,0,0,1-7.362-4.88A7.365,7.365,0,0,1,165.99,635.277Z" transform="translate(-147.993 -444.573)"/>
    <path id="Path_1107" data-name="Path 1107" class="cls-28" d="M195.469,634s-6.445,12.651-1.193,19.571-.479,25.781-.479,25.781" transform="translate(-167.51 -444.401)"/>
    <path id="Path_1108" data-name="Path 1108" class="cls-26" d="M195.87,615.68a7.454,7.454,0,0,0,1.79,4.42,6.351,6.351,0,0,0,0-8.839A7.455,7.455,0,0,0,195.87,615.68Z" transform="translate(-169.818 -430.036)"/>
    <path id="Path_1109" data-name="Path 1109" class="cls-5" d="M195.87,615.68a7.454,7.454,0,0,0,1.79,4.42,6.351,6.351,0,0,0,0-8.839A7.455,7.455,0,0,0,195.87,615.68Z" transform="translate(-169.818 -430.036)"/>
    <path id="Path_1110" data-name="Path 1110" class="cls-26" d="M194.112,648.049a7.543,7.543,0,0,0-1.842,4.42,7.431,7.431,0,0,0,4.375-1.889,7.542,7.542,0,0,0,1.842-4.42A7.431,7.431,0,0,0,194.112,648.049Z" transform="translate(-167.544 -452.082)"/>
    <path id="Path_1111" data-name="Path 1111" class="cls-5" d="M194.112,648.049a7.543,7.543,0,0,0-1.842,4.42,7.431,7.431,0,0,0,4.375-1.889,7.542,7.542,0,0,0,1.842-4.42A7.431,7.431,0,0,0,194.112,648.049Z" transform="translate(-167.544 -452.082)"/>
    <path id="Path_1112" data-name="Path 1112" class="cls-26" d="M203.221,680.859a7.542,7.542,0,0,0-1.841,4.42,7.431,7.431,0,0,0,4.375-1.889,7.542,7.542,0,0,0,1.842-4.42A7.407,7.407,0,0,0,203.221,680.859Z" transform="translate(-173.299 -472.808)"/>
    <path id="Path_1113" data-name="Path 1113" class="cls-28" d="M193,666.151s3.878-6.114,9.325-6.261" transform="translate(-168.005 -460.755)"/>
    <path id="Path_1114" data-name="Path 1114" class="cls-28" d="M168.775,656.121s-3.878-6.114-9.325-6.261" transform="translate(-146.812 -454.419)"/>
    <path id="Path_1115" data-name="Path 1115" class="cls-28" d="M183.4,679.821s3.878-6.114,9.325-6.261" transform="translate(-161.941 -469.391)"/>
    <circle id="Ellipse_124" data-name="Ellipse 124" class="cls-26" cx="1.005" cy="1.005" r="1.005" transform="translate(33.127 198.096)"/>
    <circle id="Ellipse_125" data-name="Ellipse 125" class="cls-26" cx="1.005" cy="1.005" r="1.005" transform="translate(11.728 194.487)"/>
    <path id="Path_1116" data-name="Path 1116" class="cls-28" d="M175.155,685.261s-3.878-6.114-9.325-6.261" transform="translate(-150.842 -472.827)"/>
    <circle id="Ellipse_126" data-name="Ellipse 126" class="cls-26" cx="1.005" cy="1.005" r="1.005" transform="translate(14.078 205.226)"/>
    <circle id="Ellipse_127" data-name="Ellipse 127" class="cls-26" cx="1.005" cy="1.005" r="1.005" transform="translate(29.853 203.215)"/>
    <path id="Path_1117" data-name="Path 1117" class="cls-29" d="M186.425,721.4s-9.347-1.871-11.845-4.364-13.708-6.854-14.957-3.738-16.828,13.712-6.232,15.583,24.93,2.493,28.046,1.245S186.425,721.4,186.425,721.4Z" transform="translate(-140.665 -493.809)"/>
    <path id="Path_1118" data-name="Path 1118" class="cls-30" d="M153.4,743.356c10.6,1.871,24.93,2.493,28.046,1.245,2.372-.95,4.022-5.524,4.674-7.631l.313.066s-1.871,7.48-4.987,8.725-17.45.622-28.046-1.245c-3.057-.541-3.933-1.808-3.6-3.411C150.055,742.137,151.123,742.955,153.4,743.356Z" transform="translate(-140.672 -509.447)"/>
    <path id="Path_1119" data-name="Path 1119" class="cls-26" d="M1005.367,641.78s3.086,4.051-1.425,10.128-8.232,11.237-6.725,15.038c0,0,6.806-11.318,12.345-11.476S1011.462,648.583,1005.367,641.78Z" transform="translate(-675.813 -449.315)"/>
    <path id="Path_1120" data-name="Path 1120" class="cls-5" d="M1005.666,641.78a5,5,0,0,1,.63,1.267c5.407,6.349,8.283,12.275,3.09,12.426-4.839.14-10.644,8.791-12.036,10.979a4.7,4.7,0,0,0,.166.5s6.806-11.318,12.345-11.476S1011.762,648.583,1005.666,641.78Z" transform="translate(-676.113 -449.315)"/>
    <path id="Path_1121" data-name="Path 1121" class="cls-31" d="M1034.247,654.191c0,1.422-.158,2.578-.368,2.578s-.368-1.153-.368-2.578.2-.737.394-.737S1034.247,652.773,1034.247,654.191Z" transform="translate(-698.955 -456.585)"/>
    <path id="Path_1122" data-name="Path 1122" class="cls-31" d="M1036.686,658.682c-1.249.681-2.335,1.1-2.427.917s.84-.865,2.088-1.543.755-.184.851,0S1037.931,658,1036.686,658.682Z" transform="translate(-699.424 -459.378)"/>
    <path id="Path_1123" data-name="Path 1123" class="cls-32" d="M963.789,641.78s-3.086,4.051,1.425,10.128,8.231,11.237,6.725,15.038c0,0-6.806-11.318-12.345-11.476S957.694,648.583,963.789,641.78Z" transform="translate(-650.537 -449.315)"/>
    <path id="Path_1124" data-name="Path 1124" class="cls-5" d="M963.789,641.78a5,5,0,0,0-.63,1.267c-5.407,6.349-8.283,12.275-3.09,12.426,4.839.14,10.644,8.791,12.036,10.979a4.66,4.66,0,0,1-.166.5s-6.806-11.318-12.345-11.476S957.694,648.583,963.789,641.78Z" transform="translate(-650.537 -449.315)"/>
    <path id="Path_1125" data-name="Path 1125" class="cls-31" d="M960.09,654.191c0,1.422.158,2.578.368,2.578s.368-1.153.368-2.578-.2-.737-.394-.737S960.09,652.773,960.09,654.191Z" transform="translate(-652.576 -456.585)"/>
    <path id="Path_1126" data-name="Path 1126" class="cls-31" d="M953.434,658.682c1.249.681,2.335,1.1,2.427.917s-.84-.865-2.088-1.543-.755-.184-.851,0S952.186,658,953.434,658.682Z" transform="translate(-647.891 -459.378)"/>
    <path id="Path_1127" data-name="Path 1127" class="cls-29" d="M962.76,700.676s8.629-.265,11.229-2.118,13.259-4.051,13.918-1.1,12.968,14.772,3.226,14.85-22.636-1.517-25.232-3.1S962.76,700.676,962.76,700.676Z" transform="translate(-654.262 -483.575)"/>
    <path id="Path_1128" data-name="Path 1128" class="cls-30" d="M991.307,719.264c-9.742.077-22.636-1.517-25.232-3.1-1.978-1.2-2.766-5.525-3.027-7.517h-.287s.545,6.961,3.142,8.541,15.491,3.178,25.232,3.1c2.814-.022,3.782-1.024,3.731-2.5C994.474,718.686,993.417,719.246,991.307,719.264Z" transform="translate(-654.262 -491.557)"/>
    <path id="Path_1129" data-name="Path 1129" class="cls-27" d="M262.6,188.324h-2.313a1.621,1.621,0,1,0,0-3.237H241.548a1.621,1.621,0,0,0,0,3.237h2.313a1.621,1.621,0,0,0,0,3.237h-3.237a1.621,1.621,0,0,0,0,3.237h18.739a1.621,1.621,0,1,0,0-3.237H262.6a1.621,1.621,0,0,0,0-3.237Z" transform="translate(-197.114 -160.821)"/>
  </g>
</svg>
