<svg xmlns="http://www.w3.org/2000/svg" xmlns:xlink="http://www.w3.org/1999/xlink" width="685.02" height="447.462" viewBox="0 0 685.02 447.462">
  <defs>
    <linearGradient id="linear-gradient" x1="-0.03" y1="0.503" x2="0.97" y2="0.503" gradientUnits="objectBoundingBox">
      <stop offset="0" stop-color="gray" stop-opacity="0.251"/>
      <stop offset="0.54" stop-color="gray" stop-opacity="0.122"/>
      <stop offset="1" stop-color="gray" stop-opacity="0.102"/>
    </linearGradient>
  </defs>
  <g id="undraw_pair_programming_njlp_1_" data-name="undraw_pair_programming_njlp (1)" transform="translate(0)">
    <path id="Path_441" data-name="Path 441" d="M389.277,161.391c-43.263,7.311-86.466,4.177-128.026-.382s-83.017-10.511-126.3-8.717c-27.842,1.152-58.848,6.668-78.289,22.7C37.951,190.415,35.036,211.226,35,230.011c-.048,14.13,1.176,28.751,11.19,40.008,6.959,7.808,17.67,13.4,25.739,20.61C100,315.665,91.465,355.085,73.043,388.6c-8.644,15.724-19.216,31.188-25.1,47.282s-6.668,33.34,3.867,46.464c10.438,13.015,30.63,20.35,51.683,24.15,42.76,7.723,90.4,2.928,136.494-3.57C342,488.494,442.96,465.992,543.7,443.545c37.274-8.311,74.712-16.658,110.622-28.636,19.943-6.668,40.25-14.967,53.132-27.884,16.367-16.367,16.779-38.753,1.006-52.132C682,312.464,622.094,317.441,601.623,291.8c-11.263-14.118-6.359-33.292,2.607-50.228,19.222-36.322,56.375-72.209,51.562-108.422-3.322-24.853-28.666-45.421-62.637-50.78-35.607-5.613-81.338,5.031-101.839,30.042C470.238,138.181,427.478,154.917,389.277,161.391Z" transform="translate(-34.998 -80.906)" fill="#fff" opacity="0.1"/>
    <rect id="Rectangle_51" data-name="Rectangle 51" width="171.81" height="39.784" transform="translate(218.203 217.78)" fill="#565661"/>
    <rect id="Rectangle_52" data-name="Rectangle 52" width="171.81" height="39.784" transform="translate(218.203 217.78)" opacity="0.1"/>
    <path id="Path_442" data-name="Path 442" d="M383.127,427.03l1.206,106.209-16.525,41.718L366.53,427.03Z" transform="translate(-144.369 -168.157)" fill="#bcbec9"/>
    <path id="Path_443" data-name="Path 443" d="M362.99,371.84l167.276,1.006v29.63H362.99Z" transform="translate(-142.975 -146.422)" fill="#565661"/>
    <path id="Path_444" data-name="Path 444" d="M615.33,427.03l14.312,2.019v144.3L615.33,529.208Z" transform="translate(-242.35 -168.157)" fill="#bcbec9"/>
    <rect id="Rectangle_53" data-name="Rectangle 53" width="80.616" height="171.307" transform="translate(392.729 219.374)" fill="#efeff0"/>
    <rect id="Rectangle_54" data-name="Rectangle 54" width="67.717" height="131.681" transform="translate(399.179 224.133)" fill="#565661"/>
    <rect id="Rectangle_55" data-name="Rectangle 55" width="67.717" height="131.681" transform="translate(399.179 224.133)" opacity="0.1"/>
    <rect id="Rectangle_56" data-name="Rectangle 56" width="67.717" height="29.224" transform="translate(399.179 226.83)" fill="#565661"/>
    <rect id="Rectangle_57" data-name="Rectangle 57" width="67.717" height="62.073" transform="translate(399.179 258.873)" fill="#565661"/>
    <rect id="Rectangle_58" data-name="Rectangle 58" width="67.717" height="62.073" transform="translate(399.179 324.777)" fill="#565661"/>
    <rect id="Rectangle_59" data-name="Rectangle 59" width="67.717" height="62.073" transform="translate(399.179 324.777)" opacity="0.1"/>
    <ellipse id="Ellipse_57" data-name="Ellipse 57" cx="4.365" cy="5.577" rx="4.365" ry="5.577" transform="translate(397.639 390.681)" fill="#565661"/>
    <ellipse id="Ellipse_58" data-name="Ellipse 58" cx="4.365" cy="5.577" rx="4.365" ry="5.577" transform="translate(458.166 390.948)" fill="#565661"/>
    <path id="Path_445" data-name="Path 445" d="M355.987,550.261h5.844L360.224,364.32H351.35Z" transform="translate(-138.391 -143.461)" fill="#efeff0"/>
    <path id="Path_446" data-name="Path 446" d="M638.94,361.87V547.683h5.438V363.355Z" transform="translate(-251.648 -142.496)" fill="#efeff0"/>
    <path id="Path_447" data-name="Path 447" d="M366.46,419.38v6.656H531.633V421.2Z" transform="translate(-144.341 -165.144)" fill="#efeff0"/>
    <path id="Path_448" data-name="Path 448" d="M371.052,341.26h209.4l30.43,10.075v5.844L349.69,355.166v-5.947Z" transform="translate(-137.737 -134.379)" fill="#fff"/>
    <path id="Path_449" data-name="Path 449" d="M349.69,354.39l261.192,2.116v5.844L349.69,360.337Z" transform="translate(-137.737 -139.55)" fill="#bcbec9"/>
    <path id="Path_450" data-name="Path 450" d="M422.814,548.872l-1.212-.182v-.152c-.036-.285-.079-.564-.121-.849.5.394.97.788,1.406,1.182Z" transform="translate(-187.201 -264.733)" fill="url(#linear-gradient)"/>
    <path id="Path_451" data-name="Path 451" d="M374.611,703.333c.788-.182,1.588-.333,2.388-.443a28.745,28.745,0,0,1,16.137,2.376c-.509,3.746-1.012,7.62.067,11.239.752,2.546,2.261,4.849,2.582,7.5a4.425,4.425,0,0,1,3.486,3.079,6.7,6.7,0,0,1,.345,2.158,11.511,11.511,0,0,1-.339,2.691,2.716,2.716,0,0,1-2.91,2.425c-4.692.533-9.293-1.315-13.657-3.128l-8.487-3.528c-.994-.412-1.994-.83-2.946-1.34a16.143,16.143,0,0,1-4.722-3.861,2.152,2.152,0,0,1-.564-1.018c-.158-1.067,1.091-1.7,1.885-2.425a3.778,3.778,0,0,0,.606-.74c.94-1.418,1.031-3.376,1.594-5.049,1.334-3.97,5.456-6.529,6.91-10.4.079-.212.152-.424.212-.643" transform="translate(-165.343 -325.594)" fill="#a26565"/>
    <path id="Path_452" data-name="Path 452" d="M399.616,739.7a11.512,11.512,0,0,1-.339,2.691,2.716,2.716,0,0,1-2.91,2.425c-4.692.533-9.293-1.315-13.657-3.128l-8.487-3.528c-.994-.412-1.994-.831-2.946-1.34a16.143,16.143,0,0,1-4.722-3.861,2.152,2.152,0,0,1-.564-1.018c-.158-1.067,1.091-1.7,1.885-2.425a3.777,3.777,0,0,0,.606-.74c2.34.5,5.243,1.976,7.032,2.546a21.351,21.351,0,0,1,5.116,2.14c2.231,1.431,3.837,3.637,5.728,5.456s4.334,3.473,6.971,3.249a11.52,11.52,0,0,0,3.964-1.37Z" transform="translate(-165.343 -336.05)" opacity="0.1"/>
    <path id="Path_453" data-name="Path 453" d="M394.378,600.831a2.807,2.807,0,0,1-1.03,3.031c-.794.491-1.819.424-2.607.958-.976.685-1.115,2.043-1.285,3.219-.606,4.043-2.613,7.711-4.328,11.427s-3.164,7.771-2.534,11.808c.43,2.74,1.776,5.662.515,8.129-.309.606-.77,1.146-1.121,1.734-1.728,2.885-.746,6.541-.812,9.9a1.959,1.959,0,0,1-.236,1.073,2.964,2.964,0,0,1-.958.739,5.08,5.08,0,0,0-2.067,3.9,14.894,14.894,0,0,0,.546,4.522,2.691,2.691,0,0,0,.746,1.576,2.788,2.788,0,0,0,1.631.461A36.272,36.272,0,0,1,391.905,666a35.894,35.894,0,0,0,6.971,2.619,1.818,1.818,0,0,0,1.431-.151,1.97,1.97,0,0,0,.606-1.049c.94-3.092,1.891-6.28,1.57-9.493-.139-1.382-.509-2.734-.606-4.116-.424-5.456,3.267-10.378,4.437-15.761.527-2.425.527-4.934.9-7.383,1.018-6.71,4.716-12.73,6.141-19.368a21.051,21.051,0,0,1,.921-3.637c1.061-2.57,3.516-4.655,3.57-7.438a2.9,2.9,0,0,0-.461-1.734,3.928,3.928,0,0,0-2.164-1.212,73.871,73.871,0,0,0-10.032-2.025,19,19,0,0,0-4.716-.327,13.882,13.882,0,0,0-5.771,2.037C392.366,598.4,393.869,598.746,394.378,600.831Z" transform="translate(-170.041 -283.322)" fill="#454b69"/>
    <path id="Path_454" data-name="Path 454" d="M394.378,600.831a2.807,2.807,0,0,1-1.03,3.031c-.794.491-1.819.424-2.607.958-.976.685-1.115,2.043-1.285,3.219-.606,4.043-2.613,7.711-4.328,11.427s-3.164,7.771-2.534,11.808c.43,2.74,1.776,5.662.515,8.129-.309.606-.77,1.146-1.121,1.734-1.728,2.885-.746,6.541-.812,9.9a1.959,1.959,0,0,1-.236,1.073,2.964,2.964,0,0,1-.958.739,5.08,5.08,0,0,0-2.067,3.9,14.894,14.894,0,0,0,.546,4.522,2.691,2.691,0,0,0,.746,1.576,2.788,2.788,0,0,0,1.631.461A36.272,36.272,0,0,1,391.905,666a35.894,35.894,0,0,0,6.971,2.619,1.818,1.818,0,0,0,1.431-.151,1.97,1.97,0,0,0,.606-1.049c.94-3.092,1.891-6.28,1.57-9.493-.139-1.382-.509-2.734-.606-4.116-.424-5.456,3.267-10.378,4.437-15.761.527-2.425.527-4.934.9-7.383,1.018-6.71,4.716-12.73,6.141-19.368a21.051,21.051,0,0,1,.921-3.637c1.061-2.57,3.516-4.655,3.57-7.438a2.9,2.9,0,0,0-.461-1.734,3.928,3.928,0,0,0-2.164-1.212,73.871,73.871,0,0,0-10.032-2.025,19,19,0,0,0-4.716-.327,13.882,13.882,0,0,0-5.771,2.037C392.366,598.4,393.869,598.746,394.378,600.831Z" transform="translate(-170.041 -283.322)" opacity="0.05"/>
    <path id="Path_455" data-name="Path 455" d="M344.84,625.751h-5.171l-3.382-69.493-.236-3.952,4.395-1.546.3,4.2Z" transform="translate(-132.365 -216.884)" fill="#565661"/>
    <path id="Path_456" data-name="Path 456" d="M340.742,554.961l-4.455,1.3-.236-3.952,4.395-1.546Z" transform="translate(-132.365 -216.884)" opacity="0.1"/>
    <path id="Path_457" data-name="Path 457" d="M359.846,628.428l-8.529,1.031-39.293-89.176-10.6-.776-18.61,5.431L279.2,651.111h-8.529l3.358-110.053-20.422.521L217.163,632.3H209.41l38.329-106.027,1.479-4.086,57.121-1.958,14.239,7.983.182.461Z" transform="translate(-82.492 -204.861)" fill="#565661"/>
    <path id="Path_458" data-name="Path 458" d="M380.621,609.6c-12.275,3.7-25.017,7.735-25.017,7.735s-11.621,4.055-16.543,0a7.437,7.437,0,0,0-2.055-1.134,10.119,10.119,0,0,0,2.055,1.134L307.6,607.2l1.473-4.08L366.2,601.16l14.239,7.983Z" transform="translate(-142.353 -285.791)" opacity="0.1"/>
    <path id="Path_459" data-name="Path 459" d="M332.206,582.7l23.259-5.171s55.575,10.341,59.709,14.476c0,0-44.457,9.044-49.368,12.124S331.684,610.615,332.206,582.7Z" transform="translate(-152.041 -276.485)" fill="#fff"/>
    <path id="Path_460" data-name="Path 460" d="M305.2,455.516c-1.819,5.765-6.783,10.96-12.827,11.208a2.237,2.237,0,0,1-1.279-.23,2.025,2.025,0,0,1-.467-2.425,10.488,10.488,0,0,0,.934-2.485,1.626,1.626,0,0,0-.036-.54c-.158-.721-.746-1.364-1.437-1.212a2.425,2.425,0,0,0,.515-3.219,7.272,7.272,0,0,1-.74-.994c-.5-1.031.279-2.188.606-3.292.673-2.425-1.037-4.849-1.176-7.377-.121-2.261,1.024-4.389,1.309-6.632.455-3.637-1.352-7.123-1.564-10.754a22.773,22.773,0,0,1,1.176-7.486,27.065,27.065,0,0,0,1.334-6.668c0-1.655-.285-3.292-.364-4.94a8.6,8.6,0,0,1,.794-4.389,3.51,3.51,0,0,1,1.994-1.7c1.988-.667,3.292.37,3.583,2.255.485,3.207.206,6.48.843,9.7a45.463,45.463,0,0,0,2.661,8.784c1.073,2.558,2.376,5.031,3.2,7.68a42.306,42.306,0,0,1,1.328,6.668C306.4,443.52,307.034,449.751,305.2,455.516Z" transform="translate(-135.034 -207.427)" fill="#070707"/>
    <path id="Path_461" data-name="Path 461" d="M522.427,721.611a9.4,9.4,0,0,1-6.626,3.9c-2.631.327-5.365-.333-7.917.388a2.425,2.425,0,0,0-1.819,1.4q-.095.739-.115,1.485c-.3,1.619-2.425,1.982-4.08,1.97l-6.826-.042c-1.418,0-2.988-.079-4.007-1.061a2.982,2.982,0,0,1-.061-3.928,2.467,2.467,0,0,1,.764-.606,2.425,2.425,0,0,1-1.637-1.946,7.237,7.237,0,0,1,.127-2.673c0-2.534.606-6.777,2.388-8.759,2.188-2.467,5.983-5.656,9.287-6.316a7.274,7.274,0,0,1,6.292,1.788c1.564,1.455,2.7,3.734,4.849,3.989,1.17.145,2.3-.406,3.455-.606a6.432,6.432,0,0,1,6.553,3.461,6.826,6.826,0,0,1,.606,1.9,7.881,7.881,0,0,1-1.237,5.656Z" transform="translate(-214.2 -326.801)" fill="#a26565"/>
    <path id="Path_462" data-name="Path 462" d="M522.579,728.54a9.4,9.4,0,0,1-6.626,3.9c-2.631.327-5.365-.333-7.917.388a2.425,2.425,0,0,0-1.819,1.4,14.87,14.87,0,0,0-.115,1.485c-.3,1.619-2.425,1.982-4.08,1.97l-6.826-.042c-1.418,0-2.988-.079-4.007-1.061a2.982,2.982,0,0,1-.061-3.928c3.94-.164,7.814,0,11.742-.812,1.594-.321,3.164-.746,4.777-.97,3.492-.5,7.208-.073,10.414-1.552a11.77,11.77,0,0,0,5.722-6.432A7.88,7.88,0,0,1,522.579,728.54Z" transform="translate(-214.352 -333.73)" opacity="0.1"/>
    <path id="Path_463" data-name="Path 463" d="M425.183,646.356a15.187,15.187,0,0,1-8.323,3.5,8.46,8.46,0,0,1-7.8-3.867c-2.188-3.9-.249-9.317-2.928-12.893-.837-1.121-2.043-1.916-2.928-3s-1.394-2.716-.606-3.867c-.952.364-1.958-.558-2.237-1.54a28.134,28.134,0,0,1-.273-3.031c-.443-2.637-3.031-4.328-4.274-6.668s-1.073-5.377-1.212-8.147a30.915,30.915,0,0,0-7.153-18.4c-.824-.982-1.879-1.982-3.164-1.934a5.969,5.969,0,0,0-3.17-5.456,15.717,15.717,0,0,0-6.413-1.709c-22.386-2.206-45.712,6.116-67.086-.885-5.947-1.946-11.681-5.2-15.318-10.305a18.016,18.016,0,0,1-3.207-13.627v-.085c.843-4.3,3.116-5.365,6.88-7.329a82.579,82.579,0,0,1,13.572-5.692c9.093-2.843,18.883-3.867,28.266-1.782,4.383.982,8.608,2.607,13,3.558,1.728.376,3.467.643,5.219.867,2.722.339,5.456.564,8.2.879a123.985,123.985,0,0,1,25.739,5.789,33.707,33.707,0,0,1,8.893,4.171,19.7,19.7,0,0,1,7.9,13.009c.255,1.782.261,3.637.649,5.365a27.272,27.272,0,0,0,1.455,4.243,282.264,282.264,0,0,1,12.663,39.4,9.572,9.572,0,0,0,1.012,2.849c.776,1.255,2.11,2.1,2.891,3.352,1.819,2.958.067,7.086,1.679,10.166.558,1.067,1.485,1.909,2.043,2.976C430.972,639.766,428.287,643.949,425.183,646.356Z" transform="translate(-134.966 -261.13)" fill="#454b69"/>
    <path id="Path_464" data-name="Path 464" d="M458.7,597.889a10,10,0,0,0,2.2-2.425,4.521,4.521,0,0,0,.667-3.134,8.965,8.965,0,0,1-2.358,7.711c-1.522,1.558-4.377,3.085-6.6,2.552C452.925,600.81,457.29,599.089,458.7,597.889Z" transform="translate(-199.461 -282.313)" opacity="0.1"/>
    <path id="Path_465" data-name="Path 465" d="M356.51,546.493a4.068,4.068,0,0,1-2.691,2.776,11.215,11.215,0,0,1-3.995.467h-1.212c-15.906-.352-31.982-3.88-47.519-.515a34.4,34.4,0,0,0-5.492,1.618,24.8,24.8,0,0,0-6.31,3.637v-.085c.843-4.3,3.116-5.365,6.88-7.329a82.586,82.586,0,0,1,13.554-5.638c9.093-2.843,18.883-3.867,28.266-1.782,4.383.982,8.608,2.607,13,3.558,1.728.376,3.467.643,5.219.867a4.189,4.189,0,0,1,.3,2.425Z" transform="translate(-135.142 -261.13)" opacity="0.1"/>
    <path id="Path_466" data-name="Path 466" d="M355.364,539.244a4.061,4.061,0,0,1-2.691,2.782,11.073,11.073,0,0,1-3.995.461h-1.212c-15.906-.352-31.982-3.88-47.519-.515a35.037,35.037,0,0,0-5.492,1.612,24.979,24.979,0,0,0-6.577,3.88q-.7-1.915-1.388-3.837c-.558-1.528,1.212-1.867,1.552-3.237a7.377,7.377,0,0,0-.352-2.97,5.18,5.18,0,0,1-.1-.733,4.667,4.667,0,0,1,2.467-4.631c5.322-3.516,11.815-5.928,17.888-7.741a44.253,44.253,0,0,1,9.941-1.928,48.779,48.779,0,0,1,14.2,1.728,60.884,60.884,0,0,1,16.44,6.268c2.485,1.449,4.91,3.267,6.25,5.85A4.607,4.607,0,0,1,355.364,539.244Z" transform="translate(-133.997 -254.748)" fill="#a26565"/>
    <path id="Path_467" data-name="Path 467" d="M306.12,455.544c-1.819,5.765-6.783,10.96-12.827,11.208a2.238,2.238,0,0,1-1.279-.23,2.025,2.025,0,0,1-.467-2.425,10.487,10.487,0,0,0,.934-2.485,1.626,1.626,0,0,0-.036-.539c3.207-4.522,6.316-9.093,7.547-14.445a7.723,7.723,0,0,0,.224-2.831,25.192,25.192,0,0,0-1.018-3.134,16.346,16.346,0,0,1-.133-5.777,53.344,53.344,0,0,0-4.146-24.908,23.368,23.368,0,0,1-2.037-5.825,3.51,3.51,0,0,1,1.994-1.7c1.988-.667,3.292.37,3.583,2.255.485,3.207.206,6.48.843,9.7a45.463,45.463,0,0,0,2.661,8.784c1.073,2.558,2.376,5.031,3.2,7.68a42.308,42.308,0,0,1,1.328,6.668C307.321,443.548,307.957,449.779,306.12,455.544Z" transform="translate(-135.958 -207.455)" opacity="0.1"/>
    <path id="Path_468" data-name="Path 468" d="M356.157,539.229a4.061,4.061,0,0,1-2.691,2.782,11.076,11.076,0,0,1-3.995.461h-1.212a26.411,26.411,0,0,0-17.579-4.243,28.413,28.413,0,0,1-5.928.515c-3.995-.364-7.232-3.237-10.79-5.074a22.659,22.659,0,0,0-25.114,3.407l-.346.3a5.182,5.182,0,0,1-.1-.734,4.667,4.667,0,0,1,2.467-4.631c5.322-3.516,11.815-5.928,17.888-7.741a44.246,44.246,0,0,1,9.941-1.928,48.775,48.775,0,0,1,14.2,1.728,60.879,60.879,0,0,1,16.44,6.268c2.467,1.473,4.892,3.292,6.232,5.874A4.607,4.607,0,0,1,356.157,539.229Z" transform="translate(-134.789 -254.732)" opacity="0.1"/>
    <path id="Path_469" data-name="Path 469" d="M366.243,409.261l-.085.218c-1.358,3.522-3.855,6.5-5.456,9.929-2.019,4.346-2.516,9.22-2.964,14a72.713,72.713,0,0,0-.461,12.312c.776,10.111,5.716,19.7,7.038,29.618a32.924,32.924,0,0,1,.249,6.917,6.828,6.828,0,0,1-1.346,4.11c-.97,1.079-2.855,1.5-3.9.467.467-.891.94-1.776,1.412-2.667-2.77-2.152-6.941-.606-10.178-1.952a16.384,16.384,0,0,1-3.758-2.673,26.357,26.357,0,0,0-19.634-5.735,28.006,28.006,0,0,1-5.928.521c-3.995-.37-7.232-3.237-10.79-5.074a22.671,22.671,0,0,0-25.114,3.4c-.849.788-1.988,1.709-3.031,1.212a2.521,2.521,0,0,1-.94-1.024c-3.971-6.783-1.049-15.53,3.195-22.138s9.863-12.7,11.609-20.356a7.6,7.6,0,0,0,.224-2.831,25.173,25.173,0,0,0-1.018-3.134,16.345,16.345,0,0,1-.133-5.777,53.344,53.344,0,0,0-4.134-24.914c-.97-2.261-2.122-4.552-2.122-7.007,0-3.867,2.77-7.074,5.062-10.184,2.637-3.576,4.849-7.535,8.19-10.475,3.164-2.794,7.747-4.5,11.663-3.085a72.709,72.709,0,0,1,20.344-1.982,15.584,15.584,0,0,1,6.88,1.5c2.219,1.212,3.813,3.37,6,4.662a32.672,32.672,0,0,0,5.165,2.067,21.344,21.344,0,0,1,11.13,9.953c2.425,4.7,3.031,10.1,3.564,15.361C367.479,399.453,367.964,404.6,366.243,409.261Z" transform="translate(-131.279 -191.166)" fill="#070707"/>
    <path id="Path_470" data-name="Path 470" d="M399.234,456.927c.776,10.111,5.716,19.7,7.038,29.618-2.643-2.237-6.322-4.486-6.813-7.086-.546-2.813-2.291-6.5-2.582-9.341s1.7-6.316-.388-8.268c-1.018-.952,1.691-.685.7-1.661-2.237-2.176-2.788-5.528-2.928-8.638-.236-5.5.461-11.069-.552-16.482a82.961,82.961,0,0,0-2.885-9.766c-1.176-3.777-2.025-7.644-2.873-11.517a80.694,80.694,0,0,1-1.819-10.463,17.162,17.162,0,0,1,1.212-9.008c1.352-2.764,4.086-5.007,7.153-4.965,10.257.133,8.487,14.039,10.742,20.465.9,2.558,2.122,5.031,2.613,7.7a20.41,20.41,0,0,1,.291,3.164c-1.358,3.522-3.855,6.5-5.456,9.929-2.019,4.346-2.516,9.22-2.964,14A70.478,70.478,0,0,0,399.234,456.927Z" transform="translate(-173.235 -202.376)" opacity="0.1"/>
    <path id="Path_471" data-name="Path 471" d="M406.354,409.519c.9,2.558,2.122,5.031,2.613,7.7.818,4.468-.449,9.214.927,13.542a23.61,23.61,0,0,1,.9,2.831,24.731,24.731,0,0,1-.036,4.183,23.9,23.9,0,0,0,1.34,6.6,117.978,117.978,0,0,1,4.213,22.526,28.243,28.243,0,0,0,.964,6.062,20.13,20.13,0,0,1,.655,2.049,10.6,10.6,0,0,1,.115,2.807,53.389,53.389,0,0,0-.164,8.911,12.359,12.359,0,0,0,3.637,7.941c-1.988.43-4.092.861-6.031.224-2.728-.891-4.365-3.637-5.753-6.135-1.758-3.189-8.438-6.062-9.129-9.644-.54-2.807-2.285-6.492-2.576-9.341s1.7-6.31-.394-8.262c-1.012-.952,1.7-.691.7-1.661-2.231-2.176-2.782-5.528-2.922-8.644-.236-5.5.455-11.063-.552-16.476a83.412,83.412,0,0,0-2.885-9.772c-1.176-3.77-2.025-7.638-2.873-11.517a79.846,79.846,0,0,1-1.819-10.463,17.125,17.125,0,0,1,1.212-9.014c1.358-2.764,4.092-5,7.153-4.965C405.857,389.182,404.1,403.093,406.354,409.519Z" transform="translate(-173.687 -202.238)" fill="#070707"/>
    <path id="Path_472" data-name="Path 472" d="M368.692,424.108c.958,1.121,2.188,2.352,3.637,2.134a.788.788,0,0,1-1.073.255,2.3,2.3,0,0,1-.806-.927l-2.073-3.5c-.273-.455-2.152-3.1-2.613-1.576C365.582,421.144,368.225,423.562,368.692,424.108Z" transform="translate(-165.256 -214.457)" opacity="0.1"/>
    <path id="Path_473" data-name="Path 473" d="M361.427,437.176a4.619,4.619,0,0,0-1.352-3.031,7.579,7.579,0,0,0-2.5-1.509,18.135,18.135,0,0,0-7.432-1.564c.9,1.309,3.777,2.091,5.219,2.831Q358.426,435.485,361.427,437.176Z" transform="translate(-159.106 -218.802)" opacity="0.1"/>
    <path id="Path_474" data-name="Path 474" d="M365.526,476.248c-.418,3.1-2.958,5.456-5.528,7.274s-5.456,3.383-7.135,6.013c-1.164,1.819-1.685,3.928-2.673,5.825a67.536,67.536,0,0,1-4.025,5.813c-1.3,1.964-2.322,4.31-1.922,6.638a.782.782,0,0,0,.279.558.794.794,0,0,0,.77-.085c2.643-1.382,3.686-4.54,4.795-7.274a84.031,84.031,0,0,1,3.928-8.074,7.438,7.438,0,0,1,2.594-3.207,22.762,22.762,0,0,1,2.558-.891,8.6,8.6,0,0,0,3.158-2.479,20.817,20.817,0,0,0,4.849-14.13c-.036-1.085-.1-6.31-1.728-4.7S365.8,474.138,365.526,476.248Z" transform="translate(-156.749 -233.045)" opacity="0.1"/>
    <path id="Path_475" data-name="Path 475" d="M347.137,282.888c5.213,2.273,9.7,7.274,9.535,12.942-.139,5.953-5.122,11.56-3.407,17.264.994,3.31,3.989,5.528,6.359,8.044,9.026,9.553,9.008,26.23-.048,35.765-3.467,3.637-7.923,6.225-11.59,9.7-12.93,12.184-13.482,33.261-6.559,49.622a80.707,80.707,0,0,1-16.137,1.819c-2.54,0-5.65-.43-6.571-2.8-.849-2.188.606-5.146-1.067-6.765a5.472,5.472,0,0,0-3.031-1.037c-6.826-1.1-12.427-6.553-14.985-12.972s-2.425-13.645-.958-20.4c1.043-4.88,2.673-10.251.255-14.615-3.031-5.492-11.748-7.808-11.614-14.088.109-5.147,6.177-7.65,9.62-11.475,6.353-7.044,3.328-17.973,3.316-27.466,0-8.353,2.922-16.973,9.141-22.538C318.647,275.541,336.462,278.251,347.137,282.888Z" transform="translate(-134.366 -158.721)" fill="#a26565"/>
    <g id="Group_9" data-name="Group 9" transform="translate(152.976 135.83)" opacity="0.1">
      <path id="Path_476" data-name="Path 476" d="M299.943,394.049c-2.661-4.8-9.65-7.177-11.275-11.9a6.722,6.722,0,0,0-1.309,3.795c-.133,6.28,8.571,8.6,11.614,14.094a11.451,11.451,0,0,1,1.212,6.316C301.144,402.136,301.986,397.735,299.943,394.049Z" transform="translate(-287.357 -335.371)"/>
      <path id="Path_477" data-name="Path 477" d="M397.23,315.752c1.091-3.182,2.673-6.4,2.752-9.7a9.083,9.083,0,0,0-.03-1.073C398.733,308.629,396.866,312.169,397.23,315.752Z" transform="translate(-330.609 -304.98)"/>
      <path id="Path_478" data-name="Path 478" d="M309.387,334.652c2.085-6.589.285-14.761.279-22.071,0-.885.036-1.776.1-2.661a35,35,0,0,0-1.079,8.644C308.7,323.783,309.617,329.445,309.387,334.652Z" transform="translate(-295.759 -306.925)"/>
      <path id="Path_479" data-name="Path 479" d="M393.674,390.84c-3.467,3.637-7.923,6.225-11.59,9.7-6.547,6.165-9.911,14.609-10.754,23.562a34.654,34.654,0,0,1,9.784-17.579c3.637-3.455,8.123-6.032,11.59-9.7a25.757,25.757,0,0,0,6.759-16.4A24.617,24.617,0,0,1,393.674,390.84Z" transform="translate(-320.427 -334.69)"/>
      <path id="Path_480" data-name="Path 480" d="M333.027,473.37c-2.54,0-5.65-.436-6.571-2.807-.849-2.182.606-5.14-1.067-6.765a5.489,5.489,0,0,0-3.031-1.037c-6.82-1.1-12.421-6.553-14.979-12.966a32.423,32.423,0,0,1-1.819-15.015c-.048.2-.091.4-.133.606-1.443,6.753-1.594,13.985.958,20.4s8.159,11.869,14.979,12.966a5.4,5.4,0,0,1,3.031,1.037c1.691,1.625.218,4.583,1.067,6.765.921,2.37,4.031,2.837,6.571,2.807a80.768,80.768,0,0,0,16.137-1.819,54.172,54.172,0,0,1-1.958-5.413A80.469,80.469,0,0,1,333.027,473.37Z" transform="translate(-294.066 -356.097)"/>
    </g>
    <path id="Path_481" data-name="Path 481" d="M384.369,452.073c1.5,1.127,3.122-3.17,2.194-4.243C386.315,448.109,384.139,451.916,384.369,452.073Z" transform="translate(-172.579 -225.407)" opacity="0.1"/>
    <path id="Path_482" data-name="Path 482" d="M394.91,578.719c1.764-.606,3.637-1.212,4.789-2.667.952-1.17,1.734-5.813-.279-3.589C397.711,574.373,396.9,576.888,394.91,578.719Z" transform="translate(-176.737 -274.255)" opacity="0.1"/>
    <path id="Path_483" data-name="Path 483" d="M423.059,570.875a6.964,6.964,0,0,1-1.619,3.946c-.188.194-.606.315-.661.055a15.327,15.327,0,0,0,3.128-2.207c2.049-2.031,2.328-7.032-.794-8.359A47.506,47.506,0,0,1,423.059,570.875Z" transform="translate(-186.925 -271.279)" opacity="0.1"/>
    <path id="Path_484" data-name="Path 484" d="M443.815,556.3s-17.2-6.759-23.423-6.062,7.044,10.5,7.044,10.5l7.929,5.346s4.849-1.819,5.171-1.958S443.815,556.3,443.815,556.3Z" transform="translate(-186.119 -265.717)" fill="#454b69"/>
    <path id="Path_485" data-name="Path 485" d="M264.84,438.8s12.924-7.492,29.982,1.819,19.9,64.1,19.9,64.1-6.977,55.823,19.925,43.4c0,0,49.1-15.246,54.017-11.887,0,0,4.655,0-4.649,2.067s-45.252,13.457-45.252,13.457-11.621,4.061-16.543,0-18.87.521-20.683-27.4a485.55,485.55,0,0,0-6.462-52.471l-4.795-14.215Z" transform="translate(-125.514 -220.728)" fill="#565661"/>
    <path id="Path_486" data-name="Path 486" d="M259.054,525.806s5.686-56.605-3.637-77.028c-8.111-17.8,23.253-9.475,31.437-7.05a5.959,5.959,0,0,1,3.14,2.243c4.849,6.82,22.247,34.152,17.119,70.723,0,0-2.067,32.57,10.857,37.735L278.149,539.6c-3.231-1.043-6.51-1.909-9.82-2.661C264.11,535.984,257.236,533.262,259.054,525.806Z" transform="translate(-121.28 -221.403)" fill="#070707"/>
    <path id="Path_487" data-name="Path 487" d="M694.53,627.751H699.7l3.389-69.493.23-3.952-4.395-1.546-.291,4.2Z" transform="translate(-273.541 -217.672)" fill="#565661"/>
    <path id="Path_488" data-name="Path 488" d="M701.3,556.961l4.456,1.3.23-3.952-4.395-1.546Z" transform="translate(-276.207 -217.672)" opacity="0.1"/>
    <path id="Path_489" data-name="Path 489" d="M637.086,694.876a11.657,11.657,0,0,1-.727,2.776,4.9,4.9,0,0,1-2.213,2.764,5.846,5.846,0,0,1-2.237.442c-2.855.17-5.874.127-8.329-1.327a15.159,15.159,0,0,1-2.855-2.382,130.276,130.276,0,0,1-14.985-17.822c-.746-1.073-1.515-2.34-1.182-3.637a56.5,56.5,0,0,0,16.227-7.426,7.834,7.834,0,0,1,2.279-1.212,12.384,12.384,0,0,1,4.28-.158c1.376.224,1.437.267,1.964,1.819.873,2.625.727,5.456,1.709,8.08a25.045,25.045,0,0,0,2.267,4.146C635.819,685.177,637.765,690.178,637.086,694.876Z" transform="translate(-259.269 -311.633)" fill="#a26565"/>
    <path id="Path_490" data-name="Path 490" d="M637.086,699.461a11.658,11.658,0,0,1-.727,2.776A4.9,4.9,0,0,1,634.146,705a5.843,5.843,0,0,1-2.237.442c-2.855.17-5.874.127-8.329-1.328a15.154,15.154,0,0,1-2.855-2.382,130.265,130.265,0,0,1-14.985-17.822c-.746-1.073-1.515-2.34-1.182-3.637a56.259,56.259,0,0,0,5.553-1.855l.091.067a20.368,20.368,0,0,1,4.528,5.1l4.243,5.971a17.576,17.576,0,0,0,2.661,3.213,17.808,17.808,0,0,0,4.116,2.473c1.994.964,3.989,1.928,6.062,2.7C633.152,698.485,635.419,698.7,637.086,699.461Z" transform="translate(-259.269 -316.217)" opacity="0.1"/>
    <path id="Path_491" data-name="Path 491" d="M652.427,602.089a18.262,18.262,0,0,1-1.515,2.892,123.754,123.754,0,0,0-12.924,30.242c-.836-.188-1.309.952-1.3,1.819s0,1.958-.8,2.273c-.236.091-.5.091-.734.194-.509.23-.655.879-.727,1.437l-.715,5.25c-.249,1.818-.467,3.789.424,5.395a8.624,8.624,0,0,0,2.346,2.425l11.833,9.335c.485.382,1.085.788,1.667.576,1.328-.485.152-2.861,1.212-3.825.7-.661,1.819-.164,2.794-.242a3.162,3.162,0,0,0,2.558-2.5,11.873,11.873,0,0,0,.067-3.795,3.442,3.442,0,0,1,.194-1.7,4.134,4.134,0,0,1,1.449-1.388,15.554,15.554,0,0,0,6.371-13.118,7.269,7.269,0,0,1,.085-2.322,6.115,6.115,0,0,1,1.1-1.915A177.437,177.437,0,0,0,677.244,614.7c2.049-3.637,4.134-7.329,4.85-11.427a1.061,1.061,0,0,0-.873-1.455,41.233,41.233,0,0,0-5.419-1.3c-5.571-1.127-10.948-2.867-16.367-4.54S654.057,597.712,652.427,602.089Z" transform="translate(-270.694 -283.579)" fill="#454b69"/>
    <path id="Path_492" data-name="Path 492" d="M587.5,630.428l8.535,1.031,39.287-89.176,10.6-.776,18.616,5.431,3.613,106.173h8.529l-3.358-110.052,20.422.521L730.183,634.3h7.753L699.607,528.274l-1.473-4.086-57.127-1.958-14.239,7.983-.182.461Z" transform="translate(-231.391 -205.648)" fill="#565661"/>
    <path id="Path_493" data-name="Path 493" d="M686.94,611.6c12.275,3.7,25.017,7.735,25.017,7.735s11.62,4.055,16.543,0a7.437,7.437,0,0,1,2.055-1.134,10.124,10.124,0,0,1-2.055,1.134L759.961,609.2l-1.455-4.08-57.127-1.958-14.239,7.983Z" transform="translate(-291.744 -286.578)" opacity="0.1"/>
    <path id="Path_494" data-name="Path 494" d="M728.888,584.7l-23.259-5.171s-55.575,10.341-59.709,14.476c0,0,44.457,9.044,49.367,12.124S729.41,612.615,728.888,584.7Z" transform="translate(-275.589 -277.272)" fill="#fff"/>
    <path id="Path_495" data-name="Path 495" d="M612.311,709.084c-1.4,2.667-4.849,3.419-7.88,3.461a33.276,33.276,0,0,1-12.318-2.2,71.665,71.665,0,0,0-6.71-2.6c-3.449-.946-7.274-.867-10.305-2.764a12.121,12.121,0,0,1-3.873-4.2c-.176-.3-.346-.606-.5-.921a12.982,12.982,0,0,1-1.315-9.141c.806-3.043,3.734-6.4,7.129-6.347,4.031.061,8.838,1.97,12.73,2.958,4.849,1.212,9.7,2.613,13.985,5.177a20.917,20.917,0,0,1,8.45,9.038,15.313,15.313,0,0,1,.8,2.255A7.07,7.07,0,0,1,612.311,709.084Z" transform="translate(-245.321 -318.56)" fill="#a26565"/>
    <path id="Path_496" data-name="Path 496" d="M613.39,719.146c-1.4,2.667-4.849,3.419-7.88,3.461a33.272,33.272,0,0,1-12.318-2.2,71.683,71.683,0,0,0-6.71-2.6c-3.449-.946-7.274-.867-10.305-2.764a12.121,12.121,0,0,1-3.874-4.2c-.176-.3-.346-.606-.5-.921.606.049,1.164.109,1.467.139,3.722.358,7.274,1.716,10.826,2.74a60.816,60.816,0,0,0,15.155,2.364c3.637.1,7.432-.164,10.608-1.94a27.8,27.8,0,0,1,2.946-1.618,15.309,15.309,0,0,1,.8,2.255A7.188,7.188,0,0,1,613.39,719.146Z" transform="translate(-246.4 -328.622)" opacity="0.1"/>
    <path id="Path_497" data-name="Path 497" d="M629.777,533.48a195.338,195.338,0,0,0-23.9-1.922l-9.772-.388a4.433,4.433,0,0,0-2.055.249,13.391,13.391,0,0,0-1.606,1.212,6.646,6.646,0,0,1-3.419.806,170.2,170.2,0,0,0-24.95,3.237c-4.243.867-8.65,2-11.839,4.928-3.37,3.1-4.849,7.82-4.965,12.39s1.085,9.062,2.352,13.451a61.279,61.279,0,0,1,2.649,16.282,30.456,30.456,0,0,0,.176,4.589,21.957,21.957,0,0,0,1.279,4.243l4.462,11.912c.394,1.043.782,2.079,1.212,3.1s.843,1.818,1.212,2.776c.546,1.309.976,2.667,1.406,4.019l2.97,9.329.388,1.212c1.073,3.358,2.17,6.777,4.195,9.663s5.159,5.213,8.681,5.389a26.58,26.58,0,0,1,3.407.091,13.774,13.774,0,0,1,2.794,1.012,21.319,21.319,0,0,0,8.347,1.631c2.637,0,5.565-.733,7-2.952a10.284,10.284,0,0,0,1.212-4.134c.382-2.873.752-5.874-.224-8.6-.606-1.631-1.625-3.031-2.328-4.637a47.13,47.13,0,0,1-1.94-6.917,26.417,26.417,0,0,0-8.062-12.827,126.437,126.437,0,0,1-3.031-16.6,14.607,14.607,0,0,0-.733-3.637c-.709-1.819-2.146-3.292-2.746-5.146-.564-1.722-.394-3.71-1.419-5.2,8.529,2.346,16.973,1.819,25.829,1.679a70.57,70.57,0,0,0,8.487-.485,26.662,26.662,0,0,1,3.977-.424c2.74,0,5.31,1.212,7.826,2.279,7.111,3.031,14.6,5.413,22.326,5.741,7.971.333,15.852-1.54,23.641-3.395,3.425-.818,6.983-1.7,9.7-3.952s4.243-6.3,2.57-9.39c-1.273-2.322-3.91-3.461-6.371-4.431-6.814-2.691-13.663-5.316-20.228-8.571C648.259,546.21,640.761,535.3,629.777,533.48Z" transform="translate(-236.738 -258.216)" fill="#454b69"/>
    <path id="Path_498" data-name="Path 498" d="M656.372,481.216c-.952,2.061-2.552,3.746-3.734,5.686a14.408,14.408,0,0,0-1.819,10.7,12.172,12.172,0,0,0,6.82,8.3,17.116,17.116,0,0,0,4.728,1.14,10.441,10.441,0,0,0,6.292-.715,9.19,9.19,0,0,0,3.352-3.5,35.533,35.533,0,0,0,3.407-8.862c1.57-5.65,2.91-11.445,2.716-17.307-.067-2.019-.467-4.292-2.14-5.456a7.2,7.2,0,0,0-2.813-.921l-8-1.431c-1.546-.279-4.243-1.412-5.583-.3s-1.443,4.413-1.673,5.959A25.164,25.164,0,0,1,656.372,481.216Z" transform="translate(-277.385 -233.376)" fill="#a1616a"/>
    <path id="Path_499" data-name="Path 499" d="M809,446.619l-2.091,17.531a80.632,80.632,0,0,0-.746,9.432c0,1.758.055,3.71-1.109,5.025a4.582,4.582,0,0,1-2.085,1.255c-2.54.788-5.31.085-7.735-1a6.4,6.4,0,0,1-3.51-2.9,7.2,7.2,0,0,1-.455-3.073c0-10.457.988-21.362,6.45-30.273a6.6,6.6,0,0,1,1.922-2.219c1.516-.97,3.5-.7,5.213-.17,1.055.321,3.9.679,4.577,1.618S809.145,445.413,809,446.619Z" transform="translate(-332.823 -222.226)" fill="#a1616a"/>
    <circle id="Ellipse_59" data-name="Ellipse 59" cx="21.823" cy="21.823" r="21.823" transform="translate(398.87 117.353)" fill="#a1616a"/>
    <path id="Path_500" data-name="Path 500" d="M714.747,346.72a11.255,11.255,0,0,1-1.352,4.849q16.712-2.546,33.34-5.674A15.658,15.658,0,0,1,739,336.8a25.681,25.681,0,0,1-.982-6.48,74.936,74.936,0,0,1,.2-10.432c-3.88.406-7.553,1.861-11.251,3.11a110.951,110.951,0,0,1-11.33,3.17c-1.849.412-3.71.764-5.577,1.091-2.182.388-3.231.382-1.716,2.3C712.414,334.675,715.317,339.876,714.747,346.72Z" transform="translate(-299.893 -175.022)" fill="#a1616a"/>
    <path id="Path_501" data-name="Path 501" d="M702.776,355.8c-2.879.43-5.9.915-8.2,2.7a30.921,30.921,0,0,0-2.491,2.394c-4.565,4.431-11.008,6.213-16.549,9.341a7.277,7.277,0,0,0-2.352,1.849c-.606.843-.915,1.916-1.552,2.752-.739.97-1.91,1.576-2.485,2.649a7.476,7.476,0,0,0-.509,3.352,31.206,31.206,0,0,1-1.818,7.274c-3.364,11.463-1.522,24.247-6.614,35.074a4.929,4.929,0,0,0,2.679,2.8,15.218,15.218,0,0,0,3.977.855l11.281,1.4a8.907,8.907,0,0,0,4.795-.285,56.333,56.333,0,0,0-2.843,11.475,57.138,57.138,0,0,1-1.273,7.1c-1.552,5.334-5.456,9.778-10.081,12.815a3.728,3.728,0,0,0-1.424,1.315c-.606,1.212.291,2.57.927,3.758,1.849,3.443,1.594,7.577,1.57,11.481s.37,8.19,3.1,10.99a16.574,16.574,0,0,0,5.965,3.407l17.646,7.05a61.485,61.485,0,0,0,8.984,3.031,53.642,53.642,0,0,0,14.251.812q4.728-.2,9.444-.606a7.347,7.347,0,0,0,3.57-.94,6.668,6.668,0,0,0,2.091-2.837c2.455-5.341,3.279-11.572,7.086-16.046,2.613-3.073,6.668-5.528,6.965-9.547.139-2-.752-3.946-.764-5.953,0-2.467,1.291-4.813,1.212-7.274-.164-4.007-3.94-7.062-4.54-11.026-1.528-10.051,3.577-20.089,6.71-29.758.564-1.728,1.291-3.637,2.952-4.377s4-.352,4.595-1.988a35.328,35.328,0,0,0,1.661-13.3c-.109-2.528-1.006-5-.9-7.535.073-1.782.643-3.516.794-5.292a22.47,22.47,0,0,0-1.212-7.947,12.447,12.447,0,0,0-.946-2.679,12.725,12.725,0,0,0-1.576-2.164l-2.952-3.51c-1.382-1.643-2.843-3.346-4.849-4.177-.649-1.606-2.722-2.716-4.207-3.6a43.1,43.1,0,0,0-4.631-2.273l-16.694-7.371a6.839,6.839,0,0,0-1.982-.643,6.42,6.42,0,0,0-2.946.606C713.548,352.972,708.232,354.985,702.776,355.8Z" transform="translate(-281.217 -187.015)" fill="#070707"/>
    <path id="Path_502" data-name="Path 502" d="M699.149,293.259c-.643-2.261-2.285-4.213-2.534-6.553-.224-2.079.691-4.092,1.212-6.116s.5-4.5-1.1-5.844c-.267-.23-.606-.436-.7-.776-.194-.606.418-1.158.606-1.77.346-1.212-1.152-2.552-.606-3.716.309-.636,1.085-.861,1.764-1.061,2.594-.77,5.225-2.479,5.789-5.128,2.031.849,4.195-.746,5.753-2.291s3.473-3.31,5.619-2.843l-.479.976a15.518,15.518,0,0,1,10.263-.115h-1.018a14.075,14.075,0,0,1,8.117,2.746c-.261,0-.285.388-.182.606.849,1.982,3.031,3.031,5.134,3.522a7.284,7.284,0,0,1,3.57,1.431c.927.909.946,2.807-.279,3.243a31.882,31.882,0,0,1,7.038,3.819c.606.443,1.291,1.043,1.212,1.819a5.9,5.9,0,0,1-.376,1.134,3.923,3.923,0,0,0,.127,1.94l.673,2.776c.74,3.085,1.322,6.8-.927,9.038a8.3,8.3,0,0,1-1.461,9.8,4.037,4.037,0,0,1-3.031,5.219,2.719,2.719,0,0,1-1.115,3.552,6.482,6.482,0,0,1-4.025.606,17.182,17.182,0,0,0-4.128-.23c-1.994.309-3.946,1.667-5.868,1.061a13.171,13.171,0,0,1-2.055-1.1,16.676,16.676,0,0,0-4.4-1.212,20.333,20.333,0,0,1-7.111-3.031,8.335,8.335,0,0,1-3.267-3.637c-1.334-3.37.909-7.789-1.449-10.535a4.165,4.165,0,0,0-5.668-.255c-.77.685-.873,2.128-1.673,2.643A10.579,10.579,0,0,1,699.149,293.259Z" transform="translate(-295.273 -150.288)"/>
    <path id="Path_503" data-name="Path 503" d="M650.394,599.889a10,10,0,0,1-2.2-2.425,4.522,4.522,0,0,1-.667-3.134,8.965,8.965,0,0,0,2.358,7.711c1.522,1.558,4.377,3.085,6.6,2.552C656.171,602.81,651.806,601.089,650.394,599.889Z" transform="translate(-276.171 -283.101)" opacity="0.1"/>
    <path id="Path_504" data-name="Path 504" d="M768.958,440.8s-12.924-7.492-29.982,1.819-19.9,64.1-19.9,64.1,6.977,55.823-19.925,43.4c0,0-49.1-15.245-54.017-11.887,0,0-4.656,0,4.649,2.067s45.252,13.457,45.252,13.457,11.621,4.061,16.543,0,18.87.521,20.683-27.4a485.546,485.546,0,0,1,6.462-52.471l4.795-14.215Z" transform="translate(-274.821 -221.515)" fill="#565661"/>
    <path id="Path_505" data-name="Path 505" d="M814.445,527.806s-5.686-56.605,3.637-77.028c8.111-17.8-23.253-9.475-31.437-7.05a5.959,5.959,0,0,0-3.14,2.243c-4.849,6.82-22.247,34.152-17.119,70.723,0,0,2.067,32.57-10.857,37.735L795.35,541.6c3.231-1.043,6.51-1.909,9.82-2.661C809.389,537.984,816.263,535.262,814.445,527.806Z" transform="translate(-318.756 -222.19)" fill="#070707"/>
    <ellipse id="Ellipse_60" data-name="Ellipse 60" cx="59.066" cy="9.487" rx="59.066" ry="9.487" transform="translate(541.013 396.713)" fill="#fff" opacity="0.1"/>
    <rect id="Rectangle_60" data-name="Rectangle 60" width="3.801" height="85.575" transform="translate(598.177 224.46)" fill="#535461"/>
    <path id="Path_506" data-name="Path 506" d="M1033.954,588.157l-.236,3.855-.339,5.456-.14,2.267-.333,5.456-.145,2.267-.34,5.456-3.831,61.873a10.487,10.487,0,0,1-10.463,9.8H998.2a10.475,10.475,0,0,1-10.451-9.832l-3.843-61.879-.333-5.456-.139-2.267-.346-5.456-.139-2.267-.333-5.456-.242-3.855a5.456,5.456,0,0,1,5.419-5.765h40.748a5.456,5.456,0,0,1,5.413,5.807Z" transform="translate(-408.087 -278.383)" fill="#565661"/>
    <path id="Path_507" data-name="Path 507" d="M998.921,517.36l-.339,5.438H948.159l-.339-5.437Z" transform="translate(-373.291 -203.731)" fill="#9d9cb5"/>
    <path id="Path_508" data-name="Path 508" d="M998.753,530.08l-.333,5.444H948.949l-.339-5.444Z" transform="translate(-373.602 -208.74)" fill="#9d9cb5"/>
    <path id="Path_509" data-name="Path 509" d="M998.586,542.8l-.339,5.437H949.74l-.34-5.437Z" transform="translate(-373.913 -213.749)" fill="#9d9cb5"/>
    <path id="Path_510" data-name="Path 510" d="M941.49,493.1c22.138,16.015,31.358,41.063,31.358,41.063s-26.672-.915-48.816-16.931S892.68,476.18,892.68,476.18,919.358,477.1,941.49,493.1Z" transform="translate(-372.768 -236.572)" fill="#070707"/>
    <path id="Path_511" data-name="Path 511" d="M892.68,476.18s27.684,15.367,36.571,28.091,43.6,29.9,43.6,29.9" transform="translate(-372.768 -236.572)" fill="none" stroke="#535461" stroke-miterlimit="10" stroke-width="2"/>
    <path id="Path_512" data-name="Path 512" d="M979.533,444.894c12.051,8.711,17.07,22.35,17.07,22.35s-14.548-.5-26.569-9.214S953,435.68,953,435.68,967.488,436.177,979.533,444.894Z" transform="translate(-396.523 -220.622)" fill="#070707"/>
    <path id="Path_513" data-name="Path 513" d="M953,435.68s15.07,8.365,19.9,15.288,23.732,16.276,23.732,16.276" transform="translate(-396.523 -220.622)" stroke="#535461" stroke-miterlimit="10" stroke-width="2"/>
    <path id="Path_514" data-name="Path 514" d="M1042.917,473.6c-13.839,15.209-16.767,35.086-16.767,35.086s19.513-4.789,33.34-20,16.767-35.086,16.767-35.086S1056.756,458.395,1042.917,473.6Z" transform="translate(-425.331 -227.679)" fill="#070707"/>
    <path id="Path_515" data-name="Path 515" d="M1076.269,453.61s-18.028,15.591-22.611,26.333-27.509,28.751-27.509,28.751" transform="translate(-425.33 -227.683)" stroke="#535461" stroke-miterlimit="10" stroke-width="2"/>
    <path id="Path_516" data-name="Path 516" d="M565.314,410.207v1.382H524.33v-1.121a13.774,13.774,0,0,0,3.164-1.685,13.463,13.463,0,0,0,5.625-10.948,13.284,13.284,0,0,0-.418-3.316,13.476,13.476,0,0,0-7.444-8.929h39.778a13.475,13.475,0,0,0-7.444,8.929,13.281,13.281,0,0,0-.412,3.316,13.457,13.457,0,0,0,5.619,10.948,13.866,13.866,0,0,0,2.516,1.424Z" transform="translate(-227.705 -200.896)" fill="#dfe6f5"/>
    <path id="Path_517" data-name="Path 517" d="M565.638,385.59a13.476,13.476,0,0,0-7.444,8.929H533.3a13.476,13.476,0,0,0-7.444-8.929Z" transform="translate(-228.308 -200.896)" opacity="0.1"/>
    <path id="Path_518" data-name="Path 518" d="M446.92,373.94v7.783c0,4.292,3.14,7.777,7.02,7.777H574.515c3.88,0,7.026-3.486,7.026-7.777V373.94Z" transform="translate(-197.22 -196.308)" fill="#dfe6f5"/>
    <path id="Path_519" data-name="Path 519" d="M565.314,425.275v1.382H524.33v-1.122a13.77,13.77,0,0,0,3.164-1.685h35.3a13.866,13.866,0,0,0,2.516,1.424Z" transform="translate(-227.705 -215.963)" opacity="0.1"/>
    <rect id="Rectangle_61" data-name="Rectangle 61" width="68.068" height="4.104" rx="2.052" transform="translate(283.083 208.317)" fill="#dfe6f5"/>
    <path id="Path_520" data-name="Path 520" d="M581.541,228.75a7.02,7.02,0,0,0-7.026-7.02H453.94a7.014,7.014,0,0,0-7.02,7.02v86.763H581.541Z" transform="translate(-197.22 -136.365)" fill="#474157"/>
    <path id="Path_521" data-name="Path 521" d="M580.254,236.235V310.8a3.455,3.455,0,0,1-3.455,3.461H456.435a3.455,3.455,0,0,1-3.455-3.461V236.235a3.405,3.405,0,0,1,.461-1.728,3.455,3.455,0,0,1,2.995-1.728H576.8a3.455,3.455,0,0,1,3.455,3.455Z" transform="translate(-199.606 -140.716)" fill="#4c4c78"/>
    <circle id="Ellipse_61" data-name="Ellipse 61" cx="1.619" cy="1.619" r="1.619" transform="translate(315.392 87.093)" fill="#fff"/>
    <circle id="Ellipse_62" data-name="Ellipse 62" cx="3.995" cy="3.995" r="3.995" transform="translate(313.016 181.742)" fill="#fff"/>
    <path id="Path_522" data-name="Path 522" d="M580.262,236.235H453a3.455,3.455,0,0,1,3.455-3.455H576.807a3.455,3.455,0,0,1,3.455,3.455Z" transform="translate(-199.614 -140.716)" fill="#c8cad7"/>
    <circle id="Ellipse_63" data-name="Ellipse 63" cx="0.867" cy="0.867" r="0.867" transform="translate(255.962 92.924)" fill="#ededf4"/>
    <circle id="Ellipse_64" data-name="Ellipse 64" cx="0.867" cy="0.867" r="0.867" transform="translate(258.556 92.924)" fill="#ededf4"/>
    <circle id="Ellipse_65" data-name="Ellipse 65" cx="0.867" cy="0.867" r="0.867" transform="translate(261.151 92.924)" fill="#ededf4"/>
  </g>
</svg>
